<?xml version="1.0" encoding="UTF-8" standalone="no"?>
<!DOCTYPE svg PUBLIC "-//W3C//DTD SVG 1.0//EN" "http://www.w3.org/TR/2001/REC-SVG-20010904/DTD/svg10.dtd">
<!-- Generated by Microsoft Visio 11.0, SVG Export, v1.0 af_HAF2_search_framework.svg Page-1 -->
<svg xmlns="http://www.w3.org/2000/svg" xmlns:xlink="http://www.w3.org/1999/xlink" xmlns:ev="http://www.w3.org/2001/xml-events"
		xmlns:v="http://schemas.microsoft.com/visio/2003/SVGExtensions/" width="6.41931in" height="3.79778in"
		viewBox="0 0 462.19 273.44" xml:space="preserve" color-interpolation-filters="sRGB" class="st13">
	<v:documentProperties v:langID="1033" v:viewMarkup="false">
		<v:userDefs>
			<v:ud v:nameU="msvSubprocessMaster" v:prompt="" v:val="VT4(Rectangle)"/>
			<v:ud v:nameU="msvNoAutoConnect" v:val="VT0(1):26"/>
		</v:userDefs>
	</v:documentProperties>

	<style type="text/css">
	<![CDATA[
		.st1 {fill:url(#grad30-4);stroke:#404040;stroke-linecap:round;stroke-linejoin:round;stroke-width:0.25}
		.st2 {fill:none;stroke:none;stroke-linecap:round;stroke-linejoin:round;stroke-width:0.25}
		.st3 {fill:#000000;font-family:Arial;font-size:0.833336em;font-weight:bold}
		.st4 {visibility:visible}
		.st5 {fill:#cdcdcd;fill-opacity:0.5;stroke:#cdcdcd;stroke-linecap:round;stroke-linejoin:round;stroke-opacity:0.5;stroke-width:0.25}
		.st6 {fill:url(#grad30-13);stroke:#404040;stroke-linecap:round;stroke-linejoin:round;stroke-width:0.25}
		.st7 {fill:#ffffff;font-family:Arial;font-size:1.16666em;font-weight:bold}
		.st8 {fill:#000000;font-family:Arial;font-size:1.00001em;font-weight:bold}
		.st9 {font-size:1em}
		.st10 {fill:url(#grad30-68);stroke:#404040;stroke-linecap:round;stroke-linejoin:round;stroke-width:0.25}
		.st11 {stroke:#404040;stroke-linecap:round;stroke-linejoin:round;stroke-width:0.25}
		.st12 {fill:none;stroke:#7f7f7f;stroke-dasharray:10.5,7.5;stroke-linecap:round;stroke-linejoin:round;stroke-width:1.5}
		.st13 {fill:none;fill-rule:evenodd;font-size:12px;overflow:visible;stroke-linecap:square;stroke-miterlimit:3}
	]]>
	</style>

	<defs id="Patterns_And_Gradients">
		<linearGradient id="grad30-4" v:fillPattern="30" v:foreground="#c9c9c9" v:background="#d8d8d8" x1="0" y1="1" x2="0" y2="0">
			<stop offset="0" style="stop-color:#c9c9c9;stop-opacity:1"/>
			<stop offset="1" style="stop-color:#d8d8d8;stop-opacity:1"/>
		</linearGradient>
		<linearGradient id="grad30-13" v:fillPattern="30" v:foreground="#438ccf" v:background="#5b9bd5" x1="0" y1="1" x2="0" y2="0">
			<stop offset="0" style="stop-color:#438ccf;stop-opacity:1"/>
			<stop offset="1" style="stop-color:#5b9bd5;stop-opacity:1"/>
		</linearGradient>
		<linearGradient id="grad30-68" v:fillPattern="30" v:foreground="#f0f0f0" v:background="#ffffff" x1="0" y1="1" x2="0" y2="0">
			<stop offset="0" style="stop-color:#f0f0f0;stop-opacity:1"/>
			<stop offset="1" style="stop-color:#ffffff;stop-opacity:1"/>
		</linearGradient>
	</defs>
	<g v:mID="0" v:index="1" v:groupContext="foregroundPage">
		<v:userDefs>
			<v:ud v:nameU="msvThemeColors" v:val="VT0(36):26"/>
			<v:ud v:nameU="msvThemeEffects" v:val="VT0(16):26"/>
			<v:ud v:nameU="msvThemeOrder" v:val="VT0(0):26"/>
		</v:userDefs>
		<title>Page-1</title>
		<v:pageProperties v:drawingScale="1" v:pageScale="1" v:drawingUnits="0" v:shadowOffsetX="9" v:shadowOffsetY="-9"/>
		<v:layer v:name="New Trees" v:index="0"/>
		<v:layer v:name="Plant" v:index="1"/>
		<v:layer v:name="Connector" v:index="2"/>
		<g id="shape11-1" v:mID="11" v:groupContext="shape" transform="translate(81.25,-25.69)">
			<title>Rounded rectangle.11</title>
			<v:userDefs>
				<v:ud v:nameU="visVersion" v:val="VT0(14):26"/>
				<v:ud v:nameU="msvThemeColors" v:val="VT0(36):26"/>
				<v:ud v:nameU="msvThemeEffects" v:val="VT0(16):26"/>
			</v:userDefs>
			<path d="M342 273.44 A9.00007 9.00007 -180 0 0 351 264.44 L351 52.94 A9.00007 9.00007 -180 0 0 342 43.94 L9 43.94 A9.00007
						 9.00007 -180 0 0 -0 52.94 L0 264.44 A9.00007 9.00007 -180 0 0 9 273.44 L342 273.44 Z" class="st1"/>
		</g>
		<g id="shape3-5" v:mID="3" v:groupContext="shape" transform="translate(18.25,-181.94)">
			<title>Sheet.3</title>
			<desc>Monitor</desc>
			<v:userDefs>
				<v:ud v:nameU="msvThemeColors" v:val="VT0(36):26"/>
				<v:ud v:nameU="msvThemeEffects" v:val="VT0(16):26"/>
			</v:userDefs>
			<v:textBlock v:margins="rect(4,4,4,4)"/>
			<v:textRect cx="31.0625" cy="265.44" width="62.13" height="16"/>
			<rect x="0" y="257.44" width="62.125" height="16" class="st2"/>
			<text x="12.73" y="268.44" class="st3" v:langID="1033"><v:paragraph v:horizAlign="1"/><v:tabList/>Monitor</text>		</g>
		<g id="shape4-8" v:mID="4" v:groupContext="shape" transform="translate(94.75,-36.94)">
			<title>Rounded rectangle.4</title>
			<v:userDefs>
				<v:ud v:nameU="visVersion" v:val="VT0(14):26"/>
				<v:ud v:nameU="msvThemeColors" v:val="VT0(36):26"/>
				<v:ud v:nameU="msvThemeEffects" v:val="VT0(16):26"/>
			</v:userDefs>
			<g id="shadow4-9" v:groupContext="shadow" v:shadowOffsetX="1.44" v:shadowOffsetY="-1.44" v:shadowType="1"
					transform="matrix(1,0,0,1,1.44,1.44)" class="st4">
				<path d="M58.5 273.44 A9.00007 9.00007 -180 0 0 67.5 264.44 L67.5 93.44 A9.00007 9.00007 -180 0 0 58.5 84.44 L9 84.44
							 A9.00007 9.00007 -180 0 0 -0 93.44 L0 264.44 A9.00007 9.00007 -180 0 0 9 273.44 L58.5 273.44 Z"
						class="st5"/>
			</g>
			<path d="M58.5 273.44 A9.00007 9.00007 -180 0 0 67.5 264.44 L67.5 93.44 A9.00007 9.00007 -180 0 0 58.5 84.44 L9 84.44
						 A9.00007 9.00007 -180 0 0 -0 93.44 L0 264.44 A9.00007 9.00007 -180 0 0 9 273.44 L58.5 273.44 Z"
					class="st6"/>
		</g>
		<g id="shape6-14" v:mID="6" v:groupContext="shape" transform="translate(18.25,-114.44)">
			<title>Sheet.6</title>
			<desc>Search</desc>
			<v:userDefs>
				<v:ud v:nameU="msvThemeColors" v:val="VT0(36):26"/>
				<v:ud v:nameU="msvThemeEffects" v:val="VT0(16):26"/>
			</v:userDefs>
			<v:textBlock v:margins="rect(4,4,4,4)"/>
			<v:textRect cx="31.0625" cy="265.44" width="62.13" height="16"/>
			<rect x="0" y="257.44" width="62.125" height="16" class="st2"/>
			<text x="14.39" y="268.44" class="st3" v:langID="1033"><v:paragraph v:horizAlign="1"/><v:tabList/>Search</text>		</g>
		<g id="shape5-17" v:mID="5" v:groupContext="shape" transform="translate(100.125,-200.94)">
			<title>Sheet.5</title>
			<desc>PDAF</desc>
			<v:userDefs>
				<v:ud v:nameU="msvThemeColors" v:val="VT0(36):26"/>
				<v:ud v:nameU="msvThemeEffects" v:val="VT0(16):26"/>
			</v:userDefs>
			<v:textBlock v:margins="rect(4,4,4,4)"/>
			<v:textRect cx="31.0625" cy="265.44" width="62.13" height="16"/>
			<rect x="0" y="257.44" width="62.125" height="16" class="st2"/>
			<text x="12.01" y="269.64" class="st7" v:langID="1033"><v:paragraph v:horizAlign="1"/><v:tabList/>PDAF</text>		</g>
		<g id="group15-20" transform="translate(177.563,-36.94)" v:mID="15" v:groupContext="group">
			<v:userDefs>
				<v:ud v:nameU="msvThemeColors" v:val="VT0(36):26"/>
				<v:ud v:nameU="msvThemeEffects" v:val="VT0(16):26"/>
			</v:userDefs>
			<title>Sheet.15</title>
			<g id="shape7-21" v:mID="7" v:groupContext="shape">
				<title>Rounded rectangle.7</title>
				<v:userDefs>
					<v:ud v:nameU="visVersion" v:val="VT0(14):26"/>
					<v:ud v:nameU="msvThemeColors" v:val="VT0(36):26"/>
					<v:ud v:nameU="msvThemeEffects" v:val="VT0(16):26"/>
				</v:userDefs>
				<g id="shadow7-22" v:groupContext="shadow" v:shadowOffsetX="1.44" v:shadowOffsetY="-1.44" v:shadowType="1"
						transform="matrix(1,0,0,1,1.44,1.44)" class="st4">
					<path d="M58.5 273.44 A9.00007 9.00007 -180 0 0 67.5 264.44 L67.5 93.44 A9.00007 9.00007 -180 0 0 58.5 84.44
								 L9 84.44 A9.00007 9.00007 -180 0 0 -0 93.44 L0 264.44 A9.00007 9.00007 -180 0 0 9 273.44 L58.5 273.44
								 Z" class="st5"/>
				</g>
				<path d="M58.5 273.44 A9.00007 9.00007 -180 0 0 67.5 264.44 L67.5 93.44 A9.00007 9.00007 -180 0 0 58.5 84.44 L9 84.44
							 A9.00007 9.00007 -180 0 0 -0 93.44 L0 264.44 A9.00007 9.00007 -180 0 0 9 273.44 L58.5 273.44 Z"
						class="st6"/>
			</g>
			<g id="shape8-26" v:mID="8" v:groupContext="shape" transform="translate(4.9375,-164)">
				<title>Sheet.8</title>
				<desc>TOF</desc>
				<v:userDefs>
					<v:ud v:nameU="msvThemeColors" v:val="VT0(36):26"/>
					<v:ud v:nameU="msvThemeEffects" v:val="VT0(16):26"/>
				</v:userDefs>
				<v:textBlock v:margins="rect(4,4,4,4)"/>
				<v:textRect cx="31.0625" cy="265.44" width="62.13" height="16"/>
				<rect x="0" y="257.44" width="62.125" height="16" class="st2"/>
				<text x="17.07" y="269.64" class="st7" v:langID="1033"><v:paragraph v:horizAlign="1"/><v:tabList/>TOF</text>			</g>
		</g>
		<g id="group16-29" transform="translate(265.75,-36.94)" v:mID="16" v:groupContext="group">
			<v:userDefs>
				<v:ud v:nameU="msvThemeColors" v:val="VT0(36):26"/>
				<v:ud v:nameU="msvThemeEffects" v:val="VT0(16):26"/>
			</v:userDefs>
			<title>Sheet.16</title>
			<g id="shape9-30" v:mID="9" v:groupContext="shape">
				<title>Rounded rectangle.9</title>
				<v:userDefs>
					<v:ud v:nameU="visVersion" v:val="VT0(14):26"/>
					<v:ud v:nameU="msvThemeColors" v:val="VT0(36):26"/>
					<v:ud v:nameU="msvThemeEffects" v:val="VT0(16):26"/>
				</v:userDefs>
				<g id="shadow9-31" v:groupContext="shadow" v:shadowOffsetX="1.44" v:shadowOffsetY="-1.44" v:shadowType="1"
						transform="matrix(1,0,0,1,1.44,1.44)" class="st4">
					<path d="M58.5 273.44 A9.00007 9.00007 -180 0 0 67.5 264.44 L67.5 93.44 A9.00007 9.00007 -180 0 0 58.5 84.44
								 L9 84.44 A9.00007 9.00007 -180 0 0 -0 93.44 L0 264.44 A9.00007 9.00007 -180 0 0 9 273.44 L58.5 273.44
								 Z" class="st5"/>
				</g>
				<path d="M58.5 273.44 A9.00007 9.00007 -180 0 0 67.5 264.44 L67.5 93.44 A9.00007 9.00007 -180 0 0 58.5 84.44 L9 84.44
							 A9.00007 9.00007 -180 0 0 -0 93.44 L0 264.44 A9.00007 9.00007 -180 0 0 9 273.44 L58.5 273.44 Z"
						class="st6"/>
			</g>
			<g id="shape10-35" v:mID="10" v:groupContext="shape" transform="translate(3.125,-164)">
				<title>Sheet.10</title>
				<desc>DCIAF</desc>
				<v:userDefs>
					<v:ud v:nameU="msvThemeColors" v:val="VT0(36):26"/>
					<v:ud v:nameU="msvThemeEffects" v:val="VT0(16):26"/>
				</v:userDefs>
				<v:textBlock v:margins="rect(4,4,4,4)"/>
				<v:textRect cx="31.0625" cy="265.44" width="62.13" height="16"/>
				<rect x="0" y="257.44" width="62.125" height="16" class="st2"/>
				<text x="9.68" y="269.64" class="st7" v:langID="1033"><v:paragraph v:horizAlign="1"/><v:tabList/>DCIAF</text>			</g>
		</g>
		<g id="shape18-38" v:mID="18" v:groupContext="shape" transform="translate(153.469,-234.94)">
			<title>Sheet.18</title>
			<desc>Hybrid AF Framework</desc>
			<v:userDefs>
				<v:ud v:nameU="msvThemeColors" v:val="VT0(36):26"/>
				<v:ud v:nameU="msvThemeEffects" v:val="VT0(16):26"/>
			</v:userDefs>
			<v:textBlock v:margins="rect(4,4,4,4)"/>
			<v:textRect cx="103.281" cy="265.44" width="206.57" height="16"/>
			<rect x="0" y="257.44" width="206.563" height="16" class="st2"/>
			<text x="40.93" y="269.04" class="st8" v:langID="1033"><v:paragraph v:horizAlign="1"/><v:tabList/>Hybrid AF Framework</text>		</g>
		<g id="shape19-41" v:mID="19" v:groupContext="shape" transform="translate(95.625,-115.69)">
			<title>Sheet.19</title>
			<desc>Coarse Search</desc>
			<v:userDefs>
				<v:ud v:nameU="msvThemeColors" v:val="VT0(36):26"/>
				<v:ud v:nameU="msvThemeEffects" v:val="VT0(16):26"/>
			</v:userDefs>
			<v:textBlock v:margins="rect(4,4,4,4)"/>
			<v:textRect cx="31.0625" cy="265.44" width="62.13" height="16"/>
			<rect x="0" y="257.44" width="62.125" height="16" class="st2"/>
			<text x="14.11" y="262.44" class="st3" v:langID="1033"><v:paragraph v:horizAlign="1"/><v:tabList/>Coarse<v:newlineChar/><tspan
						x="14.39" dy="1.2em" class="st9">Search</tspan></text>		</g>
		<g id="shape20-45" v:mID="20" v:groupContext="shape" transform="translate(180.25,-115.69)">
			<title>Sheet.20</title>
			<desc>Coarse Search</desc>
			<v:userDefs>
				<v:ud v:nameU="msvThemeColors" v:val="VT0(36):26"/>
				<v:ud v:nameU="msvThemeEffects" v:val="VT0(16):26"/>
			</v:userDefs>
			<v:textBlock v:margins="rect(4,4,4,4)"/>
			<v:textRect cx="31.0625" cy="265.44" width="62.13" height="16"/>
			<rect x="0" y="257.44" width="62.125" height="16" class="st2"/>
			<text x="14.11" y="262.44" class="st3" v:langID="1033"><v:paragraph v:horizAlign="1"/><v:tabList/>Coarse<v:newlineChar/><tspan
						x="14.39" dy="1.2em" class="st9">Search</tspan></text>		</g>
		<g id="shape21-49" v:mID="21" v:groupContext="shape" transform="translate(268.438,-115.69)">
			<title>Sheet.21</title>
			<desc>Coarse Search</desc>
			<v:userDefs>
				<v:ud v:nameU="msvThemeColors" v:val="VT0(36):26"/>
				<v:ud v:nameU="msvThemeEffects" v:val="VT0(16):26"/>
			</v:userDefs>
			<v:textBlock v:margins="rect(4,4,4,4)"/>
			<v:textRect cx="31.0625" cy="265.44" width="62.13" height="16"/>
			<rect x="0" y="257.44" width="62.125" height="16" class="st2"/>
			<text x="14.11" y="262.44" class="st3" v:langID="1033"><v:paragraph v:horizAlign="1"/><v:tabList/>Coarse<v:newlineChar/><tspan
						x="14.39" dy="1.2em" class="st9">Search</tspan></text>		</g>
		<g id="shape23-53" v:mID="23" v:groupContext="shape" transform="translate(95.625,-67.19)">
			<title>Sheet.23</title>
			<desc>Fine Search</desc>
			<v:userDefs>
				<v:ud v:nameU="msvThemeColors" v:val="VT0(36):26"/>
				<v:ud v:nameU="msvThemeEffects" v:val="VT0(16):26"/>
			</v:userDefs>
			<v:textBlock v:margins="rect(4,4,4,4)"/>
			<v:textRect cx="31.0625" cy="265.44" width="62.13" height="16"/>
			<rect x="0" y="257.44" width="62.125" height="16" class="st2"/>
			<text x="20.78" y="262.44" class="st3" v:langID="1033"><v:paragraph v:horizAlign="1"/><v:tabList/>Fine<v:newlineChar/><tspan
						x="14.39" dy="1.2em" class="st9">Search</tspan></text>		</g>
		<g id="shape25-57" v:mID="25" v:groupContext="shape" transform="translate(268.438,-67.19)">
			<title>Sheet.25</title>
			<desc>Fine Search</desc>
			<v:userDefs>
				<v:ud v:nameU="msvThemeColors" v:val="VT0(36):26"/>
				<v:ud v:nameU="msvThemeEffects" v:val="VT0(16):26"/>
			</v:userDefs>
			<v:textBlock v:margins="rect(4,4,4,4)"/>
			<v:textRect cx="31.0625" cy="265.44" width="62.13" height="16"/>
			<rect x="0" y="257.44" width="62.125" height="16" class="st2"/>
			<text x="20.78" y="262.44" class="st3" v:langID="1033"><v:paragraph v:horizAlign="1"/><v:tabList/>Fine<v:newlineChar/><tspan
						x="14.39" dy="1.2em" class="st9">Search</tspan></text>		</g>
		<g id="shape26-61" v:mID="26" v:groupContext="shape" transform="translate(180.25,-67.19)">
			<title>Sheet.26</title>
			<desc>Fine Search</desc>
			<v:userDefs>
				<v:ud v:nameU="msvThemeColors" v:val="VT0(36):26"/>
				<v:ud v:nameU="msvThemeEffects" v:val="VT0(16):26"/>
			</v:userDefs>
			<v:textBlock v:margins="rect(4,4,4,4)"/>
			<v:textRect cx="31.0625" cy="265.44" width="62.13" height="16"/>
			<rect x="0" y="257.44" width="62.125" height="16" class="st2"/>
			<text x="20.78" y="262.44" class="st3" v:langID="1033"><v:paragraph v:horizAlign="1"/><v:tabList/>Fine<v:newlineChar/><tspan
						x="14.39" dy="1.2em" class="st9">Search</tspan></text>		</g>
		<g id="shape27-65" v:mID="27" v:groupContext="shape" transform="translate(392.94,72.5) rotate(90)">
			<title>45 degree double</title>
			<v:userDefs>
				<v:ud v:nameU="visVersion" v:val="VT0(14):26"/>
				<v:ud v:nameU="msvThemeColors" v:val="VT0(36):26"/>
				<v:ud v:nameU="msvThemeEffects" v:val="VT0(16):26"/>
			</v:userDefs>
			<path d="M0 264.44 L9 255.44 L9 261.38 L27 261.38 L27 255.44 L36 264.44 L27 273.44 L27 267.5 L9 267.5 L9 273.44 L0 264.44
						 Z" class="st10"/>
		</g>
		<g id="shape28-69" v:mID="28" v:groupContext="shape" transform="translate(476.19,72.5) rotate(90)">
			<title>45 degree double.28</title>
			<v:userDefs>
				<v:ud v:nameU="visVersion" v:val="VT0(14):26"/>
				<v:ud v:nameU="msvThemeColors" v:val="VT0(36):26"/>
				<v:ud v:nameU="msvThemeEffects" v:val="VT0(16):26"/>
			</v:userDefs>
			<path d="M0 264.44 L9 255.44 L9 261.38 L27 261.38 L27 255.44 L36 264.44 L27 273.44 L27 267.5 L9 267.5 L9 273.44 L0 264.44
						 Z" class="st10"/>
		</g>
		<g id="shape29-72" v:mID="29" v:groupContext="shape" transform="translate(563.94,72.5) rotate(90)">
			<title>45 degree double.29</title>
			<v:userDefs>
				<v:ud v:nameU="visVersion" v:val="VT0(14):26"/>
				<v:ud v:nameU="msvThemeColors" v:val="VT0(36):26"/>
				<v:ud v:nameU="msvThemeEffects" v:val="VT0(16):26"/>
			</v:userDefs>
			<path d="M0 264.44 L9 255.44 L9 261.38 L27 261.38 L27 255.44 L36 264.44 L27 273.44 L27 267.5 L9 267.5 L9 273.44 L0 264.44
						 Z" class="st10"/>
		</g>
		<g id="shape32-75" v:mID="32" v:groupContext="shape" transform="translate(94.75,-102.19)">
			<title>Sheet.32</title>
			<v:userDefs>
				<v:ud v:nameU="msvThemeColors" v:val="VT0(36):26"/>
				<v:ud v:nameU="msvThemeEffects" v:val="VT0(16):26"/>
			</v:userDefs>
			<path d="M0 273.44 L67.5 273.44" class="st11"/>
		</g>
		<g id="shape33-79" v:mID="33" v:groupContext="shape" transform="translate(177.563,-102.19)">
			<title>Sheet.33</title>
			<v:userDefs>
				<v:ud v:nameU="msvThemeColors" v:val="VT0(36):26"/>
				<v:ud v:nameU="msvThemeEffects" v:val="VT0(16):26"/>
			</v:userDefs>
			<path d="M0 273.44 L67.5 273.44" class="st11"/>
		</g>
		<g id="shape34-83" v:mID="34" v:groupContext="shape" transform="translate(265.75,-102.19)">
			<title>Sheet.34</title>
			<v:userDefs>
				<v:ud v:nameU="msvThemeColors" v:val="VT0(36):26"/>
				<v:ud v:nameU="msvThemeEffects" v:val="VT0(16):26"/>
			</v:userDefs>
			<path d="M0 273.44 L67.5 273.44" class="st11"/>
		</g>
		<g id="group2-87" transform="translate(351.25,-34.44)" v:mID="2" v:groupContext="group">
			<v:userDefs>
				<v:ud v:nameU="msvThemeColors" v:val="VT0(36):26"/>
				<v:ud v:nameU="msvThemeEffects" v:val="VT0(16):26"/>
			</v:userDefs>
			<title>Sheet.2</title>
		</g>
		<g id="group35-88" transform="translate(350.125,-36.69)" v:mID="35" v:groupContext="group">
			<v:userDefs>
				<v:ud v:nameU="msvThemeColors" v:val="VT0(36):26"/>
				<v:ud v:nameU="msvThemeEffects" v:val="VT0(16):26"/>
			</v:userDefs>
			<title>Sheet.35</title>
			<g id="group12-89" v:mID="12" v:groupContext="group">
				<v:userDefs>
					<v:ud v:nameU="msvThemeColors" v:val="VT0(36):26"/>
					<v:ud v:nameU="msvThemeEffects" v:val="VT0(16):26"/>
				</v:userDefs>
				<title>Sheet.12</title>
				<g id="shape13-90" v:mID="13" v:groupContext="shape">
					<title>Rounded rectangle.13</title>
					<v:userDefs>
						<v:ud v:nameU="visVersion" v:val="VT0(14):26"/>
						<v:ud v:nameU="msvThemeColors" v:val="VT0(36):26"/>
						<v:ud v:nameU="msvThemeEffects" v:val="VT0(16):26"/>
					</v:userDefs>
					<g id="shadow13-91" v:groupContext="shadow" v:shadowOffsetX="1.44" v:shadowOffsetY="-1.44" v:shadowType="1"
							transform="matrix(1,0,0,1,1.44,1.44)" class="st4">
						<path d="M58.5 273.44 A9.00007 9.00007 -180 0 0 67.5 264.44 L67.5 93.44 A9.00007 9.00007 -180 0 0 58.5 84.44
									 L9 84.44 A9.00007 9.00007 -180 0 0 -0 93.44 L0 264.44 A9.00007 9.00007 -180 0 0 9 273.44 L58.5
									 273.44 Z" class="st5"/>
					</g>
					<path d="M58.5 273.44 A9.00007 9.00007 -180 0 0 67.5 264.44 L67.5 93.44 A9.00007 9.00007 -180 0 0 58.5 84.44
								 L9 84.44 A9.00007 9.00007 -180 0 0 -0 93.44 L0 264.44 A9.00007 9.00007 -180 0 0 9 273.44 L58.5 273.44
								 Z" class="st6"/>
				</g>
				<g id="shape14-95" v:mID="14" v:groupContext="shape" transform="translate(5.375,-164)">
					<title>Sheet.14</title>
					<desc>CAF</desc>
					<v:userDefs>
						<v:ud v:nameU="msvThemeColors" v:val="VT0(36):26"/>
						<v:ud v:nameU="msvThemeEffects" v:val="VT0(16):26"/>
					</v:userDefs>
					<v:textBlock v:margins="rect(4,4,4,4)"/>
					<v:textRect cx="31.0625" cy="265.44" width="62.13" height="16"/>
					<rect x="0" y="257.44" width="62.125" height="16" class="st2"/>
					<text x="16.68" y="269.64" class="st7" v:langID="1033"><v:paragraph v:horizAlign="1"/><v:tabList/>CAF</text>				</g>
			</g>
			<g id="shape17-98" v:mID="17" v:groupContext="shape" transform="translate(2.6875,-78.75)">
				<title>Sheet.17</title>
				<desc>Coarse Search</desc>
				<v:userDefs>
					<v:ud v:nameU="msvThemeColors" v:val="VT0(36):26"/>
					<v:ud v:nameU="msvThemeEffects" v:val="VT0(16):26"/>
				</v:userDefs>
				<v:textBlock v:margins="rect(4,4,4,4)"/>
				<v:textRect cx="31.0625" cy="265.44" width="62.13" height="16"/>
				<rect x="0" y="257.44" width="62.125" height="16" class="st2"/>
				<text x="14.11" y="262.44" class="st3" v:langID="1033"><v:paragraph v:horizAlign="1"/><v:tabList/>Coarse<v:newlineChar/><tspan
							x="14.39" dy="1.2em" class="st9">Search</tspan></text>			</g>
			<g id="shape22-102" v:mID="22" v:groupContext="shape" transform="translate(2.6875,-30.25)">
				<title>Sheet.22</title>
				<desc>Fine Search</desc>
				<v:userDefs>
					<v:ud v:nameU="msvThemeColors" v:val="VT0(36):26"/>
					<v:ud v:nameU="msvThemeEffects" v:val="VT0(16):26"/>
				</v:userDefs>
				<v:textBlock v:margins="rect(4,4,4,4)"/>
				<v:textRect cx="31.0625" cy="265.44" width="62.13" height="16"/>
				<rect x="0" y="257.44" width="62.125" height="16" class="st2"/>
				<text x="20.78" y="262.44" class="st3" v:langID="1033"><v:paragraph v:horizAlign="1"/><v:tabList/>Fine<v:newlineChar/><tspan
							x="14.39" dy="1.2em" class="st9">Search</tspan></text>			</g>
			<g id="shape24-106" v:mID="24" v:groupContext="shape" transform="translate(300.878,109.44) rotate(90)">
				<title>45 degree double.24</title>
				<v:userDefs>
					<v:ud v:nameU="visVersion" v:val="VT0(14):26"/>
					<v:ud v:nameU="msvThemeColors" v:val="VT0(36):26"/>
					<v:ud v:nameU="msvThemeEffects" v:val="VT0(16):26"/>
				</v:userDefs>
				<path d="M0 264.44 L9 255.44 L9 261.38 L27 261.38 L27 255.44 L36 264.44 L27 273.44 L27 267.5 L9 267.5 L9 273.44 L0
							 264.44 Z" class="st10"/>
			</g>
			<g id="shape31-109" v:mID="31" v:groupContext="shape" transform="translate(6.39488E-014,-65.25)">
				<title>Sheet.31</title>
				<v:userDefs>
					<v:ud v:nameU="msvThemeColors" v:val="VT0(36):26"/>
					<v:ud v:nameU="msvThemeEffects" v:val="VT0(16):26"/>
				</v:userDefs>
				<path d="M0 273.44 L67.5 273.44" class="st11"/>
			</g>
		</g>
		<g id="shape1-113" v:mID="1" v:groupContext="shape" transform="translate(27,-20.94)">
			<title>Rounded rectangle</title>
			<v:userDefs>
				<v:ud v:nameU="visVersion" v:val="VT0(14):26"/>
				<v:ud v:nameU="msvThemeColors" v:val="VT0(36):26"/>
				<v:ud v:nameU="msvThemeEffects" v:val="VT0(16):26"/>
			</v:userDefs>
			<path d="M405.25 273.44 A9.00007 9.00007 -180 0 0 414.25 264.44 L414.25 156.44 A9.00007 9.00007 -180 0 0 405.25 147.44
						 L9 147.44 A9.00007 9.00007 -180 0 0 -0 156.44 L0 264.44 A9.00007 9.00007 -180 0 0 9 273.44 L405.25 273.44
						 Z" class="st12"/>
		</g>
	</g>
</svg>
