<?xml version="1.0" encoding="UTF-8" standalone="no"?>
<!DOCTYPE svg PUBLIC "-//W3C//DTD SVG 1.0//EN" "http://www.w3.org/TR/2001/REC-SVG-20010904/DTD/svg10.dtd">
<!-- Generated by Microsoft Visio 11.0, SVG Export, v1.0 af_baf_8998diagram.svg Page-18 -->
<svg xmlns="http://www.w3.org/2000/svg" xmlns:xlink="http://www.w3.org/1999/xlink" xmlns:ev="http://www.w3.org/2001/xml-events"
		xmlns:v="http://schemas.microsoft.com/visio/2003/SVGExtensions/" width="10.1946in" height="4.5in" viewBox="0 0 734.012 324"
		xml:space="preserve" color-interpolation-filters="sRGB" class="st23">
	<v:documentProperties v:langID="1033" v:viewMarkup="false">
		<v:userDefs>
			<v:ud v:nameU="msvNoAutoConnect" v:val="VT0(0):26"/>
		</v:userDefs>
	</v:documentProperties>

	<style type="text/css">
	<![CDATA[
		.st1 {fill:none;stroke:none;stroke-linecap:round;stroke-linejoin:round;stroke-width:0.25}
		.st2 {fill:#000000;font-family:Calibri;font-size:1.00001em}
		.st3 {fill:#00ff00;stroke:none;stroke-linecap:round;stroke-linejoin:round;stroke-width:0.25}
		.st4 {fill:#ff0000;stroke:none;stroke-linecap:round;stroke-linejoin:round;stroke-width:0.25}
		.st5 {fill:#0000ff;stroke:none;stroke-linecap:round;stroke-linejoin:round;stroke-width:0.25}
		.st6 {fill:none;stroke:#404040;stroke-dasharray:1.75,1.25;stroke-linecap:round;stroke-linejoin:round;stroke-width:0.25}
		.st7 {fill:url(#grad30-157);stroke:#404040;stroke-linecap:round;stroke-linejoin:round;stroke-width:0.25}
		.st8 {fill:#000000;font-family:Calibri;font-size:0.666664em}
		.st9 {marker-end:url(#mrkr5-178);stroke:#404040;stroke-linecap:butt;stroke-width:1}
		.st10 {fill:#404040;fill-opacity:1;stroke:#404040;stroke-opacity:1;stroke-width:0.28409090909091}
		.st11 {fill:none;stroke:#404040;stroke-dasharray:3.75,2.25;stroke-linecap:round;stroke-linejoin:round;stroke-width:0.25}
		.st12 {marker-end:url(#mrkr5-178);stroke:#404040;stroke-linecap:round;stroke-linejoin:round;stroke-width:1}
		.st13 {visibility:visible}
		.st14 {stroke:#cdcdcd;stroke-linecap:round;stroke-linejoin:round;stroke-opacity:0.5;stroke-width:0.25}
		.st15 {stroke:#404040;stroke-linecap:round;stroke-linejoin:round;stroke-width:0.25}
		.st16 {fill:#ff0000;font-family:Calibri;font-size:0.666664em}
		.st17 {fill:#ffffff;stroke:#404040;stroke-linecap:round;stroke-linejoin:round;stroke-width:0.25}
		.st18 {font-size:1em}
		.st19 {fill:#ffffff;stroke:none;stroke-linecap:butt;stroke-width:7.2}
		.st20 {fill:#ffff00;stroke:none;stroke-linecap:round;stroke-linejoin:round;stroke-width:0.25}
		.st21 {fill:#a6c3dd;stroke:none;stroke-linecap:round;stroke-linejoin:round;stroke-width:0.25}
		.st22 {baseline-shift:32.4939%;font-size:0.649878em}
		.st23 {fill:none;fill-rule:evenodd;font-size:12px;overflow:visible;stroke-linecap:square;stroke-miterlimit:3}
	]]>
	</style>

	<defs id="Patterns_And_Gradients">
		<linearGradient id="grad30-157" v:fillPattern="30" v:foreground="#f0f0f0" v:background="#ffffff" x1="0" y1="1" x2="0"
				y2="0">
			<stop offset="0" style="stop-color:#f0f0f0;stop-opacity:1"/>
			<stop offset="1" style="stop-color:#ffffff;stop-opacity:1"/>
		</linearGradient>
	</defs>
	<defs id="Markers">
		<g id="lend5">
			<path d="M 2 1 L 0 0 L 1.98117 -0.993387 C 1.67173 -0.364515 1.67301 0.372641 1.98465 1.00043 " style="stroke:none"/>
		</g>
		<marker id="mrkr5-178" class="st10" v:arrowType="5" v:arrowSize="2" v:setback="6.16" refX="-6.16" orient="auto"
				markerUnits="strokeWidth" overflow="visible">
			<use xlink:href="#lend5" transform="scale(-3.52,-3.52) "/>
		</marker>
	</defs>
	<g v:mID="10" v:index="18" v:groupContext="foregroundPage">
		<v:userDefs>
			<v:ud v:nameU="msvThemeColors" v:val="VT0(36):26"/>
			<v:ud v:nameU="msvThemeEffects" v:val="VT0(16):26"/>
			<v:ud v:nameU="msvThemeOrder" v:val="VT0(0):26"/>
		</v:userDefs>
		<title>Page-18</title>
		<v:pageProperties v:drawingScale="1" v:pageScale="1" v:drawingUnits="0" v:shadowOffsetX="9" v:shadowOffsetY="-9"/>
		<v:layer v:name="Connector" v:index="0"/>
		<v:layer v:name="Flowchart" v:index="1"/>
		<g id="shape1-1" v:mID="1" v:groupContext="shape" transform="translate(18.25,-207)">
			<title>Sheet.1</title>
			<desc>Bayer image</desc>
			<v:userDefs>
				<v:ud v:nameU="msvThemeColors" v:val="VT0(36):26"/>
				<v:ud v:nameU="msvThemeEffects" v:val="VT0(16):26"/>
			</v:userDefs>
			<v:textBlock v:margins="rect(2,2,2,2)"/>
			<v:textRect cx="33.75" cy="315" width="67.5" height="18"/>
			<rect x="0" y="306" width="67.5" height="18" class="st1"/>
			<text x="3.61" y="318.6" class="st2" v:langID="1033"><v:paragraph v:horizAlign="1"/><v:tabList/>Bayer image</text>		</g>
		<g id="group2-4" transform="translate(18.25,-126)" v:mID="2" v:groupContext="group">
			<v:userDefs>
				<v:ud v:nameU="msvThemeColors" v:val="VT0(36):26"/>
				<v:ud v:nameU="msvThemeEffects" v:val="VT0(16):26"/>
			</v:userDefs>
			<title>Sheet.2</title>
			<g id="group3-5" transform="translate(3.59712E-014,-54)" v:mID="3" v:groupContext="group">
				<v:userDefs>
					<v:ud v:nameU="msvThemeColors" v:val="VT0(36):26"/>
					<v:ud v:nameU="msvThemeEffects" v:val="VT0(16):26"/>
				</v:userDefs>
				<title>Sheet.3</title>
				<g id="shape4-6" v:mID="4" v:groupContext="shape">
					<title>Sheet.4</title>
					<path d="M0 315.12 L0 324 L9.01 324 L9.01 315.12 L0 315.12 L0 315.12 Z" class="st3"/>
				</g>
				<g id="shape5-8" v:mID="5" v:groupContext="shape" transform="translate(9.00582,0)">
					<title>Sheet.5</title>
					<path d="M0 315.12 L0 324 L9.01 324 L9.01 315.12 L0 315.12 L0 315.12 Z" class="st4"/>
				</g>
				<g id="shape6-10" v:mID="6" v:groupContext="shape" transform="translate(9.00582,-9)">
					<title>Sheet.6</title>
					<path d="M0 315.12 L0 324 L9.01 324 L9.01 315.12 L0 315.12 L0 315.12 Z" class="st3"/>
				</g>
				<g id="shape7-12" v:mID="7" v:groupContext="shape" transform="translate(0.00581771,-9)">
					<title>Sheet.7</title>
					<path d="M0 315.12 L0 324 L9.01 324 L9.01 315.12 L0 315.12 L0 315.12 Z" class="st5"/>
				</g>
			</g>
			<g id="group8-14" transform="translate(18,-54.1158)" v:mID="8" v:groupContext="group">
				<v:userDefs>
					<v:ud v:nameU="msvThemeColors" v:val="VT0(36):26"/>
					<v:ud v:nameU="msvThemeEffects" v:val="VT0(16):26"/>
				</v:userDefs>
				<title>Sheet.8</title>
				<g id="shape9-15" v:mID="9" v:groupContext="shape">
					<title>Sheet.9</title>
					<path d="M0 315.12 L0 324 L9.01 324 L9.01 315.12 L0 315.12 L0 315.12 Z" class="st3"/>
				</g>
				<g id="shape10-17" v:mID="10" v:groupContext="shape" transform="translate(9.00582,0)">
					<title>Sheet.10</title>
					<path d="M0 315.12 L0 324 L9.01 324 L9.01 315.12 L0 315.12 L0 315.12 Z" class="st4"/>
				</g>
				<g id="shape11-19" v:mID="11" v:groupContext="shape" transform="translate(9.00582,-9)">
					<title>Sheet.11</title>
					<path d="M0 315.12 L0 324 L9.01 324 L9.01 315.12 L0 315.12 L0 315.12 Z" class="st3"/>
				</g>
				<g id="shape12-21" v:mID="12" v:groupContext="shape" transform="translate(0.00581771,-9)">
					<title>Sheet.12</title>
					<path d="M0 315.12 L0 324 L9.01 324 L9.01 315.12 L0 315.12 L0 315.12 Z" class="st5"/>
				</g>
			</g>
			<g id="group13-23" transform="translate(36.0116,-54)" v:mID="13" v:groupContext="group">
				<v:userDefs>
					<v:ud v:nameU="msvThemeColors" v:val="VT0(36):26"/>
					<v:ud v:nameU="msvThemeEffects" v:val="VT0(16):26"/>
				</v:userDefs>
				<title>Sheet.13</title>
				<g id="shape14-24" v:mID="14" v:groupContext="shape">
					<title>Sheet.14</title>
					<path d="M0 315.12 L0 324 L9.01 324 L9.01 315.12 L0 315.12 L0 315.12 Z" class="st3"/>
				</g>
				<g id="shape15-26" v:mID="15" v:groupContext="shape" transform="translate(9.00582,0)">
					<title>Sheet.15</title>
					<path d="M0 315.12 L0 324 L9.01 324 L9.01 315.12 L0 315.12 L0 315.12 Z" class="st4"/>
				</g>
				<g id="shape16-28" v:mID="16" v:groupContext="shape" transform="translate(9.00582,-9)">
					<title>Sheet.16</title>
					<path d="M0 315.12 L0 324 L9.01 324 L9.01 315.12 L0 315.12 L0 315.12 Z" class="st3"/>
				</g>
				<g id="shape17-30" v:mID="17" v:groupContext="shape" transform="translate(0.00581771,-9)">
					<title>Sheet.17</title>
					<path d="M0 315.12 L0 324 L9.01 324 L9.01 315.12 L0 315.12 L0 315.12 Z" class="st5"/>
				</g>
			</g>
			<g id="group18-32" transform="translate(54.0116,-54)" v:mID="18" v:groupContext="group">
				<v:userDefs>
					<v:ud v:nameU="msvThemeColors" v:val="VT0(36):26"/>
					<v:ud v:nameU="msvThemeEffects" v:val="VT0(16):26"/>
				</v:userDefs>
				<title>Sheet.18</title>
				<g id="shape19-33" v:mID="19" v:groupContext="shape">
					<title>Sheet.19</title>
					<path d="M0 315.12 L0 324 L9.01 324 L9.01 315.12 L0 315.12 L0 315.12 Z" class="st3"/>
				</g>
				<g id="shape20-35" v:mID="20" v:groupContext="shape" transform="translate(9.00582,0)">
					<title>Sheet.20</title>
					<path d="M0 315.12 L0 324 L9.01 324 L9.01 315.12 L0 315.12 L0 315.12 Z" class="st4"/>
				</g>
				<g id="shape21-37" v:mID="21" v:groupContext="shape" transform="translate(9.00582,-9)">
					<title>Sheet.21</title>
					<path d="M0 315.12 L0 324 L9.01 324 L9.01 315.12 L0 315.12 L0 315.12 Z" class="st3"/>
				</g>
				<g id="shape22-39" v:mID="22" v:groupContext="shape" transform="translate(0.00581771,-9)">
					<title>Sheet.22</title>
					<path d="M0 315.12 L0 324 L9.01 324 L9.01 315.12 L0 315.12 L0 315.12 Z" class="st5"/>
				</g>
			</g>
			<g id="group23-41" transform="translate(0,-36)" v:mID="23" v:groupContext="group">
				<v:userDefs>
					<v:ud v:nameU="msvThemeColors" v:val="VT0(36):26"/>
					<v:ud v:nameU="msvThemeEffects" v:val="VT0(16):26"/>
				</v:userDefs>
				<title>Sheet.23</title>
				<g id="shape24-42" v:mID="24" v:groupContext="shape">
					<title>Sheet.24</title>
					<path d="M0 315.12 L0 324 L9.01 324 L9.01 315.12 L0 315.12 L0 315.12 Z" class="st3"/>
				</g>
				<g id="shape25-44" v:mID="25" v:groupContext="shape" transform="translate(9.00582,0)">
					<title>Sheet.25</title>
					<path d="M0 315.12 L0 324 L9.01 324 L9.01 315.12 L0 315.12 L0 315.12 Z" class="st4"/>
				</g>
				<g id="shape26-46" v:mID="26" v:groupContext="shape" transform="translate(9.00582,-9)">
					<title>Sheet.26</title>
					<path d="M0 315.12 L0 324 L9.01 324 L9.01 315.12 L0 315.12 L0 315.12 Z" class="st3"/>
				</g>
				<g id="shape27-48" v:mID="27" v:groupContext="shape" transform="translate(0.00581771,-9)">
					<title>Sheet.27</title>
					<path d="M0 315.12 L0 324 L9.01 324 L9.01 315.12 L0 315.12 L0 315.12 Z" class="st5"/>
				</g>
			</g>
			<g id="group28-50" transform="translate(18,-36.1158)" v:mID="28" v:groupContext="group">
				<v:userDefs>
					<v:ud v:nameU="msvThemeColors" v:val="VT0(36):26"/>
					<v:ud v:nameU="msvThemeEffects" v:val="VT0(16):26"/>
				</v:userDefs>
				<title>Sheet.28</title>
				<g id="shape29-51" v:mID="29" v:groupContext="shape">
					<title>Sheet.29</title>
					<path d="M0 315.12 L0 324 L9.01 324 L9.01 315.12 L0 315.12 L0 315.12 Z" class="st3"/>
				</g>
				<g id="shape30-53" v:mID="30" v:groupContext="shape" transform="translate(9.00582,0)">
					<title>Sheet.30</title>
					<path d="M0 315.12 L0 324 L9.01 324 L9.01 315.12 L0 315.12 L0 315.12 Z" class="st4"/>
				</g>
				<g id="shape31-55" v:mID="31" v:groupContext="shape" transform="translate(9.00582,-9)">
					<title>Sheet.31</title>
					<path d="M0 315.12 L0 324 L9.01 324 L9.01 315.12 L0 315.12 L0 315.12 Z" class="st3"/>
				</g>
				<g id="shape32-57" v:mID="32" v:groupContext="shape" transform="translate(0.00581771,-9)">
					<title>Sheet.32</title>
					<path d="M0 315.12 L0 324 L9.01 324 L9.01 315.12 L0 315.12 L0 315.12 Z" class="st5"/>
				</g>
			</g>
			<g id="group33-59" transform="translate(36.0116,-36)" v:mID="33" v:groupContext="group">
				<v:userDefs>
					<v:ud v:nameU="msvThemeColors" v:val="VT0(36):26"/>
					<v:ud v:nameU="msvThemeEffects" v:val="VT0(16):26"/>
				</v:userDefs>
				<title>Sheet.33</title>
				<g id="shape34-60" v:mID="34" v:groupContext="shape">
					<title>Sheet.34</title>
					<path d="M0 315.12 L0 324 L9.01 324 L9.01 315.12 L0 315.12 L0 315.12 Z" class="st3"/>
				</g>
				<g id="shape35-62" v:mID="35" v:groupContext="shape" transform="translate(9.00582,0)">
					<title>Sheet.35</title>
					<path d="M0 315.12 L0 324 L9.01 324 L9.01 315.12 L0 315.12 L0 315.12 Z" class="st4"/>
				</g>
				<g id="shape36-64" v:mID="36" v:groupContext="shape" transform="translate(9.00582,-9)">
					<title>Sheet.36</title>
					<path d="M0 315.12 L0 324 L9.01 324 L9.01 315.12 L0 315.12 L0 315.12 Z" class="st3"/>
				</g>
				<g id="shape37-66" v:mID="37" v:groupContext="shape" transform="translate(0.00581771,-9)">
					<title>Sheet.37</title>
					<path d="M0 315.12 L0 324 L9.01 324 L9.01 315.12 L0 315.12 L0 315.12 Z" class="st5"/>
				</g>
			</g>
			<g id="group38-68" transform="translate(54.0116,-36)" v:mID="38" v:groupContext="group">
				<v:userDefs>
					<v:ud v:nameU="msvThemeColors" v:val="VT0(36):26"/>
					<v:ud v:nameU="msvThemeEffects" v:val="VT0(16):26"/>
				</v:userDefs>
				<title>Sheet.38</title>
				<g id="shape39-69" v:mID="39" v:groupContext="shape">
					<title>Sheet.39</title>
					<path d="M0 315.12 L0 324 L9.01 324 L9.01 315.12 L0 315.12 L0 315.12 Z" class="st3"/>
				</g>
				<g id="shape40-71" v:mID="40" v:groupContext="shape" transform="translate(9.00582,0)">
					<title>Sheet.40</title>
					<path d="M0 315.12 L0 324 L9.01 324 L9.01 315.12 L0 315.12 L0 315.12 Z" class="st4"/>
				</g>
				<g id="shape41-73" v:mID="41" v:groupContext="shape" transform="translate(9.00582,-9)">
					<title>Sheet.41</title>
					<path d="M0 315.12 L0 324 L9.01 324 L9.01 315.12 L0 315.12 L0 315.12 Z" class="st3"/>
				</g>
				<g id="shape42-75" v:mID="42" v:groupContext="shape" transform="translate(0.00581771,-9)">
					<title>Sheet.42</title>
					<path d="M0 315.12 L0 324 L9.01 324 L9.01 315.12 L0 315.12 L0 315.12 Z" class="st5"/>
				</g>
			</g>
			<g id="group43-77" transform="translate(0.0116354,-18)" v:mID="43" v:groupContext="group">
				<v:userDefs>
					<v:ud v:nameU="msvThemeColors" v:val="VT0(36):26"/>
					<v:ud v:nameU="msvThemeEffects" v:val="VT0(16):26"/>
				</v:userDefs>
				<title>Sheet.43</title>
				<g id="shape44-78" v:mID="44" v:groupContext="shape">
					<title>Sheet.44</title>
					<path d="M0 315.12 L0 324 L9.01 324 L9.01 315.12 L0 315.12 L0 315.12 Z" class="st3"/>
				</g>
				<g id="shape45-80" v:mID="45" v:groupContext="shape" transform="translate(9.00582,0)">
					<title>Sheet.45</title>
					<path d="M0 315.12 L0 324 L9.01 324 L9.01 315.12 L0 315.12 L0 315.12 Z" class="st4"/>
				</g>
				<g id="shape46-82" v:mID="46" v:groupContext="shape" transform="translate(9.00582,-9)">
					<title>Sheet.46</title>
					<path d="M0 315.12 L0 324 L9.01 324 L9.01 315.12 L0 315.12 L0 315.12 Z" class="st3"/>
				</g>
				<g id="shape47-84" v:mID="47" v:groupContext="shape" transform="translate(0.00581771,-9)">
					<title>Sheet.47</title>
					<path d="M0 315.12 L0 324 L9.01 324 L9.01 315.12 L0 315.12 L0 315.12 Z" class="st5"/>
				</g>
			</g>
			<g id="group48-86" transform="translate(18,-18)" v:mID="48" v:groupContext="group">
				<v:userDefs>
					<v:ud v:nameU="msvThemeColors" v:val="VT0(36):26"/>
					<v:ud v:nameU="msvThemeEffects" v:val="VT0(16):26"/>
				</v:userDefs>
				<title>Sheet.48</title>
				<g id="shape49-87" v:mID="49" v:groupContext="shape">
					<title>Sheet.49</title>
					<path d="M0 315.12 L0 324 L9.01 324 L9.01 315.12 L0 315.12 L0 315.12 Z" class="st3"/>
				</g>
				<g id="shape50-89" v:mID="50" v:groupContext="shape" transform="translate(9.00582,0)">
					<title>Sheet.50</title>
					<path d="M0 315.12 L0 324 L9.01 324 L9.01 315.12 L0 315.12 L0 315.12 Z" class="st4"/>
				</g>
				<g id="shape51-91" v:mID="51" v:groupContext="shape" transform="translate(9.00582,-9)">
					<title>Sheet.51</title>
					<path d="M0 315.12 L0 324 L9.01 324 L9.01 315.12 L0 315.12 L0 315.12 Z" class="st3"/>
				</g>
				<g id="shape52-93" v:mID="52" v:groupContext="shape" transform="translate(0.00581771,-9)">
					<title>Sheet.52</title>
					<path d="M0 315.12 L0 324 L9.01 324 L9.01 315.12 L0 315.12 L0 315.12 Z" class="st5"/>
				</g>
			</g>
			<g id="group53-95" transform="translate(36.0116,-18.1158)" v:mID="53" v:groupContext="group">
				<v:userDefs>
					<v:ud v:nameU="msvThemeColors" v:val="VT0(36):26"/>
					<v:ud v:nameU="msvThemeEffects" v:val="VT0(16):26"/>
				</v:userDefs>
				<title>Sheet.53</title>
				<g id="shape54-96" v:mID="54" v:groupContext="shape">
					<title>Sheet.54</title>
					<path d="M0 315.12 L0 324 L9.01 324 L9.01 315.12 L0 315.12 L0 315.12 Z" class="st3"/>
				</g>
				<g id="shape55-98" v:mID="55" v:groupContext="shape" transform="translate(9.00582,0)">
					<title>Sheet.55</title>
					<path d="M0 315.12 L0 324 L9.01 324 L9.01 315.12 L0 315.12 L0 315.12 Z" class="st4"/>
				</g>
				<g id="shape56-100" v:mID="56" v:groupContext="shape" transform="translate(9.00582,-9)">
					<title>Sheet.56</title>
					<path d="M0 315.12 L0 324 L9.01 324 L9.01 315.12 L0 315.12 L0 315.12 Z" class="st3"/>
				</g>
				<g id="shape57-102" v:mID="57" v:groupContext="shape" transform="translate(0.00581771,-9)">
					<title>Sheet.57</title>
					<path d="M0 315.12 L0 324 L9.01 324 L9.01 315.12 L0 315.12 L0 315.12 Z" class="st5"/>
				</g>
			</g>
			<g id="group58-104" transform="translate(54.0116,-18)" v:mID="58" v:groupContext="group">
				<v:userDefs>
					<v:ud v:nameU="msvThemeColors" v:val="VT0(36):26"/>
					<v:ud v:nameU="msvThemeEffects" v:val="VT0(16):26"/>
				</v:userDefs>
				<title>Sheet.58</title>
				<g id="shape59-105" v:mID="59" v:groupContext="shape">
					<title>Sheet.59</title>
					<path d="M0 315.12 L0 324 L9.01 324 L9.01 315.12 L0 315.12 L0 315.12 Z" class="st3"/>
				</g>
				<g id="shape60-107" v:mID="60" v:groupContext="shape" transform="translate(9.00582,0)">
					<title>Sheet.60</title>
					<path d="M0 315.12 L0 324 L9.01 324 L9.01 315.12 L0 315.12 L0 315.12 Z" class="st4"/>
				</g>
				<g id="shape61-109" v:mID="61" v:groupContext="shape" transform="translate(9.00582,-9)">
					<title>Sheet.61</title>
					<path d="M0 315.12 L0 324 L9.01 324 L9.01 315.12 L0 315.12 L0 315.12 Z" class="st3"/>
				</g>
				<g id="shape62-111" v:mID="62" v:groupContext="shape" transform="translate(0.00581771,-9)">
					<title>Sheet.62</title>
					<path d="M0 315.12 L0 324 L9.01 324 L9.01 315.12 L0 315.12 L0 315.12 Z" class="st5"/>
				</g>
			</g>
			<g id="group63-113" transform="translate(0.0116354,0)" v:mID="63" v:groupContext="group">
				<v:userDefs>
					<v:ud v:nameU="msvThemeColors" v:val="VT0(36):26"/>
					<v:ud v:nameU="msvThemeEffects" v:val="VT0(16):26"/>
				</v:userDefs>
				<title>Sheet.63</title>
				<g id="shape64-114" v:mID="64" v:groupContext="shape">
					<title>Sheet.64</title>
					<path d="M0 315.12 L0 324 L9.01 324 L9.01 315.12 L0 315.12 L0 315.12 Z" class="st3"/>
				</g>
				<g id="shape65-116" v:mID="65" v:groupContext="shape" transform="translate(9.00582,0)">
					<title>Sheet.65</title>
					<path d="M0 315.12 L0 324 L9.01 324 L9.01 315.12 L0 315.12 L0 315.12 Z" class="st4"/>
				</g>
				<g id="shape66-118" v:mID="66" v:groupContext="shape" transform="translate(9.00582,-9)">
					<title>Sheet.66</title>
					<path d="M0 315.12 L0 324 L9.01 324 L9.01 315.12 L0 315.12 L0 315.12 Z" class="st3"/>
				</g>
				<g id="shape67-120" v:mID="67" v:groupContext="shape" transform="translate(0.00581771,-9)">
					<title>Sheet.67</title>
					<path d="M0 315.12 L0 324 L9.01 324 L9.01 315.12 L0 315.12 L0 315.12 Z" class="st5"/>
				</g>
			</g>
			<g id="group68-122" transform="translate(18,0)" v:mID="68" v:groupContext="group">
				<v:userDefs>
					<v:ud v:nameU="msvThemeColors" v:val="VT0(36):26"/>
					<v:ud v:nameU="msvThemeEffects" v:val="VT0(16):26"/>
				</v:userDefs>
				<title>Sheet.68</title>
				<g id="shape69-123" v:mID="69" v:groupContext="shape">
					<title>Sheet.69</title>
					<path d="M0 315.12 L0 324 L9.01 324 L9.01 315.12 L0 315.12 L0 315.12 Z" class="st3"/>
				</g>
				<g id="shape70-125" v:mID="70" v:groupContext="shape" transform="translate(9.00582,0)">
					<title>Sheet.70</title>
					<path d="M0 315.12 L0 324 L9.01 324 L9.01 315.12 L0 315.12 L0 315.12 Z" class="st4"/>
				</g>
				<g id="shape71-127" v:mID="71" v:groupContext="shape" transform="translate(9.00582,-9)">
					<title>Sheet.71</title>
					<path d="M0 315.12 L0 324 L9.01 324 L9.01 315.12 L0 315.12 L0 315.12 Z" class="st3"/>
				</g>
				<g id="shape72-129" v:mID="72" v:groupContext="shape" transform="translate(0.00581771,-9)">
					<title>Sheet.72</title>
					<path d="M0 315.12 L0 324 L9.01 324 L9.01 315.12 L0 315.12 L0 315.12 Z" class="st5"/>
				</g>
			</g>
			<g id="group73-131" transform="translate(36.0116,0)" v:mID="73" v:groupContext="group">
				<v:userDefs>
					<v:ud v:nameU="msvThemeColors" v:val="VT0(36):26"/>
					<v:ud v:nameU="msvThemeEffects" v:val="VT0(16):26"/>
				</v:userDefs>
				<title>Sheet.73</title>
				<g id="shape74-132" v:mID="74" v:groupContext="shape">
					<title>Sheet.74</title>
					<path d="M0 315.12 L0 324 L9.01 324 L9.01 315.12 L0 315.12 L0 315.12 Z" class="st3"/>
				</g>
				<g id="shape75-134" v:mID="75" v:groupContext="shape" transform="translate(9.00582,0)">
					<title>Sheet.75</title>
					<path d="M0 315.12 L0 324 L9.01 324 L9.01 315.12 L0 315.12 L0 315.12 Z" class="st4"/>
				</g>
				<g id="shape76-136" v:mID="76" v:groupContext="shape" transform="translate(9.00582,-9)">
					<title>Sheet.76</title>
					<path d="M0 315.12 L0 324 L9.01 324 L9.01 315.12 L0 315.12 L0 315.12 Z" class="st3"/>
				</g>
				<g id="shape77-138" v:mID="77" v:groupContext="shape" transform="translate(0.00581771,-9)">
					<title>Sheet.77</title>
					<path d="M0 315.12 L0 324 L9.01 324 L9.01 315.12 L0 315.12 L0 315.12 Z" class="st5"/>
				</g>
			</g>
			<g id="group78-140" transform="translate(54.0116,0)" v:mID="78" v:groupContext="group">
				<v:userDefs>
					<v:ud v:nameU="msvThemeColors" v:val="VT0(36):26"/>
					<v:ud v:nameU="msvThemeEffects" v:val="VT0(16):26"/>
				</v:userDefs>
				<title>Sheet.78</title>
				<g id="shape79-141" v:mID="79" v:groupContext="shape">
					<title>Sheet.79</title>
					<path d="M0 315.12 L0 324 L9.01 324 L9.01 315.12 L0 315.12 L0 315.12 Z" class="st3"/>
				</g>
				<g id="shape80-143" v:mID="80" v:groupContext="shape" transform="translate(9.00582,0)">
					<title>Sheet.80</title>
					<path d="M0 315.12 L0 324 L9.01 324 L9.01 315.12 L0 315.12 L0 315.12 Z" class="st4"/>
				</g>
				<g id="shape81-145" v:mID="81" v:groupContext="shape" transform="translate(9.00582,-9)">
					<title>Sheet.81</title>
					<path d="M0 315.12 L0 324 L9.01 324 L9.01 315.12 L0 315.12 L0 315.12 Z" class="st3"/>
				</g>
				<g id="shape82-147" v:mID="82" v:groupContext="shape" transform="translate(0.00581771,-9)">
					<title>Sheet.82</title>
					<path d="M0 315.12 L0 324 L9.01 324 L9.01 315.12 L0 315.12 L0 315.12 Z" class="st5"/>
				</g>
			</g>
		</g>
		<g id="shape83-149" v:mID="83" v:groupContext="shape" transform="translate(238.75,-144)">
			<title>Sheet.83</title>
			<desc>Y</desc>
			<v:userDefs>
				<v:ud v:nameU="msvThemeColors" v:val="VT0(36):26"/>
				<v:ud v:nameU="msvThemeEffects" v:val="VT0(16):26"/>
			</v:userDefs>
			<v:textBlock v:margins="rect(2,2,2,2)"/>
			<v:textRect cx="9" cy="315" width="18" height="18"/>
			<rect x="0" y="306" width="18" height="18" class="st1"/>
			<text x="6.08" y="318.6" class="st2" v:langID="1033"><v:paragraph v:horizAlign="1"/><v:tabList/>Y</text>		</g>
		<g id="shape84-152" v:mID="84" v:groupContext="shape" transform="translate(585.262,-121.5)">
			<title>Rectangle.178</title>
			<v:userDefs>
				<v:ud v:nameU="visVersion" v:val="VT0(14):26"/>
				<v:ud v:nameU="msvThemeColors" v:val="VT0(36):26"/>
				<v:ud v:nameU="msvThemeEffects" v:val="VT0(16):26"/>
			</v:userDefs>
			<path d="M0 324 L121.5 324 L121.5 193.5 L0 193.5 L0 324 Z" class="st6"/>
		</g>
		<g id="shape85-154" v:mID="85" v:groupContext="shape" transform="translate(598.762,-136.92)">
			<title>Rectangle.179</title>
			<desc>AF_V_1</desc>
			<v:userDefs>
				<v:ud v:nameU="visVersion" v:val="VT0(14):26"/>
				<v:ud v:nameU="msvThemeColors" v:val="VT0(36):26"/>
				<v:ud v:nameU="msvThemeEffects" v:val="VT0(16):26"/>
			</v:userDefs>
			<v:textBlock v:margins="rect(4,4,4,4)" v:tabSpace="42.5197"/>
			<v:textRect cx="24.12" cy="307.92" width="48.24" height="32.16"/>
			<rect x="0" y="291.84" width="48.24" height="32.16" class="st7"/>
			<text x="11.69" y="310.32" class="st8" v:langID="1033"><v:paragraph v:horizAlign="1"/><v:tabList/>AF_V_1</text>		</g>
		<g id="shape86-159" v:mID="86" v:groupContext="shape" transform="translate(598.762,-208.92)">
			<title>Rectangle.180</title>
			<desc>AF_H_1</desc>
			<v:userDefs>
				<v:ud v:nameU="visVersion" v:val="VT0(14):26"/>
				<v:ud v:nameU="msvThemeColors" v:val="VT0(36):26"/>
				<v:ud v:nameU="msvThemeEffects" v:val="VT0(16):26"/>
			</v:userDefs>
			<v:textBlock v:margins="rect(4,4,4,4)" v:tabSpace="42.5197"/>
			<v:textRect cx="24.12" cy="307.92" width="48.24" height="32.16"/>
			<rect x="0" y="291.84" width="48.24" height="32.16" class="st7"/>
			<text x="11.46" y="310.32" class="st8" v:langID="1033"><v:paragraph v:horizAlign="1"/><v:tabList/>AF_H_1</text>		</g>
		<g id="shape87-163" v:mID="87" v:groupContext="shape" transform="translate(648.262,-270)">
			<title>Sheet.87</title>
			<desc>Focus Set 1</desc>
			<v:userDefs>
				<v:ud v:nameU="msvThemeColors" v:val="VT0(36):26"/>
				<v:ud v:nameU="msvThemeEffects" v:val="VT0(16):26"/>
			</v:userDefs>
			<v:textBlock v:margins="rect(2,2,2,2)"/>
			<v:textRect cx="33.75" cy="315" width="67.5" height="18"/>
			<rect x="0" y="306" width="67.5" height="18" class="st1"/>
			<text x="6.29" y="318.6" class="st2" v:langID="1033"><v:paragraph v:horizAlign="1"/><v:tabList/>Focus Set 1</text>		</g>
		<g id="shape88-166" v:mID="88" v:groupContext="shape" transform="translate(651.637,-211.5)">
			<title>Sheet.88</title>
			<desc>FV_H1</desc>
			<v:userDefs>
				<v:ud v:nameU="msvThemeColors" v:val="VT0(36):26"/>
				<v:ud v:nameU="msvThemeEffects" v:val="VT0(16):26"/>
			</v:userDefs>
			<v:textBlock v:margins="rect(2,2,2,2)"/>
			<v:textRect cx="20.8125" cy="315" width="41.63" height="18"/>
			<rect x="0" y="306" width="41.625" height="18" class="st1"/>
			<text x="4.88" y="318.6" class="st2" v:langID="1033"><v:paragraph v:horizAlign="1"/><v:tabList/>FV_H1</text>		</g>
		<g id="shape89-169" v:mID="89" v:groupContext="shape" transform="translate(649.949,-132.429)">
			<title>Sheet.89</title>
			<desc>FV_V1</desc>
			<v:userDefs>
				<v:ud v:nameU="msvThemeColors" v:val="VT0(36):26"/>
				<v:ud v:nameU="msvThemeEffects" v:val="VT0(16):26"/>
			</v:userDefs>
			<v:textBlock v:margins="rect(2,2,2,2)"/>
			<v:textRect cx="20.8125" cy="315" width="41.63" height="18"/>
			<rect x="0" y="306" width="41.625" height="18" class="st1"/>
			<text x="5.22" y="318.6" class="st2" v:langID="1033"><v:paragraph v:horizAlign="1"/><v:tabList/>FV_V1</text>		</g>
		<g id="shape90-172" v:mID="90" v:groupContext="shape" v:layerMember="0" transform="translate(647.002,-222.75)">
			<title>Dynamic connector.194</title>
			<v:userDefs>
				<v:ud v:nameU="msvThemeColors" v:val="VT0(36):26"/>
				<v:ud v:nameU="msvThemeEffects" v:val="VT0(16):26"/>
			</v:userDefs>
			<path d="M0 315 L44.28 315" class="st9"/>
		</g>
		<g id="shape91-179" v:mID="91" v:groupContext="shape" v:layerMember="0" transform="translate(647.002,-144)">
			<title>Dynamic connector.195</title>
			<v:userDefs>
				<v:ud v:nameU="msvThemeColors" v:val="VT0(36):26"/>
				<v:ud v:nameU="msvThemeEffects" v:val="VT0(16):26"/>
			</v:userDefs>
			<path d="M0 315 L44.6 315" class="st9"/>
		</g>
		<g id="shape92-185" v:mID="92" v:groupContext="shape" transform="translate(436.762,-103.5)">
			<title>Rectangle.199</title>
			<v:userDefs>
				<v:ud v:nameU="visVersion" v:val="VT0(14):26"/>
				<v:ud v:nameU="msvThemeColors" v:val="VT0(36):26"/>
				<v:ud v:nameU="msvThemeEffects" v:val="VT0(16):26"/>
			</v:userDefs>
			<path d="M0 324 L279 324 L279 157.5 L0 157.5 L0 324 Z" class="st11"/>
		</g>
		<g id="shape93-187" v:mID="93" v:groupContext="shape" transform="translate(157.75,-144)">
			<title>Rectangle.89</title>
			<desc>Y = a0*R+a1*{Gr/Gb}+a2*B</desc>
			<v:userDefs>
				<v:ud v:nameU="visVersion" v:val="VT0(14):26"/>
				<v:ud v:nameU="msvThemeColors" v:val="VT0(36):26"/>
				<v:ud v:nameU="msvThemeEffects" v:val="VT0(16):26"/>
			</v:userDefs>
			<v:textBlock v:margins="rect(4,4,4,4)" v:tabSpace="42.5197"/>
			<v:textRect cx="49.5" cy="306" width="99" height="36"/>
			<rect x="0" y="288" width="99" height="36" class="st7"/>
			<text x="5.01" y="308.4" class="st8" v:langID="1033"><v:paragraph v:horizAlign="1"/><v:tabList/>Y = a0*R+a1*{Gr/Gb}+a2*B</text>		</g>
		<g id="shape94-191" v:mID="94" v:groupContext="shape" v:layerMember="0" transform="translate(256.75,-153)">
			<title>Dynamic connector.95</title>
			<v:userDefs>
				<v:ud v:nameU="msvThemeColors" v:val="VT0(36):26"/>
				<v:ud v:nameU="msvThemeEffects" v:val="VT0(16):26"/>
			</v:userDefs>
			<path d="M0 315 L20.84 315" class="st12"/>
		</g>
		<g id="shape95-197" v:mID="95" v:groupContext="shape" transform="translate(-134.341,-49.1026) rotate(-45)">
			<title>Sheet.95</title>
			<v:userDefs>
				<v:ud v:nameU="msvThemeColors" v:val="VT0(36):26"/>
				<v:ud v:nameU="msvThemeEffects" v:val="VT0(16):26"/>
			</v:userDefs>
			<g id="shadow95-198" v:groupContext="shadow" v:shadowOffsetX="1.44" v:shadowOffsetY="-1.44" v:shadowType="1"
					transform="matrix(1,1.01373E-017,1.01373E-017,1,2.13163E-014,2.03647)" class="st13">
				<path d="M0 324 L12.73 324" class="st14"/>
			</g>
			<path d="M0 324 L12.73 324" class="st15"/>
		</g>
		<g id="shape96-204" v:mID="96" v:groupContext="shape" transform="translate(90.2616,-131.625)">
			<title>Sheet.96</title>
			<desc>(8+e)u</desc>
			<v:userDefs>
				<v:ud v:nameU="msvThemeColors" v:val="VT0(36):26"/>
				<v:ud v:nameU="msvThemeEffects" v:val="VT0(16):26"/>
			</v:userDefs>
			<v:textBlock v:margins="rect(2,2,2,2)"/>
			<v:textRect cx="15.75" cy="319.5" width="31.5" height="9"/>
			<rect x="0" y="315" width="31.5" height="9" class="st1"/>
			<text x="5.21" y="321.9" class="st16" v:langID="1033"><v:paragraph v:horizAlign="1"/><v:tabList/>(8+e)u</text>		</g>
		<g id="shape97-207" v:mID="97" v:groupContext="shape" transform="translate(77.159,-76.1026) rotate(-45)">
			<title>Sheet.97</title>
			<v:userDefs>
				<v:ud v:nameU="msvThemeColors" v:val="VT0(36):26"/>
				<v:ud v:nameU="msvThemeEffects" v:val="VT0(16):26"/>
			</v:userDefs>
			<g id="shadow97-208" v:groupContext="shadow" v:shadowOffsetX="1.44" v:shadowOffsetY="-1.44" v:shadowType="1"
					transform="matrix(1,1.01373E-017,1.01373E-017,1,-2.84217E-014,2.03647)" class="st13">
				<path d="M0 324 L12.73 324" class="st14"/>
			</g>
			<path d="M0 324 L12.73 324" class="st15"/>
		</g>
		<g id="shape98-214" v:mID="98" v:groupContext="shape" transform="translate(414.262,-182.58)">
			<title>Sheet.98</title>
			<desc>(8+e)u</desc>
			<v:userDefs>
				<v:ud v:nameU="msvThemeColors" v:val="VT0(36):26"/>
				<v:ud v:nameU="msvThemeEffects" v:val="VT0(16):26"/>
			</v:userDefs>
			<v:textBlock v:margins="rect(2,2,2,2)"/>
			<v:textRect cx="15.75" cy="319.5" width="31.5" height="9"/>
			<rect x="0" y="315" width="31.5" height="9" class="st1"/>
			<text x="5.21" y="321.9" class="st16" v:langID="1033"><v:paragraph v:horizAlign="1"/><v:tabList/>(8+e)u</text>		</g>
		<g id="shape99-217" v:mID="99" v:groupContext="shape" v:layerMember="1" transform="translate(247.762,162) rotate(-90)">
			<title>Manual operation.12</title>
			<desc>0 1</desc>
			<v:custProps>
				<v:cp v:nameU="Cost" v:lbl="Cost" v:type="7" v:format="@" v:langID="1033"/>
				<v:cp v:nameU="Duration" v:lbl="Duration" v:type="2" v:langID="1033"/>
				<v:cp v:nameU="Resources" v:lbl="Resources" v:langID="1033"/>
			</v:custProps>
			<v:userDefs>
				<v:ud v:nameU="AntiScale" v:val="VT0(1):26"/>
				<v:ud v:nameU="visVersion" v:val="VT0(12):26"/>
				<v:ud v:nameU="msvThemeColors" v:val="VT0(36):26"/>
				<v:ud v:nameU="msvThemeEffects" v:val="VT0(16):26"/>
			</v:userDefs>
			<v:textBlock v:margins="rect(2,2,2,2)"/>
			<v:textRect cx="27" cy="317.25" width="27" height="13.5" transform="rotate(90)"/>
			<path d="M13.5 324 L40.5 324 L54 310.5 L0 310.5 L13.5 324 Z" class="st17"/>
			<text x="315.22" y="-34.2" transform="rotate(90)" class="st8" v:langID="1033"><v:paragraph v:horizAlign="1"/><v:tabList/>0<v:newlineChar/><v:newlineChar/><tspan
						x="315.22" dy="2.4em" class="st18">1</tspan></text>		</g>
		<g id="shape100-221" v:mID="100" v:groupContext="shape" transform="translate(480.142,-159.42)">
			<title>Rectangle.130</title>
			<desc>Hor. M/N Downscaler</desc>
			<v:userDefs>
				<v:ud v:nameU="visVersion" v:val="VT0(14):26"/>
				<v:ud v:nameU="msvThemeColors" v:val="VT0(36):26"/>
				<v:ud v:nameU="msvThemeEffects" v:val="VT0(16):26"/>
			</v:userDefs>
			<v:textBlock v:margins="rect(4,4,4,4)" v:tabSpace="42.5197"/>
			<v:textRect cx="24.12" cy="307.92" width="48.24" height="32.16"/>
			<rect x="0" y="291.84" width="48.24" height="32.16" class="st7"/>
			<text x="8.66" y="305.52" class="st8" v:langID="1033"><v:paragraph v:horizAlign="1"/><v:tabList/>Hor. M/N <tspan
						x="5.11" dy="1.2em" class="st18">Downscaler</tspan></text>		</g>
		<g id="shape101-226" v:mID="101" v:groupContext="shape" v:layerMember="0" transform="translate(297.25,-184.5)">
			<title>Dynamic connector.131</title>
			<v:userDefs>
				<v:ud v:nameU="msvThemeColors" v:val="VT0(36):26"/>
				<v:ud v:nameU="msvThemeEffects" v:val="VT0(16):26"/>
			</v:userDefs>
			<path d="M0 333 L25.35 333" class="st9"/>
		</g>
		<g id="shape102-232" v:mID="102" v:groupContext="shape" v:layerMember="0" transform="translate(571.762,-189)">
			<title>Dynamic connector.132</title>
			<v:userDefs>
				<v:ud v:nameU="msvThemeColors" v:val="VT0(36):26"/>
				<v:ud v:nameU="msvThemeEffects" v:val="VT0(16):26"/>
			</v:userDefs>
			<path d="M0 324 L9 324 L9 288 L20.84 288" class="st9"/>
		</g>
		<g id="shape103-238" v:mID="103" v:groupContext="shape" v:layerMember="0" transform="translate(528.382,-166.5)">
			<title>Dynamic connector.135</title>
			<v:userDefs>
				<v:ud v:nameU="msvThemeColors" v:val="VT0(36):26"/>
				<v:ud v:nameU="msvThemeEffects" v:val="VT0(16):26"/>
			</v:userDefs>
			<path d="M0 315 L23.72 315" class="st9"/>
		</g>
		<g id="shape104-244" v:mID="104" v:groupContext="shape" v:layerMember="0" transform="translate(90.2616,-152.884)">
			<title>Dynamic connector.174</title>
			<desc>B</desc>
			<v:userDefs>
				<v:ud v:nameU="msvThemeColors" v:val="VT0(36):26"/>
				<v:ud v:nameU="msvThemeEffects" v:val="VT0(16):26"/>
			</v:userDefs>
			<v:textBlock v:margins="rect(4,4,4,4)"/>
			<v:textRect cx="33.7442" cy="315" width="40" height="17.6036"/>
			<path d="M0 315 L61.33 315" class="st12"/>
			<rect v:rectContext="textBkgnd" x="30.6642" y="310.2" width="6.16003" height="9.59985" class="st19"/>
			<text x="32.47" y="317.4" class="st8" v:langID="1033"><v:paragraph v:horizAlign="1"/><v:tabList/>B  </text>		</g>
		<g id="shape105-252" v:mID="105" v:groupContext="shape" v:layerMember="1" transform="translate(-26.75,175.5) rotate(-90)">
			<title>Manual operation.97</title>
			<desc>0 1</desc>
			<v:custProps>
				<v:cp v:nameU="Cost" v:lbl="Cost" v:type="7" v:format="@" v:langID="1033"/>
				<v:cp v:nameU="Duration" v:lbl="Duration" v:type="2" v:langID="1033"/>
				<v:cp v:nameU="Resources" v:lbl="Resources" v:langID="1033"/>
			</v:custProps>
			<v:userDefs>
				<v:ud v:nameU="AntiScale" v:val="VT0(1):26"/>
				<v:ud v:nameU="visVersion" v:val="VT0(12):26"/>
				<v:ud v:nameU="msvThemeColors" v:val="VT0(36):26"/>
				<v:ud v:nameU="msvThemeEffects" v:val="VT0(16):26"/>
			</v:userDefs>
			<v:textBlock v:margins="rect(2,2,2,2)"/>
			<v:textRect cx="27" cy="317.25" width="27" height="13.5" transform="rotate(90)"/>
			<path d="M13.5 324 L40.5 324 L54 310.5 L0 310.5 L13.5 324 Z" class="st17"/>
			<text x="315.22" y="-34.2" transform="rotate(90)" class="st8" v:langID="1033"><v:paragraph v:horizAlign="1"/><v:tabList/>0<v:newlineChar/><v:newlineChar/><tspan
						x="315.22" dy="2.4em" class="st18">1</tspan></text>		</g>
		<g id="shape106-256" v:mID="106" v:groupContext="shape" v:layerMember="0" transform="translate(281.5,-234)">
			<title>Dynamic connector.137</title>
			<v:userDefs>
				<v:ud v:nameU="msvThemeColors" v:val="VT0(36):26"/>
				<v:ud v:nameU="msvThemeEffects" v:val="VT0(16):26"/>
			</v:userDefs>
			<path d="M9 324 L9 356.09" class="st12"/>
		</g>
		<g id="shape107-262" v:mID="107" v:groupContext="shape" transform="translate(268,-235.08)">
			<title>Sheet.107</title>
			<desc>baf_ch_sel</desc>
			<v:userDefs>
				<v:ud v:nameU="msvThemeColors" v:val="VT0(36):26"/>
				<v:ud v:nameU="msvThemeEffects" v:val="VT0(16):26"/>
			</v:userDefs>
			<v:textBlock v:margins="rect(2,2,2,2)"/>
			<v:textRect cx="21.375" cy="318" width="42.75" height="12"/>
			<rect x="0" y="312" width="42.75" height="12" class="st20"/>
			<text x="3.89" y="320.4" class="st8" v:langID="1033"><v:paragraph v:horizAlign="1"/><v:tabList/>baf_ch_sel</text>		</g>
		<g id="shape108-265" v:mID="108" v:groupContext="shape" v:layerMember="0" transform="translate(504.262,-144)">
			<title>Dynamic connector.141</title>
			<v:userDefs>
				<v:ud v:nameU="msvThemeColors" v:val="VT0(36):26"/>
				<v:ud v:nameU="msvThemeEffects" v:val="VT0(16):26"/>
			</v:userDefs>
			<path d="M0 324 L60.75 324 L60.75 305.41" class="st12"/>
		</g>
		<g id="shape109-271" v:mID="109" v:groupContext="shape" v:layerMember="0" transform="translate(198.25,-115.5)">
			<title>Dynamic connector.110</title>
			<v:userDefs>
				<v:ud v:nameU="msvThemeColors" v:val="VT0(36):26"/>
				<v:ud v:nameU="msvThemeEffects" v:val="VT0(16):26"/>
			</v:userDefs>
			<path d="M9 324 L9 301.66" class="st12"/>
		</g>
		<g id="shape110-277" v:mID="110" v:groupContext="shape" transform="translate(189.25,-103.5)">
			<title>Sheet.110</title>
			<desc>a0, a1, a2</desc>
			<v:userDefs>
				<v:ud v:nameU="msvThemeColors" v:val="VT0(36):26"/>
				<v:ud v:nameU="msvThemeEffects" v:val="VT0(16):26"/>
			</v:userDefs>
			<v:textBlock v:margins="rect(2,2,2,2)"/>
			<v:textRect cx="18" cy="318" width="36" height="12"/>
			<rect x="0" y="312" width="36" height="12" class="st20"/>
			<text x="2.36" y="320.4" class="st8" v:langID="1033"><v:paragraph v:horizAlign="1"/><v:tabList/>a0, a1, a2</text>		</g>
		<g id="shape111-280" v:mID="111" v:groupContext="shape" transform="translate(328.762,-157.5)">
			<title>Rectangle.98</title>
			<desc>LUT[32]</desc>
			<v:userDefs>
				<v:ud v:nameU="visVersion" v:val="VT0(14):26"/>
				<v:ud v:nameU="msvThemeColors" v:val="VT0(36):26"/>
				<v:ud v:nameU="msvThemeEffects" v:val="VT0(16):26"/>
			</v:userDefs>
			<v:textBlock v:margins="rect(4,4,4,4)" v:tabSpace="42.5197"/>
			<v:textRect cx="40.5" cy="306" width="81" height="36"/>
			<rect x="0" y="288" width="81" height="36" class="st7"/>
			<text x="27.79" y="308.4" class="st8" v:langID="1033"><v:paragraph v:horizAlign="1"/><v:tabList/>LUT[32]</text>		</g>
		<g id="shape112-284" v:mID="112" v:groupContext="shape" v:layerMember="0" transform="translate(90.2733,-139.5)">
			<title>Dynamic connector.83</title>
			<desc>R</desc>
			<v:userDefs>
				<v:ud v:nameU="msvThemeColors" v:val="VT0(36):26"/>
				<v:ud v:nameU="msvThemeEffects" v:val="VT0(16):26"/>
			</v:userDefs>
			<v:textBlock v:margins="rect(4,4,4,4)"/>
			<v:textRect cx="33.7384" cy="315" width="40" height="17.6036"/>
			<path d="M0 315 L61.32 315" class="st12"/>
			<rect v:rectContext="textBkgnd" x="30.6623" y="310.2" width="6.15234" height="9.59985" class="st19"/>
			<text x="32.47" y="317.4" class="st8" v:langID="1033"><v:paragraph v:horizAlign="1"/><v:tabList/>R</text>		</g>
		<g id="shape113-292" v:mID="113" v:groupContext="shape" v:layerMember="0" transform="translate(108.262,-173.25)">
			<title>Dynamic connector.84</title>
			<desc>Gr/Gb</desc>
			<v:userDefs>
				<v:ud v:nameU="msvThemeColors" v:val="VT0(36):26"/>
				<v:ud v:nameU="msvThemeEffects" v:val="VT0(16):26"/>
			</v:userDefs>
			<v:textBlock v:margins="rect(4,4,4,4)"/>
			<v:textRect cx="80.9942" cy="308.25" width="40" height="17.6036"/>
			<path d="M0 321.75 L0 308.25 L169.33 308.25" class="st12"/>
			<rect v:rectContext="textBkgnd" x="70.9063" y="303.45" width="20.1758" height="9.59985" class="st19"/>
			<text x="70.91" y="310.65" class="st8" v:langID="1033"><v:paragraph v:horizAlign="1"/><v:tabList/>Gr/Gb</text>		</g>
		<g id="shape114-300" v:mID="114" v:groupContext="shape" v:layerMember="0" transform="translate(90.2733,-166.5)">
			<title>Dynamic connector.85</title>
			<desc>Gr/Gb</desc>
			<v:userDefs>
				<v:ud v:nameU="msvThemeColors" v:val="VT0(36):26"/>
				<v:ud v:nameU="msvThemeEffects" v:val="VT0(16):26"/>
			</v:userDefs>
			<v:textBlock v:margins="rect(4,4,4,4)"/>
			<v:textRect cx="33.7384" cy="315" width="40" height="17.6036"/>
			<path d="M0 315 L61.32 315" class="st12"/>
			<rect v:rectContext="textBkgnd" x="22.7461" y="310.2" width="21.9845" height="9.59985" class="st19"/>
			<text x="24.55" y="317.4" class="st8" v:langID="1033"><v:paragraph v:horizAlign="1"/><v:tabList/>Gr/Gb  </text>		</g>
		<g id="shape115-308" v:mID="115" v:groupContext="shape" transform="translate(-134.341,-60.3526) rotate(-45)">
			<title>Sheet.115</title>
			<v:userDefs>
				<v:ud v:nameU="msvThemeColors" v:val="VT0(36):26"/>
				<v:ud v:nameU="msvThemeEffects" v:val="VT0(16):26"/>
			</v:userDefs>
			<g id="shadow115-309" v:groupContext="shadow" v:shadowOffsetX="1.44" v:shadowOffsetY="-1.44" v:shadowType="1"
					transform="matrix(1,1.01373E-017,1.01373E-017,1,2.13163E-014,2.03647)" class="st13">
				<path d="M0 324 L12.73 324" class="st14"/>
			</g>
			<path d="M0 324 L12.73 324" class="st15"/>
		</g>
		<g id="shape116-315" v:mID="116" v:groupContext="shape" transform="translate(-134.341,-78.3526) rotate(-45)">
			<title>Sheet.116</title>
			<v:userDefs>
				<v:ud v:nameU="msvThemeColors" v:val="VT0(36):26"/>
				<v:ud v:nameU="msvThemeEffects" v:val="VT0(16):26"/>
			</v:userDefs>
			<g id="shadow116-316" v:groupContext="shadow" v:shadowOffsetX="1.44" v:shadowOffsetY="-1.44" v:shadowType="1"
					transform="matrix(1,1.01373E-017,1.01373E-017,1,2.13163E-014,2.03647)" class="st13">
				<path d="M0 324 L12.73 324" class="st14"/>
			</g>
			<path d="M0 324 L12.73 324" class="st15"/>
		</g>
		<g id="shape117-322" v:mID="117" v:groupContext="shape" v:layerMember="0" transform="translate(409.762,-166.5)">
			<title>Dynamic connector.133</title>
			<v:userDefs>
				<v:ud v:nameU="msvThemeColors" v:val="VT0(36):26"/>
				<v:ud v:nameU="msvThemeEffects" v:val="VT0(16):26"/>
			</v:userDefs>
			<path d="M0 315 L64.22 315" class="st9"/>
		</g>
		<g id="shape118-328" v:mID="118" v:groupContext="shape" transform="translate(194.159,-76.1026) rotate(-45)">
			<title>Sheet.118</title>
			<v:userDefs>
				<v:ud v:nameU="msvThemeColors" v:val="VT0(36):26"/>
				<v:ud v:nameU="msvThemeEffects" v:val="VT0(16):26"/>
			</v:userDefs>
			<g id="shadow118-329" v:groupContext="shadow" v:shadowOffsetX="1.44" v:shadowOffsetY="-1.44" v:shadowType="1"
					transform="matrix(1,1.01373E-017,1.01373E-017,1,0,2.03647)" class="st13">
				<path d="M0 324 L12.73 324" class="st14"/>
			</g>
			<path d="M0 324 L12.73 324" class="st15"/>
		</g>
		<g id="shape119-335" v:mID="119" v:groupContext="shape" transform="translate(299.512,-184.5)">
			<title>Sheet.119</title>
			<desc>(8+e)u</desc>
			<v:userDefs>
				<v:ud v:nameU="msvThemeColors" v:val="VT0(36):26"/>
				<v:ud v:nameU="msvThemeEffects" v:val="VT0(16):26"/>
			</v:userDefs>
			<v:textBlock v:margins="rect(2,2,2,2)"/>
			<v:textRect cx="15.75" cy="319.5" width="31.5" height="9"/>
			<rect x="0" y="315" width="31.5" height="9" class="st1"/>
			<text x="5.21" y="321.9" class="st16" v:langID="1033"><v:paragraph v:horizAlign="1"/><v:tabList/>(8+e)u</text>		</g>
		<g id="shape120-338" v:mID="120" v:groupContext="shape" transform="translate(337.618,-124.08)">
			<title>Sheet.120</title>
			<desc>baf_LUT_enable</desc>
			<v:userDefs>
				<v:ud v:nameU="msvThemeColors" v:val="VT0(36):26"/>
				<v:ud v:nameU="msvThemeEffects" v:val="VT0(16):26"/>
			</v:userDefs>
			<v:textBlock v:margins="rect(4,4,4,4)"/>
			<v:textRect cx="31.6435" cy="318.54" width="63.29" height="10.92"/>
			<rect x="0" y="313.08" width="63.2871" height="10.92" class="st20"/>
			<text x="5.21" y="320.94" class="st8" v:langID="1033"><v:paragraph v:horizAlign="1"/><v:tabList/>baf_LUT_enable</text>		</g>
		<g id="shape121-341" v:mID="121" v:groupContext="shape" transform="translate(472.762,-124.08)">
			<title>Sheet.121</title>
			<desc>baf_h_scaler_en</desc>
			<v:userDefs>
				<v:ud v:nameU="msvThemeColors" v:val="VT0(36):26"/>
				<v:ud v:nameU="msvThemeEffects" v:val="VT0(16):26"/>
			</v:userDefs>
			<v:textBlock v:margins="rect(4,4,4,4)"/>
			<v:textRect cx="31.5" cy="318.54" width="63" height="10.92"/>
			<rect x="0" y="313.08" width="63" height="10.92" class="st20"/>
			<text x="4.62" y="320.94" class="st8" v:langID="1033"><v:paragraph v:horizAlign="1"/><v:tabList/>baf_h_scaler_en</text>		</g>
		<g id="shape122-344" v:mID="122" v:groupContext="shape" v:layerMember="0" transform="translate(409.762,-175.5)">
			<title>Dynamic connector.87</title>
			<v:userDefs>
				<v:ud v:nameU="msvThemeColors" v:val="VT0(36):26"/>
				<v:ud v:nameU="msvThemeEffects" v:val="VT0(16):26"/>
			</v:userDefs>
			<path d="M0 324 L40.5 324 L40.5 297 L142.34 297" class="st9"/>
		</g>
		<g id="shape123-350" v:mID="123" v:groupContext="shape" v:layerMember="0" transform="translate(495.262,-136.125)">
			<title>Dynamic connector.88</title>
			<v:userDefs>
				<v:ud v:nameU="msvThemeColors" v:val="VT0(36):26"/>
				<v:ud v:nameU="msvThemeEffects" v:val="VT0(16):26"/>
			</v:userDefs>
			<path d="M9 324 L9 306.86" class="st12"/>
		</g>
		<g id="shape124-356" v:mID="124" v:groupContext="shape" v:layerMember="0" transform="translate(571.762,-189)">
			<title>Dynamic connector.89</title>
			<v:userDefs>
				<v:ud v:nameU="msvThemeColors" v:val="VT0(36):26"/>
				<v:ud v:nameU="msvThemeEffects" v:val="VT0(16):26"/>
			</v:userDefs>
			<path d="M0 324 L9 324 L9 360 L20.84 360" class="st9"/>
		</g>
		<g id="shape125-362" v:mID="125" v:groupContext="shape" v:layerMember="0" transform="translate(360.262,-135)">
			<title>Dynamic connector.90</title>
			<v:userDefs>
				<v:ud v:nameU="msvThemeColors" v:val="VT0(36):26"/>
				<v:ud v:nameU="msvThemeEffects" v:val="VT0(16):26"/>
			</v:userDefs>
			<path d="M9 324 L9 307.66" class="st12"/>
		</g>
		<g id="shape129-368" v:mID="129" v:groupContext="shape" transform="translate(598.762,-195)">
			<title>Sheet.129</title>
			<desc>13 tap FIR + 4th order IIR</desc>
			<v:userDefs>
				<v:ud v:nameU="msvThemeColors" v:val="VT0(36):26"/>
				<v:ud v:nameU="msvThemeEffects" v:val="VT0(16):26"/>
			</v:userDefs>
			<v:textBlock v:margins="rect(2,2,2,2)"/>
			<v:textRect cx="44.4375" cy="318" width="88.88" height="12"/>
			<rect x="0" y="312" width="88.875" height="12" class="st21"/>
			<text x="5.15" y="320.4" class="st8" v:langID="1033"><v:paragraph v:horizAlign="1"/><v:tabList/>13 tap FIR + 4<tspan
						dy="-0.234em" class="st22" v:baseFontSize="8">th</tspan><tspan dy="0.152em" class="st18"> </tspan>order IIR</text>		</g>
		<g id="shape130-373" v:mID="130" v:groupContext="shape" transform="translate(599.887,-123)">
			<title>Sheet.130</title>
			<desc>No FIR + 4th order IIR</desc>
			<v:userDefs>
				<v:ud v:nameU="msvThemeColors" v:val="VT0(36):26"/>
				<v:ud v:nameU="msvThemeEffects" v:val="VT0(16):26"/>
			</v:userDefs>
			<v:textBlock v:margins="rect(2,2,2,2)"/>
			<v:textRect cx="44.4375" cy="318" width="88.88" height="12"/>
			<rect x="0" y="312" width="88.875" height="12" class="st21"/>
			<text x="10.77" y="320.4" class="st8" v:langID="1033"><v:paragraph v:horizAlign="1"/><v:tabList/>No FIR + 4<tspan
						dy="-0.234em" class="st22" v:baseFontSize="8">th</tspan><tspan dy="0.152em" class="st18"> </tspan>order IIR</text>		</g>
	</g>
</svg>
