<?xml version="1.0" encoding="UTF-8" standalone="no"?>
<!DOCTYPE svg PUBLIC "-//W3C//DTD SVG 1.0//EN" "http://www.w3.org/TR/2001/REC-SVG-20010904/DTD/svg10.dtd">
<!-- Generated by Microsoft Visio 11.0, SVG Export, v1.0 af_cafscan_pdaf.svg Page-1 -->
<svg xmlns="http://www.w3.org/2000/svg" xmlns:xlink="http://www.w3.org/1999/xlink" xmlns:ev="http://www.w3.org/2001/xml-events"
		xmlns:v="http://schemas.microsoft.com/visio/2003/SVGExtensions/" width="12.2057in" height="5.54051in"
		viewBox="0 0 878.81 398.917" xml:space="preserve" color-interpolation-filters="sRGB" class="st20">
	<v:documentProperties v:langID="1033" v:viewMarkup="false">
		<v:userDefs>
			<v:ud v:nameU="msvNoAutoConnect" v:val="VT0(1):26"/>
		</v:userDefs>
	</v:documentProperties>

	<style type="text/css">
	<![CDATA[
		.st1 {fill:#e5e6e6;stroke:#000000;stroke-linecap:round;stroke-linejoin:round;stroke-width:0.24}
		.st2 {marker-start:url(#mrkr13-8);stroke:#000000;stroke-linecap:round;stroke-linejoin:round;stroke-width:1.5}
		.st3 {fill:#000000;fill-opacity:1;stroke:#000000;stroke-opacity:1;stroke-width:0.37313432835821}
		.st4 {stroke:#91278f;stroke-linecap:round;stroke-linejoin:round;stroke-width:1.5}
		.st5 {fill:none;stroke:none;stroke-linecap:round;stroke-linejoin:round;stroke-width:0.75}
		.st6 {fill:#000000;font-family:Calibri;font-size:1.00001em;font-weight:bold}
		.st7 {fill:#000000;font-family:Calibri;font-size:0.916672em;font-weight:bold}
		.st8 {fill:#000000;font-family:Calibri;font-size:0.916672em}
		.st9 {stroke:#c86f07;stroke-linecap:round;stroke-linejoin:round;stroke-width:1.5}
		.st10 {font-size:1em}
		.st11 {fill:#14578d;font-family:Arial;font-size:0.916672em}
		.st12 {font-size:1em;font-weight:bold}
		.st13 {stroke:#c86f07;stroke-dasharray:1.5,3;stroke-linecap:round;stroke-linejoin:round;stroke-width:1.5}
		.st14 {stroke:#007da8;stroke-linecap:round;stroke-linejoin:round;stroke-width:0.5}
		.st15 {marker-start:url(#mrkr13-58);stroke:#007da8;stroke-linecap:round;stroke-linejoin:round;stroke-width:0.5}
		.st16 {fill:#007da8;fill-opacity:1;stroke:#007da8;stroke-opacity:1;stroke-width:0.25773195876289}
		.st17 {marker-start:url(#mrkr13-72);stroke:#007da8;stroke-linecap:round;stroke-linejoin:round;stroke-width:0.5}
		.st18 {stroke:#000000;stroke-linecap:round;stroke-linejoin:round;stroke-width:1.5}
		.st19 {stroke:#bfbfbf;stroke-dasharray:0.5,1;stroke-linecap:round;stroke-linejoin:round;stroke-width:0.5}
		.st20 {fill:none;fill-rule:evenodd;font-size:12px;overflow:visible;stroke-linecap:square;stroke-miterlimit:3}
	]]>
	</style>

	<defs id="Markers">
		<g id="lend13">
			<path d="M 3 1 L 0 0 L 3 -1 L 3 1 " style="stroke:none"/>
		</g>
		<marker id="mrkr13-8" class="st3" v:arrowType="13" v:arrowSize="2" v:setback="7.8" refX="7.8" orient="auto"
				markerUnits="strokeWidth" overflow="visible">
			<use xlink:href="#lend13" transform="scale(2.68) "/>
		</marker>
		<marker id="mrkr13-58" class="st16" v:arrowType="13" v:arrowSize="0" v:setback="0" refX="0" orient="auto"
				markerUnits="strokeWidth" overflow="visible">
			<use xlink:href="#lend13" transform="scale(3.88) "/>
		</marker>
		<marker id="mrkr13-72" class="st16" v:arrowType="13" v:arrowSize="0" v:setback="10.92" refX="10.92" orient="auto"
				markerUnits="strokeWidth" overflow="visible">
			<use xlink:href="#lend13" transform="scale(3.88) "/>
		</marker>
	</defs>
	<g v:mID="0" v:index="1" v:groupContext="foregroundPage">
		<title>Page-1</title>
		<v:pageProperties v:drawingScale="1" v:pageScale="1" v:drawingUnits="19" v:shadowOffsetX="9" v:shadowOffsetY="-9"/>
		<v:layer v:name="Connector" v:index="0"/>
		<g id="shape1-1" v:mID="1" v:groupContext="shape" transform="translate(668.81,-319.114)">
			<title>Rectangle.101</title>
			<v:userDefs>
				<v:ud v:nameU="visVersion" v:val="VT0(14):26"/>
				<v:ud v:nameU="msvThemeColors" v:val="VT0(254):26"/>
			</v:userDefs>
			<rect x="0" y="347.167" width="171" height="51.75" class="st1"/>
		</g>
		<g id="shape2-3" v:mID="2" v:groupContext="shape" v:layerMember="0"
				transform="translate(-360.917,100.866) rotate(-90) scale(-1,1)">
			<title>Line-curve connector.102</title>
			<v:userDefs>
				<v:ud v:nameU="AntiScale" v:val="VT0(1):26"/>
				<v:ud v:nameU="Scale" v:val="VT0(1):26"/>
				<v:ud v:nameU="visVersion" v:val="VT0(14):26"/>
				<v:ud v:nameU="msvThemeColors" v:val="VT0(254):26"/>
			</v:userDefs>
			<path d="M11.7 398.92 L12.06 398.92 L264.75 398.92 L264.75 398.92" class="st2"/>
		</g>
		<g id="shape3-9" v:mID="3" v:groupContext="shape" v:layerMember="0" transform="translate(326,-80.8007) scale(-1,1)">
			<title>Line-curve connector.2</title>
			<v:userDefs>
				<v:ud v:nameU="AntiScale" v:val="VT0(1):26"/>
				<v:ud v:nameU="Scale" v:val="VT0(1):26"/>
				<v:ud v:nameU="visVersion" v:val="VT0(14):26"/>
				<v:ud v:nameU="msvThemeColors" v:val="VT0(254):26"/>
			</v:userDefs>
			<path d="M11.7 398.92 L12.06 398.92 L288 398.92 L288 398.92" class="st2"/>
		</g>
		<g id="shape4-14" v:mID="4" v:groupContext="shape" transform="translate(47,-89.8007)">
			<title>Sheet.4</title>
			<v:userDefs>
				<v:ud v:nameU="msvThemeColors" v:val="VT0(254):26"/>
			</v:userDefs>
			<path d="M0 398.92 C46.05 326.79 68.07 240.95 96.4 209.77 C106.24 198.93 116.85 194.69 128.43 215.83 C148.29 252.12 171
						 363.17 240.5 398.92" class="st4"/>
		</g>
		<g id="shape5-17" v:mID="5" v:groupContext="shape" transform="translate(-360.917,318.116) rotate(-90)">
			<title>Sheet.5</title>
			<desc>Focus Value</desc>
			<v:userDefs>
				<v:ud v:nameU="msvThemeColors" v:val="VT0(254):26"/>
			</v:userDefs>
			<v:textBlock v:margins="rect(4,4,4,4)"/>
			<v:textRect cx="70.875" cy="390.917" width="141.75" height="16"/>
			<rect x="0" y="382.917" width="141.75" height="16" class="st5"/>
			<text x="41.19" y="394.52" class="st6" v:langID="1033"><v:paragraph v:horizAlign="1"/><v:tabList/>Focus Value</text>		</g>
		<g id="shape6-20" v:mID="6" v:groupContext="shape" transform="translate(211,-64.8007)">
			<title>Sheet.6</title>
			<desc>Lens Position</desc>
			<v:userDefs>
				<v:ud v:nameU="msvThemeColors" v:val="VT0(254):26"/>
			</v:userDefs>
			<v:textBlock v:margins="rect(4,4,4,4)"/>
			<v:textRect cx="50.75" cy="390.917" width="101.51" height="16"/>
			<rect x="0" y="382.917" width="101.5" height="16" class="st5"/>
			<text x="17.94" y="394.52" class="st6" v:langID="1033"><v:paragraph v:horizAlign="1"/><v:tabList/>Lens Position</text>		</g>
		<g id="shape7-23" v:mID="7" v:groupContext="shape" transform="translate(671.56,-351.739)">
			<title>Sheet.7</title>
			<desc>Legend:</desc>
			<v:userDefs>
				<v:ud v:nameU="msvThemeColors" v:val="VT0(254):26"/>
			</v:userDefs>
			<v:textBlock v:margins="rect(4,4,4,4)"/>
			<v:textRect cx="25.625" cy="390.917" width="51.25" height="16"/>
			<rect x="0" y="382.917" width="51.25" height="16" class="st5"/>
			<text x="4" y="394.22" class="st7" v:langID="1033"><v:paragraph/><v:tabList/>Legend:</text>		</g>
		<g id="shape8-26" v:mID="8" v:groupContext="shape" transform="translate(713.31,-339.114)">
			<title>Sheet.8</title>
			<desc>Lens position for PD</desc>
			<v:userDefs>
				<v:ud v:nameU="msvThemeColors" v:val="VT0(254):26"/>
			</v:userDefs>
			<v:textBlock v:margins="rect(4,4,4,4)"/>
			<v:textRect cx="63.25" cy="390.917" width="126.5" height="16"/>
			<rect x="0" y="382.917" width="126.5" height="16" class="st5"/>
			<text x="4" y="394.22" class="st8" v:langID="1033"><v:paragraph/><v:tabList/>Lens position for PD</text>		</g>
		<g id="shape9-29" v:mID="9" v:groupContext="shape" transform="translate(713.31,-321.114)">
			<title>Sheet.9</title>
			<desc>Lens position for FV</desc>
			<v:userDefs>
				<v:ud v:nameU="msvThemeColors" v:val="VT0(254):26"/>
			</v:userDefs>
			<v:textBlock v:margins="rect(4,4,4,4)"/>
			<v:textRect cx="63.25" cy="390.917" width="126.5" height="16"/>
			<rect x="0" y="382.917" width="126.5" height="16" class="st5"/>
			<text x="4" y="394.22" class="st8" v:langID="1033"><v:paragraph/><v:tabList/>Lens position for FV</text>		</g>
		<g id="shape10-32" v:mID="10" v:groupContext="shape" v:layerMember="0" transform="translate(712.185,-329.802) scale(-1,1)">
			<title>Line-curve connector.10</title>
			<v:userDefs>
				<v:ud v:nameU="AntiScale" v:val="VT0(1):26"/>
				<v:ud v:nameU="Scale" v:val="VT0(1):26"/>
				<v:ud v:nameU="visVersion" v:val="VT0(14):26"/>
				<v:ud v:nameU="msvThemeColors" v:val="VT0(254):26"/>
			</v:userDefs>
			<path d="M0 398.92 L37.75 398.92 L37.75 398.92" class="st4"/>
		</g>
		<g id="shape11-35" v:mID="11" v:groupContext="shape" v:layerMember="0" transform="translate(712.185,-347.239) scale(-1,1)">
			<title>Line-curve connector.12</title>
			<v:userDefs>
				<v:ud v:nameU="AntiScale" v:val="VT0(1):26"/>
				<v:ud v:nameU="Scale" v:val="VT0(1):26"/>
				<v:ud v:nameU="visVersion" v:val="VT0(14):26"/>
				<v:ud v:nameU="msvThemeColors" v:val="VT0(254):26"/>
			</v:userDefs>
			<path d="M0 398.92 L37.75 398.92 L37.75 398.92" class="st9"/>
		</g>
		<g id="shape12-38" v:mID="12" v:groupContext="shape" transform="translate(197.375,-37.8007)">
			<title>Sheet.12</title>
			<desc>Lens position for FV</desc>
			<v:userDefs>
				<v:ud v:nameU="msvThemeColors" v:val="VT0(254):26"/>
			</v:userDefs>
			<v:textBlock v:margins="rect(4,4,4,4)"/>
			<v:textRect cx="22.625" cy="385.417" width="45.25" height="27"/>
			<rect x="0" y="371.917" width="45.25" height="27" class="st5"/>
			<text x="4" y="375.52" class="st8" v:langID="1033"><v:paragraph/><v:tabList/>Lens <tspan x="4" dy="1.2em" class="st10">position </tspan><tspan
						x="4" dy="1.2em" class="st10">for FV</tspan></text>		</g>
		<g id="shape13-43" v:mID="13" v:groupContext="shape" transform="translate(309.5,-253.801)">
			<title>Sheet.13</title>
			<desc>Gap should be small to pass the test case.</desc>
			<v:userDefs>
				<v:ud v:nameU="msvThemeColors" v:val="VT0(254):26"/>
			</v:userDefs>
			<v:textBlock v:margins="rect(4,4,4,4)"/>
			<v:textRect cx="63.25" cy="385.417" width="126.5" height="27"/>
			<rect x="0" y="371.917" width="126.5" height="27" class="st5"/>
			<text x="4" y="382.12" class="st11" v:langID="1033"><v:paragraph/><v:tabList/>Gap should be small to <tspan x="4"
						dy="1.2em" class="st12">pass </tspan>the test case.</text>		</g>
		<g id="shape14-47" v:mID="14" v:groupContext="shape" v:layerMember="0"
				transform="translate(-248.667,100.116) rotate(-90) scale(-1,1)">
			<title>Line-curve connector.18</title>
			<v:userDefs>
				<v:ud v:nameU="AntiScale" v:val="VT0(1):26"/>
				<v:ud v:nameU="Scale" v:val="VT0(1):26"/>
				<v:ud v:nameU="visVersion" v:val="VT0(14):26"/>
				<v:ud v:nameU="msvThemeColors" v:val="VT0(254):26"/>
			</v:userDefs>
			<path d="M0 398.92 L219.63 398.92 L219.63 398.92" class="st13"/>
		</g>
		<g id="shape15-50" v:mID="15" v:groupContext="shape" transform="translate(145.75,-303.301)">
			<title>Bracket.107</title>
			<v:userDefs>
				<v:ud v:nameU="visVersion" v:val="VT0(14):26"/>
				<v:ud v:nameU="msvThemeColors" v:val="VT0(254):26"/>
			</v:userDefs>
			<path d="M0 398.92 A2.54683 2.54683 0 0 1 2.25 396.67 L7.87 396.67 A2.54683 2.54683 -180 0 0 10.12 394.42 A2.54683 2.54683
						 -180 0 0 12.37 396.67 L18 396.67 A2.54683 2.54683 0 0 1 20.25 398.92" class="st14"/>
		</g>
		<g id="shape16-53" v:mID="16" v:groupContext="shape" v:layerMember="0"
				transform="translate(207.042,513.098) rotate(-166.709)">
			<title>Line-curve connector.16</title>
			<v:userDefs>
				<v:ud v:nameU="AntiScale" v:val="VT0(1):26"/>
				<v:ud v:nameU="Scale" v:val="VT0(1):26"/>
				<v:ud v:nameU="visVersion" v:val="VT0(14):26"/>
				<v:ud v:nameU="msvThemeColors" v:val="VT0(254):26"/>
			</v:userDefs>
			<path d="M0 398.92 L32.16 402.53 L60.36 405.24 L84.6 407.05 L104.87 407.96 L121.18 407.96 L133.53 407.05 L141.92 405.24
						 L146.34 402.53 L146.81 398.92" class="st15"/>
		</g>
		<g id="shape17-59" v:mID="17" v:groupContext="shape" transform="translate(581.06,-24.3007)">
			<title>Sheet.17</title>
			<desc>Lens position for PD</desc>
			<v:userDefs>
				<v:ud v:nameU="msvThemeColors" v:val="VT0(254):26"/>
			</v:userDefs>
			<v:textBlock v:margins="rect(4,4,4,4)"/>
			<v:textRect cx="22.625" cy="385.417" width="45.25" height="27"/>
			<rect x="0" y="371.917" width="45.25" height="27" class="st5"/>
			<text x="4" y="375.52" class="st8" v:langID="1033"><v:paragraph/><v:tabList/>Lens <tspan x="4" dy="1.2em" class="st10">position </tspan><tspan
						x="4" dy="1.2em" class="st10">for PD</tspan></text>		</g>
		<g id="shape18-64" v:mID="18" v:groupContext="shape" transform="translate(481.728,-46.2223) rotate(29.3708) scale(-1,1)">
			<title>Sheet.18</title>
			<v:userDefs>
				<v:ud v:nameU="msvThemeColors" v:val="VT0(254):26"/>
			</v:userDefs>
			<path d="M0 377.66 C10.99 376.38 17.57 382.93 25.49 385.6 C31.63 387.67 38.58 387.4 44.35 389.22 C47.29 390.15 49.93
						 391.62 53.07 392.47 C56.88 393.5 61.42 393.62 65.03 394.32 C68.25 394.93 70.73 396 73.57 396.54 C81.97 398.12
						 93.53 395.04 103.79 395.69 C112.26 396.23 119.84 399.32 128.36 398.92 C134.03 398.65 140.13 396.84 145.82
						 397.27 C148.57 397.47 151.24 398.2 153.84 398.23 C158.25 398.27 162.5 396.3 167.03 395.24 C171.42 394.21
						 176.07 394.04 180.4 393.74 C184.02 393.5 187.41 393.16 191.01 392.85 C195.38 392.46 200.07 392.1 204.03
						 389.97 C208.56 387.54 212.14 382.82 216.47 381.94 C221.3 380.96 227.06 384.8 232.71 385.81 C239.08 386.95
						 245.3 384.48 251.63 383.35 C255.93 382.58 260.29 382.43 264.5 381.51 C274.64 379.3 283.97 372.66 296.63
						 377.66" class="st9"/>
		</g>
		<g id="shape19-67" v:mID="19" v:groupContext="shape" v:layerMember="0"
				transform="translate(288.455,696.385) rotate(-26.2529) scale(1,-1)">
			<title>Line-curve connector.19</title>
			<v:userDefs>
				<v:ud v:nameU="AntiScale" v:val="VT0(1):26"/>
				<v:ud v:nameU="Scale" v:val="VT0(1):26"/>
				<v:ud v:nameU="visVersion" v:val="VT0(14):26"/>
				<v:ud v:nameU="msvThemeColors" v:val="VT0(254):26"/>
			</v:userDefs>
			<path d="M5.31 400.2 L5.66 400.28 L15.44 401.76 L24.87 402.03 L33.94 401.08 L42.65 398.92" class="st17"/>
		</g>
		<g id="shape20-73" v:mID="20" v:groupContext="shape" v:layerMember="0"
				transform="translate(-24.1976,672.967) rotate(-147.275)">
			<title>Line-curve connector.20</title>
			<v:userDefs>
				<v:ud v:nameU="AntiScale" v:val="VT0(1):26"/>
				<v:ud v:nameU="Scale" v:val="VT0(1):26"/>
				<v:ud v:nameU="visVersion" v:val="VT0(14):26"/>
				<v:ud v:nameU="msvThemeColors" v:val="VT0(254):26"/>
			</v:userDefs>
			<path d="M5.26 400.4 L5.6 400.5 L13.53 401.83 L21.18 402.01 L28.54 401.04 L35.61 398.92" class="st17"/>
		</g>
		<g id="shape22-78" v:mID="22" v:groupContext="shape" v:layerMember="0"
				transform="translate(63.1432,100.866) rotate(-90) scale(-1,1)">
			<title>Line-curve connector.25</title>
			<v:userDefs>
				<v:ud v:nameU="AntiScale" v:val="VT0(1):26"/>
				<v:ud v:nameU="Scale" v:val="VT0(1):26"/>
				<v:ud v:nameU="visVersion" v:val="VT0(14):26"/>
				<v:ud v:nameU="msvThemeColors" v:val="VT0(254):26"/>
			</v:userDefs>
			<path d="M11.7 398.92 L12.06 398.92 L264.75 398.92 L264.75 398.92" class="st2"/>
		</g>
		<g id="shape23-83" v:mID="23" v:groupContext="shape" v:layerMember="0" transform="translate(750.06,-80.8007) scale(-1,1)">
			<title>Line-curve connector.26</title>
			<v:userDefs>
				<v:ud v:nameU="AntiScale" v:val="VT0(1):26"/>
				<v:ud v:nameU="Scale" v:val="VT0(1):26"/>
				<v:ud v:nameU="visVersion" v:val="VT0(14):26"/>
				<v:ud v:nameU="msvThemeColors" v:val="VT0(254):26"/>
			</v:userDefs>
			<path d="M11.7 398.92 L12.06 398.92 L288 398.92 L288 398.92" class="st2"/>
		</g>
		<g id="shape24-88" v:mID="24" v:groupContext="shape" transform="translate(471.06,-89.8007)">
			<title>Sheet.24</title>
			<v:userDefs>
				<v:ud v:nameU="msvThemeColors" v:val="VT0(254):26"/>
			</v:userDefs>
			<path d="M0 398.92 C60.5 383.42 96.45 234.6 144.52 206.63 C161.23 196.91 179.4 201.79 191.89 229.57 C213.32 277.25 218
						 392.42 258.5 398.92" class="st4"/>
		</g>
		<g id="shape25-91" v:mID="25" v:groupContext="shape" transform="translate(63.1432,318.116) rotate(-90)">
			<title>Sheet.25</title>
			<desc>Focus Value</desc>
			<v:userDefs>
				<v:ud v:nameU="msvThemeColors" v:val="VT0(254):26"/>
			</v:userDefs>
			<v:textBlock v:margins="rect(4,4,4,4)"/>
			<v:textRect cx="70.875" cy="390.917" width="141.75" height="16"/>
			<rect x="0" y="382.917" width="141.75" height="16" class="st5"/>
			<text x="41.19" y="394.52" class="st6" v:langID="1033"><v:paragraph v:horizAlign="1"/><v:tabList/>Focus Value</text>		</g>
		<g id="shape26-94" v:mID="26" v:groupContext="shape" transform="translate(635.06,-64.8007)">
			<title>Sheet.26</title>
			<desc>Lens Position</desc>
			<v:userDefs>
				<v:ud v:nameU="msvThemeColors" v:val="VT0(254):26"/>
			</v:userDefs>
			<v:textBlock v:margins="rect(4,4,4,4)"/>
			<v:textRect cx="50.75" cy="390.917" width="101.51" height="16"/>
			<rect x="0" y="382.917" width="101.5" height="16" class="st5"/>
			<text x="17.94" y="394.52" class="st6" v:langID="1033"><v:paragraph v:horizAlign="1"/><v:tabList/>Lens Position</text>		</g>
		<g id="shape32-97" v:mID="32" v:groupContext="shape" transform="translate(733.56,-253.801)">
			<title>Sheet.32</title>
			<desc>Gap is too big, hence the test case failed</desc>
			<v:userDefs>
				<v:ud v:nameU="msvThemeColors" v:val="VT0(254):26"/>
			</v:userDefs>
			<v:textBlock v:margins="rect(4,4,4,4)"/>
			<v:textRect cx="63.25" cy="385.417" width="126.5" height="27"/>
			<rect x="0" y="371.917" width="126.5" height="27" class="st5"/>
			<text x="4" y="382.12" class="st11" v:langID="1033"><v:paragraph/><v:tabList/>Gap is too big, hence <tspan x="4"
						dy="1.2em" class="st10">the test case </tspan><tspan class="st12">failed</tspan></text>		</g>
		<g id="shape33-102" v:mID="33" v:groupContext="shape" v:layerMember="0"
				transform="translate(231.643,97.7286) rotate(-90) scale(-1,1)">
			<title>Line-curve connector.33</title>
			<v:userDefs>
				<v:ud v:nameU="AntiScale" v:val="VT0(1):26"/>
				<v:ud v:nameU="Scale" v:val="VT0(1):26"/>
				<v:ud v:nameU="visVersion" v:val="VT0(14):26"/>
				<v:ud v:nameU="msvThemeColors" v:val="VT0(254):26"/>
			</v:userDefs>
			<path d="M0 398.92 L220.39 398.92 L220.39 398.92" class="st4"/>
		</g>
		<g id="shape34-105" v:mID="34" v:groupContext="shape" v:layerMember="0"
				transform="translate(155.143,100.853) rotate(-90) scale(-1,1)">
			<title>Line-curve connector.40</title>
			<v:userDefs>
				<v:ud v:nameU="AntiScale" v:val="VT0(1):26"/>
				<v:ud v:nameU="Scale" v:val="VT0(1):26"/>
				<v:ud v:nameU="visVersion" v:val="VT0(14):26"/>
				<v:ud v:nameU="msvThemeColors" v:val="VT0(254):26"/>
			</v:userDefs>
			<path d="M0 398.92 L218.9 398.92 L218.9 398.92" class="st13"/>
		</g>
		<g id="shape35-108" v:mID="35" v:groupContext="shape" transform="translate(549.448,-303.301)">
			<title>Bracket.41</title>
			<v:userDefs>
				<v:ud v:nameU="visVersion" v:val="VT0(14):26"/>
				<v:ud v:nameU="msvThemeColors" v:val="VT0(254):26"/>
			</v:userDefs>
			<path d="M-0 398.92 A3.82024 3.82024 0 0 1 3.38 395.54 L72.56 395.54 A3.82024 3.82024 -180 0 0 75.94 392.17 A3.82024
						 3.82024 -180 0 0 79.31 395.54 A3.82024 3.82024 0 0 1 82.69 398.92" class="st14"/>
		</g>
		<g id="shape36-111" v:mID="36" v:groupContext="shape" v:layerMember="0"
				transform="translate(621.547,510.119) rotate(-164.96)">
			<title>Line-curve connector.36</title>
			<v:userDefs>
				<v:ud v:nameU="AntiScale" v:val="VT0(1):26"/>
				<v:ud v:nameU="Scale" v:val="VT0(1):26"/>
				<v:ud v:nameU="visVersion" v:val="VT0(14):26"/>
				<v:ud v:nameU="msvThemeColors" v:val="VT0(254):26"/>
			</v:userDefs>
			<path d="M0 398.92 L30.29 402.53 L56.84 405.24 L79.67 407.05 L98.76 407.96 L114.12 407.96 L125.75 407.05 L133.65 405.24
						 L137.82 402.53 L138.25 398.92" class="st15"/>
		</g>
		<g id="shape37-116" v:mID="37" v:groupContext="shape" transform="translate(908.627,-51.2672) rotate(29.3708) scale(-1,1)">
			<title>Sheet.37</title>
			<v:userDefs>
				<v:ud v:nameU="msvThemeColors" v:val="VT0(254):26"/>
			</v:userDefs>
			<path d="M0 383.45 C10.99 382.17 20.85 391.86 32.56 392.78 C35.17 392.99 37.87 392.76 40.87 392.55 C44.52 392.29 48.62
						 392.06 52.73 392.41 C56.39 392.72 60.07 393.49 63.68 393.77 C74.33 394.57 84.34 390.98 94.59 390.71 C103.06
						 390.48 111.69 392.51 120.69 393.76 C126.69 394.6 132.86 395.08 139.35 395 C142.5 394.95 145.72 394.78 149.24
						 394.8 C155.2 394.85 162.02 395.49 167.56 394.69 C172.95 393.91 177.13 391.78 181.08 392.91 C184.39 393.86
						 187.54 397.09 191.03 398.33 C195.27 399.83 200.03 398.39 204.02 395.82 C208.58 392.89 212.15 388.49 216.47
						 387.72 C221.3 386.85 227.09 390.51 232.72 391.59 C239.06 392.8 245.2 390.73 251.66 388.97 C256.06 387.76
						 260.61 386.7 264.75 386.14 C274.71 384.79 282.3 386.33 296.63 383.45" class="st9"/>
		</g>
		<g id="shape38-119" v:mID="38" v:groupContext="shape" v:layerMember="0"
				transform="translate(-88.9168,154.116) rotate(-90) scale(-1,1)">
			<title>Line-curve connector.45</title>
			<v:userDefs>
				<v:ud v:nameU="AntiScale" v:val="VT0(1):26"/>
				<v:ud v:nameU="Scale" v:val="VT0(1):26"/>
				<v:ud v:nameU="visVersion" v:val="VT0(14):26"/>
				<v:ud v:nameU="msvThemeColors" v:val="VT0(254):26"/>
			</v:userDefs>
			<path d="M0 398.92 L164 398.92 L164 398.92" class="st18"/>
		</g>
		<g id="shape39-122" v:mID="39" v:groupContext="shape" v:layerMember="0"
				transform="translate(335.143,154.116) rotate(-90) scale(-1,1)">
			<title>Line-curve connector.39</title>
			<v:userDefs>
				<v:ud v:nameU="AntiScale" v:val="VT0(1):26"/>
				<v:ud v:nameU="Scale" v:val="VT0(1):26"/>
				<v:ud v:nameU="visVersion" v:val="VT0(14):26"/>
				<v:ud v:nameU="msvThemeColors" v:val="VT0(254):26"/>
			</v:userDefs>
			<path d="M0 398.92 L164 398.92 L164 398.92" class="st18"/>
		</g>
		<g id="shape40-125" v:mID="40" v:groupContext="shape" transform="translate(-63.9168,304.866) rotate(-90)">
			<title>Sheet.40</title>
			<desc>Defocus Value</desc>
			<v:userDefs>
				<v:ud v:nameU="msvThemeColors" v:val="VT0(254):26"/>
			</v:userDefs>
			<v:textBlock v:margins="rect(4,4,4,4)"/>
			<v:textRect cx="70.875" cy="390.917" width="141.75" height="16"/>
			<rect x="0" y="382.917" width="141.75" height="16" class="st5"/>
			<text x="35.24" y="394.52" class="st6" v:langID="1033"><v:paragraph v:horizAlign="1"/><v:tabList/>Defocus Value</text>		</g>
		<g id="shape41-128" v:mID="41" v:groupContext="shape" transform="translate(353.143,304.866) rotate(-90)">
			<title>Sheet.41</title>
			<desc>Defocus Value</desc>
			<v:userDefs>
				<v:ud v:nameU="msvThemeColors" v:val="VT0(254):26"/>
			</v:userDefs>
			<v:textBlock v:margins="rect(4,4,4,4)"/>
			<v:textRect cx="70.875" cy="390.917" width="141.75" height="16"/>
			<rect x="0" y="382.917" width="141.75" height="16" class="st5"/>
			<text x="35.24" y="394.52" class="st6" v:langID="1033"><v:paragraph v:horizAlign="1"/><v:tabList/>Defocus Value</text>		</g>
		<g id="shape42-131" v:mID="42" v:groupContext="shape" v:layerMember="0"
				transform="translate(-237.417,97.7286) rotate(-90) scale(-1,1)">
			<title>Line-curve connector.17</title>
			<v:userDefs>
				<v:ud v:nameU="AntiScale" v:val="VT0(1):26"/>
				<v:ud v:nameU="Scale" v:val="VT0(1):26"/>
				<v:ud v:nameU="visVersion" v:val="VT0(14):26"/>
				<v:ud v:nameU="msvThemeColors" v:val="VT0(254):26"/>
			</v:userDefs>
			<path d="M0 398.92 L220.39 398.92 L220.39 398.92" class="st4"/>
		</g>
		<g id="shape43-134" v:mID="43" v:groupContext="shape" v:layerMember="0"
				transform="translate(364.571,617.888) rotate(-131.777)">
			<title>Line-curve connector.38</title>
			<v:userDefs>
				<v:ud v:nameU="AntiScale" v:val="VT0(1):26"/>
				<v:ud v:nameU="Scale" v:val="VT0(1):26"/>
				<v:ud v:nameU="visVersion" v:val="VT0(14):26"/>
				<v:ud v:nameU="msvThemeColors" v:val="VT0(254):26"/>
			</v:userDefs>
			<path d="M5.41 398.16 L5.76 398.12 L17.42 397.01 L27.94 396.78 L37.34 397.41 L45.59 398.92" class="st17"/>
		</g>
		<g id="shape44-139" v:mID="44" v:groupContext="shape" transform="translate(85,-33.3007)">
			<title>Sheet.44</title>
			<desc>Lens position for PD</desc>
			<v:userDefs>
				<v:ud v:nameU="msvThemeColors" v:val="VT0(254):26"/>
			</v:userDefs>
			<v:textBlock v:margins="rect(4,4,4,4)"/>
			<v:textRect cx="22.625" cy="385.417" width="45.25" height="27"/>
			<rect x="0" y="371.917" width="45.25" height="27" class="st5"/>
			<text x="4" y="375.52" class="st8" v:langID="1033"><v:paragraph/><v:tabList/>Lens <tspan x="4" dy="1.2em" class="st10">position </tspan><tspan
						x="4" dy="1.2em" class="st10">for PD</tspan></text>		</g>
		<g id="shape45-144" v:mID="45" v:groupContext="shape" transform="translate(662.06,-24.3007)">
			<title>Sheet.45</title>
			<desc>Lens position for FV</desc>
			<v:userDefs>
				<v:ud v:nameU="msvThemeColors" v:val="VT0(254):26"/>
			</v:userDefs>
			<v:textBlock v:margins="rect(4,4,4,4)"/>
			<v:textRect cx="22.625" cy="385.417" width="45.25" height="27"/>
			<rect x="0" y="371.917" width="45.25" height="27" class="st5"/>
			<text x="4" y="375.52" class="st8" v:langID="1033"><v:paragraph/><v:tabList/>Lens <tspan x="4" dy="1.2em" class="st10">position </tspan><tspan
						x="4" dy="1.2em" class="st10">for FV</tspan></text>		</g>
		<g id="shape46-149" v:mID="46" v:groupContext="shape" v:layerMember="0"
				transform="translate(274.738,607.658) rotate(-129.836)">
			<title>Line-curve connector.46</title>
			<v:userDefs>
				<v:ud v:nameU="AntiScale" v:val="VT0(1):26"/>
				<v:ud v:nameU="Scale" v:val="VT0(1):26"/>
				<v:ud v:nameU="visVersion" v:val="VT0(14):26"/>
				<v:ud v:nameU="msvThemeColors" v:val="VT0(254):26"/>
			</v:userDefs>
			<path d="M5.4 398.14 L5.76 398.09 L17.46 396.91 L27.42 396.65 L35.65 397.32 L42.15 398.92" class="st17"/>
		</g>
		<g id="shape47-154" v:mID="47" v:groupContext="shape" v:layerMember="0" transform="translate(734.06,-197.551) scale(-1,1)">
			<title>Line-curve connector.49</title>
			<v:userDefs>
				<v:ud v:nameU="AntiScale" v:val="VT0(1):26"/>
				<v:ud v:nameU="Scale" v:val="VT0(1):26"/>
				<v:ud v:nameU="visVersion" v:val="VT0(14):26"/>
				<v:ud v:nameU="msvThemeColors" v:val="VT0(254):26"/>
			</v:userDefs>
			<path d="M0 398.92 L272 398.92 L272 398.92" class="st19"/>
		</g>
		<g id="shape48-157" v:mID="48" v:groupContext="shape" v:layerMember="0" transform="translate(310,-175.051) scale(-1,1)">
			<title>Line-curve connector.50</title>
			<v:userDefs>
				<v:ud v:nameU="AntiScale" v:val="VT0(1):26"/>
				<v:ud v:nameU="Scale" v:val="VT0(1):26"/>
				<v:ud v:nameU="visVersion" v:val="VT0(14):26"/>
				<v:ud v:nameU="msvThemeColors" v:val="VT0(254):26"/>
			</v:userDefs>
			<path d="M0 398.92 L272 398.92 L272 398.92" class="st19"/>
		</g>
		<g id="shape49-160" v:mID="49" v:groupContext="shape" transform="translate(-91.1668,301.491) rotate(-90)">
			<title>Sheet.49</title>
			<desc>0</desc>
			<v:userDefs>
				<v:ud v:nameU="msvThemeColors" v:val="VT0(254):26"/>
			</v:userDefs>
			<v:textBlock v:margins="rect(4,4,4,4)"/>
			<v:textRect cx="70.875" cy="394.917" width="141.75" height="8"/>
			<rect x="0" y="390.917" width="141.75" height="8" class="st5"/>
			<text x="67.83" y="398.52" class="st6" v:langID="1033"><v:paragraph v:horizAlign="1"/><v:tabList/>0</text>		</g>
		<g id="shape50-163" v:mID="50" v:groupContext="shape" transform="translate(332.393,277.866) rotate(-90)">
			<title>Sheet.50</title>
			<desc>0</desc>
			<v:userDefs>
				<v:ud v:nameU="msvThemeColors" v:val="VT0(254):26"/>
			</v:userDefs>
			<v:textBlock v:margins="rect(4,4,4,4)"/>
			<v:textRect cx="70.875" cy="394.917" width="141.75" height="8"/>
			<rect x="0" y="390.917" width="141.75" height="8" class="st5"/>
			<text x="67.83" y="398.52" class="st6" v:langID="1033"><v:paragraph v:horizAlign="1"/><v:tabList/>0</text>		</g>
		<g id="shape21-166" v:mID="21" v:groupContext="shape" transform="translate(104.5,-1)">
			<title>Sheet.21</title>
			<desc>Graph A (pass)</desc>
			<v:userDefs>
				<v:ud v:nameU="msvThemeColors" v:val="VT0(254):26"/>
			</v:userDefs>
			<v:textBlock v:margins="rect(4,4,4,4)"/>
			<v:textRect cx="50.75" cy="390.917" width="101.51" height="16"/>
			<rect x="0" y="382.917" width="101.5" height="16" class="st5"/>
			<text x="14.34" y="394.52" class="st6" v:langID="1033"><v:paragraph v:horizAlign="1"/><v:tabList/>Graph A (pass)</text>		</g>
		<g id="shape27-169" v:mID="27" v:groupContext="shape" transform="translate(582.5,-2)">
			<title>Sheet.27</title>
			<desc>Graph B (fail)</desc>
			<v:userDefs>
				<v:ud v:nameU="msvThemeColors" v:val="VT0(254):26"/>
			</v:userDefs>
			<v:textBlock v:margins="rect(4,4,4,4)"/>
			<v:textRect cx="50.75" cy="390.917" width="101.51" height="16"/>
			<rect x="0" y="382.917" width="101.5" height="16" class="st5"/>
			<text x="17.77" y="394.52" class="st6" v:langID="1033"><v:paragraph v:horizAlign="1"/><v:tabList/>Graph B (fail)</text>		</g>
	</g>
</svg>
