<?xml version="1.0" encoding="UTF-8" standalone="no"?>
<!DOCTYPE svg PUBLIC "-//W3C//DTD SVG 1.0//EN" "http://www.w3.org/TR/2001/REC-SVG-20010904/DTD/svg10.dtd">
<!-- Generated by Microsoft Visio 11.0, SVG Export, v1.0 af_cafscan_focusval.svg Page-1 -->
<svg xmlns="http://www.w3.org/2000/svg" xmlns:xlink="http://www.w3.org/1999/xlink" xmlns:ev="http://www.w3.org/2001/xml-events"
		xmlns:v="http://schemas.microsoft.com/visio/2003/SVGExtensions/" width="10.819in" height="5.78378in"
		viewBox="0 0 778.97 416.432" xml:space="preserve" color-interpolation-filters="sRGB" class="st14">
	<v:documentProperties v:langID="1033" v:viewMarkup="false">
		<v:userDefs>
			<v:ud v:nameU="msvLastAppliedDataGraphic" v:val="VT4()"/>
			<v:ud v:nameU="msvNoAutoConnect" v:val="VT0(1):26"/>
			<v:ud v:nameU="visTLShowProps" v:prompt="" v:val="VT0(0):26"/>
		</v:userDefs>
	</v:documentProperties>

	<style type="text/css">
	<![CDATA[
		.st1 {marker-start:url(#mrkr13-6);stroke:#000000;stroke-linecap:round;stroke-linejoin:round;stroke-width:1.5}
		.st2 {fill:#000000;fill-opacity:1;stroke:#000000;stroke-opacity:1;stroke-width:0.37313432835821}
		.st3 {stroke:#91278f;stroke-linecap:round;stroke-linejoin:round;stroke-width:1.5}
		.st4 {fill:none;stroke:none;stroke-linecap:round;stroke-linejoin:round;stroke-width:0.72}
		.st5 {fill:#000000;font-family:Arial;font-size:1.00001em;font-weight:bold}
		.st6 {fill:#000000;font-family:Arial;font-size:1.00001em}
		.st7 {font-size:1em}
		.st8 {marker-end:url(#mrkr5-37);marker-start:url(#mrkr5-35);stroke:#3f3f3f;stroke-linecap:round;stroke-linejoin:round;stroke-width:1.5}
		.st9 {fill:#3f3f3f;fill-opacity:1;stroke:#3f3f3f;stroke-opacity:1;stroke-width:0.37313432835821}
		.st10 {marker-start:url(#mrkr13-43);stroke:#007da8;stroke-linecap:round;stroke-linejoin:round;stroke-width:0.5}
		.st11 {fill:#007da8;fill-opacity:1;stroke:#007da8;stroke-opacity:1;stroke-width:0.25773195876289}
		.st12 {stroke:#007da8;stroke-linecap:round;stroke-linejoin:round;stroke-width:0.5}
		.st13 {fill:none;stroke:#007da8;stroke-linecap:round;stroke-linejoin:round;stroke-width:0.5}
		.st14 {fill:none;fill-rule:evenodd;font-size:12px;overflow:visible;stroke-linecap:square;stroke-miterlimit:3}
	]]>
	</style>

	<defs id="Markers">
		<g id="lend13">
			<path d="M 3 1 L 0 0 L 3 -1 L 3 1 " style="stroke:none"/>
		</g>
		<marker id="mrkr13-6" class="st2" v:arrowType="13" v:arrowSize="2" v:setback="7.8" refX="7.8" orient="auto"
				markerUnits="strokeWidth" overflow="visible">
			<use xlink:href="#lend13" transform="scale(2.68) "/>
		</marker>
		<g id="lend5">
			<path d="M 2 1 L 0 0 L 1.98117 -0.993387 C 1.67173 -0.364515 1.67301 0.372641 1.98465 1.00043 " style="stroke:none"/>
		</g>
		<marker id="mrkr5-35" class="st9" v:arrowType="5" v:arrowSize="2" v:setback="4.45" refX="4.45" orient="auto"
				markerUnits="strokeWidth" overflow="visible">
			<use xlink:href="#lend5" transform="scale(2.68) "/>
		</marker>
		<marker id="mrkr5-37" class="st9" v:arrowType="5" v:arrowSize="2" v:setback="4.69" refX="-4.69" orient="auto"
				markerUnits="strokeWidth" overflow="visible">
			<use xlink:href="#lend5" transform="scale(-2.68,-2.68) "/>
		</marker>
		<marker id="mrkr13-43" class="st11" v:arrowType="13" v:arrowSize="0" v:setback="10.92" refX="10.92" orient="auto"
				markerUnits="strokeWidth" overflow="visible">
			<use xlink:href="#lend13" transform="scale(3.88) "/>
		</marker>
	</defs>
	<g v:mID="0" v:index="1" v:groupContext="foregroundPage">
		<v:userDefs>
			<v:ud v:nameU="msvThemeColors" v:val="VT0(254):26"/>
			<v:ud v:nameU="msvThemeOrder" v:val="VT0(0):26"/>
		</v:userDefs>
		<title>Page-1</title>
		<v:pageProperties v:drawingScale="1" v:pageScale="1" v:drawingUnits="0" v:shadowOffsetX="9" v:shadowOffsetY="-9"/>
		<v:layer v:name="Connector" v:index="0"/>
		<g id="shape1-1" v:mID="1" v:groupContext="shape" v:layerMember="0"
				transform="translate(-378.432,30.7124) rotate(-90) scale(-1,1)">
			<title>Line-curve connector.102</title>
			<v:userDefs>
				<v:ud v:nameU="AntiScale" v:val="VT0(1):26"/>
				<v:ud v:nameU="Scale" v:val="VT0(1):26"/>
				<v:ud v:nameU="visVersion" v:val="VT0(14):26"/>
				<v:ud v:nameU="msvThemeColors" v:val="VT0(254):26"/>
			</v:userDefs>
			<path d="M11.7 416.43 L12.06 416.43 L153 416.43 L153 416.43" class="st1"/>
		</g>
		<g id="shape2-7" v:mID="2" v:groupContext="shape" v:layerMember="0" transform="translate(326,-232.72) scale(-1,1)">
			<title>Line-curve connector.2</title>
			<v:userDefs>
				<v:ud v:nameU="AntiScale" v:val="VT0(1):26"/>
				<v:ud v:nameU="Scale" v:val="VT0(1):26"/>
				<v:ud v:nameU="visVersion" v:val="VT0(14):26"/>
				<v:ud v:nameU="msvThemeColors" v:val="VT0(254):26"/>
			</v:userDefs>
			<path d="M11.7 416.43 L12.06 416.43 L288 416.43 L288 416.43" class="st1"/>
		</g>
		<g id="shape3-12" v:mID="3" v:groupContext="shape" transform="translate(47,-234.97)">
			<title>Sheet.3</title>
			<v:userDefs>
				<v:ud v:nameU="msvThemeColors" v:val="VT0(254):26"/>
			</v:userDefs>
			<path d="M0 416.43 C49.98 376.2 86.21 326.74 113.56 307.44 C123.06 300.73 131.49 297.67 147.97 309.28 C176.26 329.21
						 228.29 392.38 261 416.43" class="st3"/>
		</g>
		<g id="shape5-15" v:mID="5" v:groupContext="shape" transform="translate(-378.432,183.712) rotate(-90)">
			<title>Sheet.5</title>
			<desc>Focus Value</desc>
			<v:userDefs>
				<v:ud v:nameU="msvThemeColors" v:val="VT0(254):26"/>
			</v:userDefs>
			<v:textBlock v:margins="rect(4,4,4,4)"/>
			<v:textRect cx="70.875" cy="408.432" width="141.75" height="16"/>
			<rect x="0" y="400.432" width="141.75" height="16" class="st4"/>
			<text x="35.53" y="412.03" class="st5" v:langID="1033"><v:paragraph v:horizAlign="1"/><v:tabList/>Focus Value</text>		</g>
		<g id="shape6-18" v:mID="6" v:groupContext="shape" transform="translate(40.25,-216.72)">
			<title>Sheet.6</title>
			<desc>Lens Position</desc>
			<v:userDefs>
				<v:ud v:nameU="msvThemeColors" v:val="VT0(254):26"/>
			</v:userDefs>
			<v:textBlock v:margins="rect(4,4,4,4)"/>
			<v:textRect cx="136.125" cy="408.432" width="272.25" height="16"/>
			<rect x="0" y="400.432" width="272.25" height="16" class="st4"/>
			<text x="96.79" y="412.03" class="st5" v:langID="1033"><v:paragraph v:horizAlign="1"/><v:tabList/>Lens Position</text>		</g>
		<g id="shape7-21" v:mID="7" v:groupContext="shape" transform="translate(220.25,-349.72)">
			<title>Sheet.7</title>
			<desc>Max:Min Contrast Ratio should be at least more than 1:2</desc>
			<v:userDefs>
				<v:ud v:nameU="msvThemeColors" v:val="VT0(254):26"/>
			</v:userDefs>
			<v:textBlock v:margins="rect(4,4,4,4)"/>
			<v:textRect cx="91.375" cy="402.932" width="182.75" height="27"/>
			<rect x="0" y="389.432" width="182.75" height="27" class="st4"/>
			<text x="4" y="399.33" class="st6" v:langID="1033"><v:paragraph/><v:tabList/>Max:Min Contrast Ratio should <tspan x="4"
						dy="1.2em" class="st7">be at least more than </tspan>1:2</text>		</g>
		<g id="shape4-25" v:mID="4" v:groupContext="shape" transform="translate(281,-313.72)">
			<title>Sheet.4</title>
			<desc>Monotonic decrease of the curve tail</desc>
			<v:userDefs>
				<v:ud v:nameU="msvThemeColors" v:val="VT0(254):26"/>
			</v:userDefs>
			<v:textBlock v:margins="rect(4,4,4,4)"/>
			<v:textRect cx="59.625" cy="402.932" width="119.25" height="27"/>
			<rect x="0" y="389.432" width="119.25" height="27" class="st4"/>
			<text x="4" y="399.33" class="st6" v:langID="1033"><v:paragraph/><v:tabList/>Monotonic decrease <tspan x="4" dy="1.2em"
						class="st7">of the curve tail</tspan></text>		</g>
		<g id="shape8-29" v:mID="8" v:groupContext="shape" v:layerMember="0"
				transform="translate(-241.182,76.6766) rotate(-90) scale(-1,1)">
			<title>Line-curve connector.8</title>
			<v:userDefs>
				<v:ud v:nameU="AntiScale" v:val="VT0(1):26"/>
				<v:ud v:nameU="Scale" v:val="VT0(1):26"/>
				<v:ud v:nameU="visVersion" v:val="VT0(14):26"/>
				<v:ud v:nameU="msvThemeColors" v:val="VT0(254):26"/>
			</v:userDefs>
			<path d="M6.67 416.43 L7.03 416.43 L77.5 416.43 L77.5 416.43" class="st8"/>
		</g>
		<g id="shape9-38" v:mID="9" v:groupContext="shape" v:layerMember="0"
				transform="translate(17.1496,-275.875) rotate(-33.5422) scale(-1,1)">
			<title>Line-curve connector.44</title>
			<v:userDefs>
				<v:ud v:nameU="AntiScale" v:val="VT0(1):26"/>
				<v:ud v:nameU="Scale" v:val="VT0(1):26"/>
				<v:ud v:nameU="visVersion" v:val="VT0(14):26"/>
				<v:ud v:nameU="msvThemeColors" v:val="VT0(254):26"/>
			</v:userDefs>
			<path d="M5.11 414.51 L5.45 414.38 L24.03 408.97 L41.42 406.47 L57.61 406.88 L72.6 410.2 L86.38 416.43" class="st10"/>
		</g>
		<g id="shape10-44" v:mID="10" v:groupContext="shape" transform="translate(528.212,-196.25) rotate(45)">
			<title>Bracket.107</title>
			<v:userDefs>
				<v:ud v:nameU="visVersion" v:val="VT0(14):26"/>
				<v:ud v:nameU="msvThemeColors" v:val="VT0(254):26"/>
			</v:userDefs>
			<path d="M0 416.43 A4.01075 4.01075 0 0 1 3.54 412.89 L64.15 412.89 A4.01075 4.01075 -180 0 0 67.69 409.35 A4.01075 4.01075
						 -180 0 0 71.23 412.89 A4.01075 4.01075 0 0 1 74.78 416.43" class="st12"/>
		</g>
		<g id="shape11-47" v:mID="11" v:groupContext="shape" v:layerMember="0"
				transform="translate(0.3781,-201.776) rotate(-42.787) scale(-1,1)">
			<title>Line-curve connector.11</title>
			<v:userDefs>
				<v:ud v:nameU="AntiScale" v:val="VT0(1):26"/>
				<v:ud v:nameU="Scale" v:val="VT0(1):26"/>
				<v:ud v:nameU="visVersion" v:val="VT0(14):26"/>
				<v:ud v:nameU="msvThemeColors" v:val="VT0(254):26"/>
			</v:userDefs>
			<path d="M5.41 415.73 L5.77 415.68 L12.27 415.34 L18.33 415.59 L23.96 416.43" class="st10"/>
		</g>
		<g id="shape12-52" v:mID="12" v:groupContext="shape" v:layerMember="0"
				transform="translate(-9.18236,208.212) rotate(-90) scale(-1,1)">
			<title>Line-curve connector.12</title>
			<v:userDefs>
				<v:ud v:nameU="AntiScale" v:val="VT0(1):26"/>
				<v:ud v:nameU="Scale" v:val="VT0(1):26"/>
				<v:ud v:nameU="visVersion" v:val="VT0(14):26"/>
				<v:ud v:nameU="msvThemeColors" v:val="VT0(254):26"/>
			</v:userDefs>
			<path d="M11.7 416.43 L12.06 416.43 L153 416.43 L153 416.43" class="st1"/>
		</g>
		<g id="shape13-57" v:mID="13" v:groupContext="shape" v:layerMember="0" transform="translate(695.25,-55.22) scale(-1,1)">
			<title>Line-curve connector.13</title>
			<v:userDefs>
				<v:ud v:nameU="AntiScale" v:val="VT0(1):26"/>
				<v:ud v:nameU="Scale" v:val="VT0(1):26"/>
				<v:ud v:nameU="visVersion" v:val="VT0(14):26"/>
				<v:ud v:nameU="msvThemeColors" v:val="VT0(254):26"/>
			</v:userDefs>
			<path d="M11.7 416.43 L12.06 416.43 L288 416.43 L288 416.43" class="st1"/>
		</g>
		<g id="shape15-62" v:mID="15" v:groupContext="shape" transform="translate(-9.18236,361.212) rotate(-90)">
			<title>Sheet.15</title>
			<desc>Focus Value</desc>
			<v:userDefs>
				<v:ud v:nameU="msvThemeColors" v:val="VT0(254):26"/>
			</v:userDefs>
			<v:textBlock v:margins="rect(4,4,4,4)"/>
			<v:textRect cx="70.875" cy="408.432" width="141.75" height="16"/>
			<rect x="0" y="400.432" width="141.75" height="16" class="st4"/>
			<text x="35.53" y="412.03" class="st5" v:langID="1033"><v:paragraph v:horizAlign="1"/><v:tabList/>Focus Value</text>		</g>
		<g id="shape16-65" v:mID="16" v:groupContext="shape" transform="translate(409.5,-39.22)">
			<title>Sheet.16</title>
			<desc>Lens Position</desc>
			<v:userDefs>
				<v:ud v:nameU="msvThemeColors" v:val="VT0(254):26"/>
			</v:userDefs>
			<v:textBlock v:margins="rect(4,4,4,4)"/>
			<v:textRect cx="136.125" cy="408.432" width="272.25" height="16"/>
			<rect x="0" y="400.432" width="272.25" height="16" class="st4"/>
			<text x="96.79" y="412.03" class="st5" v:langID="1033"><v:paragraph v:horizAlign="1"/><v:tabList/>Lens Position</text>		</g>
		<g id="shape18-68" v:mID="18" v:groupContext="shape" transform="translate(634.25,-131.72)">
			<title>Sheet.18</title>
			<desc>Bad tail FV transition</desc>
			<v:userDefs>
				<v:ud v:nameU="msvThemeColors" v:val="VT0(254):26"/>
			</v:userDefs>
			<v:textBlock v:margins="rect(4,4,4,4)"/>
			<v:textRect cx="63" cy="402.932" width="126" height="27"/>
			<rect x="0" y="389.432" width="126" height="27" class="st4"/>
			<text x="4" y="406.53" class="st6" v:langID="1033"><v:paragraph/><v:tabList/>Bad tail FV transition</text>		</g>
		<g id="shape22-71" v:mID="22" v:groupContext="shape" v:layerMember="0"
				transform="translate(530.732,-116.894) rotate(-17.0022) scale(-1,1)">
			<title>Line-curve connector.22</title>
			<v:userDefs>
				<v:ud v:nameU="AntiScale" v:val="VT0(1):26"/>
				<v:ud v:nameU="Scale" v:val="VT0(1):26"/>
				<v:ud v:nameU="visVersion" v:val="VT0(14):26"/>
				<v:ud v:nameU="msvThemeColors" v:val="VT0(254):26"/>
			</v:userDefs>
			<path d="M5.43 415.88 L5.79 415.85 L15.55 415.35 L24.61 415.55 L32.98 416.43" class="st10"/>
		</g>
		<g id="shape23-76" v:mID="23" v:groupContext="shape" transform="translate(423.082,-64.164) rotate(0.940047)">
			<title>Sheet.23</title>
			<v:userDefs>
				<v:ud v:nameU="msvThemeColors" v:val="VT0(254):26"/>
			</v:userDefs>
			<path d="M0 416.43 C12.03 410.61 19.62 405.52 66.62 354.41 C80.89 338.89 98.78 319.14 111.92 310.96 C121.57 304.95 128.65
						 305.19 135.72 307.46 C151.62 312.58 167.44 328.04 179.3 341.77 C185.1 348.48 189.95 354.78 197.44 362.13
						 C201.02 365.64 205.2 369.39 207.68 369.37 C209.76 369.35 210.64 366.64 211.03 364.15 C211.38 361.95 211.34
						 359.91 211.46 358.24 C211.57 356.72 211.8 355.49 211.97 355.82 C212.43 356.72 212.44 369.5 216.39 378.51
						 C218.06 382.32 220.44 385.45 222.56 384.09 C224.69 382.72 226.57 376.82 227.67 375.34 C229.17 373.34 229.25
						 379.49 230.46 383.92 C232.04 389.7 235.54 392.53 240.24 397.01 C243.67 400.27 247.73 404.4 250.69 403.88
						 C253.2 403.43 254.91 399.61 255.85 396.75 C256.9 393.55 256.98 391.54 257.02 392.73 C257.06 394.55 256.99
						 403.89 262.18 410.55 C265.06 414.24 269.55 417.11 271.47 415.64 C273.41 414.17 272.75 408.3 274.29 416.43"
					class="st3"/>
		</g>
		<g id="shape14-79" v:mID="14" v:groupContext="shape" transform="translate(801.826,-54.3921) rotate(30)">
			<title>Ellipse.124</title>
			<v:userDefs>
				<v:ud v:nameU="visVersion" v:val="VT0(14):26"/>
				<v:ud v:nameU="msvThemeColors" v:val="VT0(254):26"/>
			</v:userDefs>
			<path d="M0 400.96 A49.3312 15.4755 0 1 1 98.66 400.96 A49.3312 15.4755 0 1 1 0 400.96 Z" class="st13"/>
		</g>
		<g id="shape17-81" v:mID="17" v:groupContext="shape" v:layerMember="0"
				transform="translate(-378.182,207.212) rotate(-90) scale(-1,1)">
			<title>Line-curve connector.17</title>
			<v:userDefs>
				<v:ud v:nameU="AntiScale" v:val="VT0(1):26"/>
				<v:ud v:nameU="Scale" v:val="VT0(1):26"/>
				<v:ud v:nameU="visVersion" v:val="VT0(14):26"/>
				<v:ud v:nameU="msvThemeColors" v:val="VT0(254):26"/>
			</v:userDefs>
			<path d="M11.7 416.43 L12.06 416.43 L153 416.43 L153 416.43" class="st1"/>
		</g>
		<g id="shape19-86" v:mID="19" v:groupContext="shape" v:layerMember="0" transform="translate(326.25,-56.22) scale(-1,1)">
			<title>Line-curve connector.19</title>
			<v:userDefs>
				<v:ud v:nameU="AntiScale" v:val="VT0(1):26"/>
				<v:ud v:nameU="Scale" v:val="VT0(1):26"/>
				<v:ud v:nameU="visVersion" v:val="VT0(14):26"/>
				<v:ud v:nameU="msvThemeColors" v:val="VT0(254):26"/>
			</v:userDefs>
			<path d="M11.7 416.43 L12.06 416.43 L288 416.43 L288 416.43" class="st1"/>
		</g>
		<g id="shape20-91" v:mID="20" v:groupContext="shape" transform="translate(47.25,-58.47)">
			<title>Sheet.20</title>
			<v:userDefs>
				<v:ud v:nameU="msvThemeColors" v:val="VT0(254):26"/>
			</v:userDefs>
			<path d="M0 416.43 C49.98 404.6 86.21 390.05 113.56 384.38 C123.06 382.4 131.49 381.5 147.97 384.92 C176.26 390.78 228.29
						 409.36 261 416.43" class="st3"/>
		</g>
		<g id="shape21-94" v:mID="21" v:groupContext="shape" transform="translate(-378.182,360.212) rotate(-90)">
			<title>Sheet.21</title>
			<desc>Focus Value</desc>
			<v:userDefs>
				<v:ud v:nameU="msvThemeColors" v:val="VT0(254):26"/>
			</v:userDefs>
			<v:textBlock v:margins="rect(4,4,4,4)"/>
			<v:textRect cx="70.875" cy="408.432" width="141.75" height="16"/>
			<rect x="0" y="400.432" width="141.75" height="16" class="st4"/>
			<text x="35.53" y="412.03" class="st5" v:langID="1033"><v:paragraph v:horizAlign="1"/><v:tabList/>Focus Value</text>		</g>
		<g id="shape24-97" v:mID="24" v:groupContext="shape" transform="translate(40.5,-40.22)">
			<title>Sheet.24</title>
			<desc>Lens Position</desc>
			<v:userDefs>
				<v:ud v:nameU="msvThemeColors" v:val="VT0(254):26"/>
			</v:userDefs>
			<v:textBlock v:margins="rect(4,4,4,4)"/>
			<v:textRect cx="136.125" cy="408.432" width="272.25" height="16"/>
			<rect x="0" y="400.432" width="272.25" height="16" class="st4"/>
			<text x="96.79" y="412.03" class="st5" v:langID="1033"><v:paragraph v:horizAlign="1"/><v:tabList/>Lens Position</text>		</g>
		<g id="shape25-100" v:mID="25" v:groupContext="shape" transform="translate(210.375,-123.72)">
			<title>Sheet.25</title>
			<desc>Contrast ratio is less than 1.05, hence the curve is very flat</desc>
			<v:userDefs>
				<v:ud v:nameU="msvThemeColors" v:val="VT0(254):26"/>
			</v:userDefs>
			<v:textBlock v:margins="rect(4,4,4,4)"/>
			<v:textRect cx="98.4375" cy="402.932" width="196.88" height="27"/>
			<rect x="0" y="389.432" width="196.875" height="27" class="st4"/>
			<text x="4" y="399.33" class="st6" v:langID="1033"><v:paragraph/><v:tabList/>Contrast ratio is less than 1.05, <tspan
						x="4" dy="1.2em" class="st7">hence the curve is very flat</tspan></text>		</g>
		<g id="shape27-104" v:mID="27" v:groupContext="shape" v:layerMember="0"
				transform="translate(-237.557,327.962) rotate(-90) scale(-1,1)">
			<title>Line-curve connector.27</title>
			<v:userDefs>
				<v:ud v:nameU="AntiScale" v:val="VT0(1):26"/>
				<v:ud v:nameU="Scale" v:val="VT0(1):26"/>
				<v:ud v:nameU="visVersion" v:val="VT0(14):26"/>
				<v:ud v:nameU="msvThemeColors" v:val="VT0(254):26"/>
			</v:userDefs>
			<path d="M6.68 416.43 L7.03 416.43 L18.46 416.43 L18.46 416.43" class="st8"/>
		</g>
		<g id="shape28-111" v:mID="28" v:groupContext="shape" v:layerMember="0"
				transform="translate(126.206,-87.9101) rotate(-22.3597) scale(-1,1)">
			<title>Line-curve connector.28</title>
			<v:userDefs>
				<v:ud v:nameU="AntiScale" v:val="VT0(1):26"/>
				<v:ud v:nameU="Scale" v:val="VT0(1):26"/>
				<v:ud v:nameU="visVersion" v:val="VT0(14):26"/>
				<v:ud v:nameU="msvThemeColors" v:val="VT0(254):26"/>
			</v:userDefs>
			<path d="M3.76 420.39 L4.01 420.65 L13.96 427.73 L25.84 432.24 L39.66 434.2 L55.43 433.6 L73.13 430.44 L92.77 424.71
						 L114.35 416.43" class="st10"/>
		</g>
		<g id="shape29-116" v:mID="29" v:groupContext="shape" transform="translate(40.25,-196.72)">
			<title>Sheet.29</title>
			<desc>Graph A (pass)</desc>
			<v:userDefs>
				<v:ud v:nameU="msvThemeColors" v:val="VT0(254):26"/>
			</v:userDefs>
			<v:textBlock v:margins="rect(4,4,4,4)"/>
			<v:textRect cx="136.125" cy="408.432" width="272.25" height="16"/>
			<rect x="0" y="400.432" width="272.25" height="16" class="st4"/>
			<text x="93.12" y="412.03" class="st5" v:langID="1033"><v:paragraph v:horizAlign="1"/><v:tabList/>Graph A (pass)</text>		</g>
		<g id="shape30-119" v:mID="30" v:groupContext="shape" transform="translate(38,-18.72)">
			<title>Sheet.30</title>
			<desc>Graph B (fail)</desc>
			<v:userDefs>
				<v:ud v:nameU="msvThemeColors" v:val="VT0(254):26"/>
			</v:userDefs>
			<v:textBlock v:margins="rect(4,4,4,4)"/>
			<v:textRect cx="136.125" cy="408.432" width="272.25" height="16"/>
			<rect x="0" y="400.432" width="272.25" height="16" class="st4"/>
			<text x="98.12" y="412.03" class="st5" v:langID="1033"><v:paragraph v:horizAlign="1"/><v:tabList/>Graph B (fail)</text>		</g>
		<g id="shape31-122" v:mID="31" v:groupContext="shape" transform="translate(413.75,-21.22)">
			<title>Sheet.31</title>
			<desc>Graph C (fail)</desc>
			<v:userDefs>
				<v:ud v:nameU="msvThemeColors" v:val="VT0(254):26"/>
			</v:userDefs>
			<v:textBlock v:margins="rect(4,4,4,4)"/>
			<v:textRect cx="136.125" cy="408.432" width="272.25" height="16"/>
			<rect x="0" y="400.432" width="272.25" height="16" class="st4"/>
			<text x="98.12" y="412.03" class="st5" v:langID="1033"><v:paragraph v:horizAlign="1"/><v:tabList/>Graph C (fail)</text>		</g>
	</g>
</svg>
