<?xml version="1.0" encoding="UTF-8" standalone="no"?>
<!DOCTYPE svg PUBLIC "-//W3C//DTD SVG 1.0//EN" "http://www.w3.org/TR/2001/REC-SVG-20010904/DTD/svg10.dtd">
<!-- Generated by Microsoft Visio 11.0, SVG Export, v1.0 af_example_monitor_algo_config_7.svg Page-1 -->
<svg xmlns="http://www.w3.org/2000/svg" xmlns:xlink="http://www.w3.org/1999/xlink" xmlns:ev="http://www.w3.org/2001/xml-events"
		xmlns:v="http://schemas.microsoft.com/visio/2003/SVGExtensions/" width="9.38194in" height="5.66931in"
		viewBox="0 0 675.5 408.19" xml:space="preserve" color-interpolation-filters="sRGB" class="st19">
	<v:documentProperties v:langID="1033" v:viewMarkup="false">
		<v:userDefs>
			<v:ud v:nameU="msvNoAutoConnect" v:val="VT0(0):26"/>
		</v:userDefs>
	</v:documentProperties>

	<style type="text/css">
	<![CDATA[
		.st1 {fill:#ffffff;stroke:none;stroke-linecap:round;stroke-linejoin:round;stroke-width:0.75}
		.st2 {stroke:#000000;stroke-linecap:round;stroke-linejoin:round;stroke-width:0.779242}
		.st3 {fill:#ffff00;stroke:none;stroke-linecap:round;stroke-linejoin:round;stroke-width:0.75}
		.st4 {stroke:#41719c;stroke-linecap:round;stroke-linejoin:round;stroke-width:0.779242}
		.st5 {fill:#d0cece;stroke:none;stroke-linecap:round;stroke-linejoin:round;stroke-width:0.75}
		.st6 {stroke:none;stroke-linecap:round;stroke-linejoin:round;stroke-width:0.75}
		.st7 {fill:#000000;font-family:Arial;font-size:1.00001em}
		.st8 {fill:url(#grad30-38);stroke:#41719c;stroke-linecap:round;stroke-linejoin:round;stroke-width:0.75}
		.st9 {font-size:1em}
		.st10 {fill:#000000;font-family:Arial;font-size:0.968513em;font-weight:bold}
		.st11 {fill:#000000;stroke:none;stroke-linecap:round;stroke-linejoin:round;stroke-width:0.75}
		.st12 {fill:url(#grad30-127);stroke:#404040;stroke-linecap:round;stroke-linejoin:round;stroke-width:0.25}
		.st13 {fill:#ffffff;font-family:Arial;font-size:1.24168em;font-weight:bold}
		.st14 {stroke:#404040;stroke-linecap:round;stroke-linejoin:round;stroke-width:0.25}
		.st15 {marker-end:url(#mrkr5-155);stroke:#595959;stroke-linecap:butt;stroke-width:3}
		.st16 {fill:#595959;fill-opacity:1;stroke:#595959;stroke-opacity:1;stroke-width:0.54347826086957}
		.st17 {visibility:visible}
		.st18 {stroke:#cdcdcd;stroke-linecap:round;stroke-linejoin:round;stroke-opacity:0.5;stroke-width:0.25}
		.st19 {fill:none;fill-rule:evenodd;font-size:12px;overflow:visible;stroke-linecap:square;stroke-miterlimit:3}
	]]>
	</style>

	<defs id="Patterns_And_Gradients">
		<linearGradient id="grad30-38" v:fillPattern="30" v:foreground="#c9c9c9" v:background="#d8d8d8" x1="0" y1="1" x2="0" y2="0">
			<stop offset="0" style="stop-color:#c9c9c9;stop-opacity:1"/>
			<stop offset="1" style="stop-color:#d8d8d8;stop-opacity:1"/>
		</linearGradient>
		<linearGradient id="grad30-127" v:fillPattern="30" v:foreground="#000000" v:background="#000000" x1="0" y1="1" x2="0"
				y2="0">
			<stop offset="0" style="stop-color:#000000;stop-opacity:1"/>
			<stop offset="1" style="stop-color:#000000;stop-opacity:1"/>
		</linearGradient>
		<linearGradient id="grad30-138" v:fillPattern="30" v:foreground="#f0f0f0" v:background="#ffffff" x1="0" y1="1" x2="0"
				y2="0">
			<stop offset="0" style="stop-color:#f0f0f0;stop-opacity:1"/>
			<stop offset="1" style="stop-color:#ffffff;stop-opacity:1"/>
		</linearGradient>
	</defs>
	<defs id="Markers">
		<g id="lend5">
			<path d="M 2 1 L 0 0 L 1.98117 -0.993387 C 1.67173 -0.364515 1.67301 0.372641 1.98465 1.00043 " style="stroke:none"/>
		</g>
		<marker id="mrkr5-155" class="st16" v:arrowType="5" v:arrowSize="2" v:setback="3.1" refX="-3.1" orient="auto"
				markerUnits="strokeWidth" overflow="visible">
			<use xlink:href="#lend5" transform="scale(-1.84,-1.84) "/>
		</marker>
	</defs>
	<g v:mID="4" v:index="1" v:groupContext="foregroundPage">
		<v:userDefs>
			<v:ud v:nameU="msvThemeColors" v:val="VT0(36):26"/>
			<v:ud v:nameU="msvThemeEffects" v:val="VT0(16):26"/>
			<v:ud v:nameU="msvThemeOrder" v:val="VT0(0):26"/>
		</v:userDefs>
		<title>Page-1</title>
		<v:pageProperties v:drawingScale="1" v:pageScale="1" v:drawingUnits="0" v:shadowOffsetX="9" v:shadowOffsetY="-9"/>
		<v:layer v:name="Connector" v:index="0"/>
		<v:layer v:name="Flowchart" v:index="1"/>
		<g id="shape3-1" v:mID="3" v:groupContext="shape" transform="translate(364.832,-18.3509)">
			<title>Sheet.3</title>
			<path d="M0 73.23 L0 408.19 L247.17 408.19 L247.17 73.23 L0 73.23 L0 73.23 Z" class="st1"/>
		</g>
		<g id="shape4-3" v:mID="4" v:groupContext="shape" transform="translate(364.832,-18.3509)">
			<title>Sheet.4</title>
			<path d="M0 73.23 L256.17 73.23 L256.17 408.19 L0 408.19 L0 73.23" class="st2"/>
		</g>
		<g id="shape5-6" v:mID="5" v:groupContext="shape" transform="translate(375.907,-101.693)">
			<title>Sheet.5</title>
			<path d="M0 385.74 L0 408.19 L236.09 408.19 L236.09 385.74 L0 385.74 L0 385.74 Z" class="st3"/>
		</g>
		<g id="shape6-8" v:mID="6" v:groupContext="shape" transform="translate(375.907,-101.693)">
			<title>Sheet.6</title>
			<path d="M0 385.74 L236.09 385.74 L236.09 408.19 L0 408.19 L0 385.74" class="st4"/>
		</g>
		<g id="shape7-11" v:mID="7" v:groupContext="shape" transform="translate(375.907,-29.1417)">
			<title>Sheet.7</title>
			<path d="M0 335.97 L0 408.19 L236.09 408.19 L236.09 335.97 L0 335.97 L0 335.97 Z" class="st5"/>
		</g>
		<g id="shape8-13" v:mID="8" v:groupContext="shape" transform="translate(375.907,-29.1417)">
			<title>Sheet.8</title>
			<path d="M0 335.97 L236.09 335.97 L236.09 408.19 L0 408.19 L0 335.97" class="st4"/>
		</g>
		<g id="shape9-16" v:mID="9" v:groupContext="shape" transform="translate(375.907,-207.087)">
			<title>Sheet.9</title>
			<path d="M0 385.64 L0 408.19 L236.09 408.19 L236.09 385.64 L0 385.64 L0 385.64 Z" class="st3"/>
		</g>
		<g id="shape10-18" v:mID="10" v:groupContext="shape" transform="translate(375.907,-207.087)">
			<title>Sheet.10</title>
			<path d="M0 385.64 L236.09 385.64 L236.09 408.19 L0 408.19 L0 385.64" class="st4"/>
		</g>
		<g id="shape11-21" v:mID="11" v:groupContext="shape" transform="translate(375.907,-132.09)">
			<title>Sheet.11</title>
			<path d="M0 333.19 L0 408.19 L236.09 408.19 L236.09 333.19 L0 333.19 L0 333.19 Z" class="st5"/>
		</g>
		<g id="shape12-23" v:mID="12" v:groupContext="shape" transform="translate(375.907,-132.09)">
			<title>Sheet.12</title>
			<path d="M0 333.19 L236.09 333.19 L236.09 408.19 L0 408.19 L0 333.19" class="st4"/>
		</g>
		<g id="shape13-26" v:mID="13" v:groupContext="shape" transform="translate(375.907,-308.211)">
			<title>Sheet.13</title>
			<path d="M0 385.74 L0 408.19 L236.09 408.19 L236.09 385.74 L0 385.74 L0 385.74 Z" class="st3"/>
		</g>
		<g id="shape14-28" v:mID="14" v:groupContext="shape" transform="translate(375.907,-308.211)">
			<title>Sheet.14</title>
			<path d="M0 385.74 L236.09 385.74 L236.09 408.19 L0 408.19 L0 385.74" class="st4"/>
		</g>
		<g id="shape17-31" v:mID="17" v:groupContext="shape" transform="translate(396,-308.211)">
			<title>Sheet.17</title>
			<desc>Sensitivity Profile Low</desc>
			<v:textBlock v:margins="rect(0,0,0,0)"/>
			<v:textRect cx="93.5927" cy="399.248" width="187.19" height="17.8842"/>
			<path d="M187.19 390.31 L0 390.31 L0 408.19 L187.19 408.19 L187.19 390.31" class="st6"/>
			<text x="0" y="402.85" class="st7" v:langID="1033"><v:paragraph/><v:tabList/>Sensitivity Profile Low</text>		</g>
		<g id="shape15-35" v:mID="15" v:groupContext="shape" transform="translate(375.828,-232.875)">
			<title>Sheet.15</title>
			<v:userDefs>
				<v:ud v:nameU="msvThemeColors" v:val="VT0(36):26"/>
				<v:ud v:nameU="msvThemeEffects" v:val="VT0(16):26"/>
			</v:userDefs>
			<path d="M0 333.19 L0 408.19 L236.09 408.19 L236.09 333.19 L0 333.19 L0 333.19 Z" class="st8"/>
		</g>
		<g id="shape18-39" v:mID="18" v:groupContext="shape" transform="translate(396,-285.688)">
			<title>Sheet.18</title>
			<desc>Trigger Threshold = 0.169300f</desc>
			<v:textBlock v:margins="rect(0,0,0,0)"/>
			<v:textRect cx="156.225" cy="399.248" width="312.45" height="17.8842"/>
			<path d="M312.45 390.31 L0 390.31 L0 408.19 L312.45 408.19 L312.45 390.31" class="st6"/>
			<text x="0" y="402.85" class="st7" v:langID="1033"><v:paragraph/><v:tabList/>Trigger Threshold  = 0.169300f            </text>		</g>
		<g id="shape19-43" v:mID="19" v:groupContext="shape" transform="translate(396,-267.808)">
			<title>Sheet.19</title>
			<desc>Consecutive Count Threshold = 1</desc>
			<v:textBlock v:margins="rect(0,0,0,0)"/>
			<v:textRect cx="166.139" cy="399.248" width="332.28" height="17.8842"/>
			<path d="M332.28 390.31 L0 390.31 L0 408.19 L332.28 408.19 L332.28 390.31" class="st6"/>
			<text x="0" y="402.85" class="st7" v:langID="1033"><v:paragraph/><v:tabList/>Consecutive Count Threshold = 1                                    </text>		</g>
		<g id="shape20-47" v:mID="20" v:groupContext="shape" transform="translate(396,-249.928)">
			<title>Sheet.20</title>
			<desc>Frame2Armed = 3</desc>
			<v:textBlock v:margins="rect(0,0,0,0)"/>
			<v:textRect cx="85.2226" cy="399.248" width="170.45" height="17.8842"/>
			<path d="M170.45 390.31 L0 390.31 L0 408.19 L170.45 408.19 L170.45 390.31" class="st6"/>
			<text x="0" y="402.85" class="st7" v:langID="1033"><v:paragraph/><v:tabList/>Frame2Armed = 3    </text>		</g>
		<g id="shape21-51" v:mID="21" v:groupContext="shape" transform="translate(396,-236.485)">
			<title>Sheet.21</title>
			<desc>…</desc>
			<v:textBlock v:margins="rect(0,0,0,0)"/>
			<v:textRect cx="9.79142" cy="399.248" width="19.59" height="17.8842"/>
			<path d="M19.58 390.31 L0 390.31 L0 408.19 L19.58 408.19 L19.58 390.31" class="st6"/>
			<text x="3.79" y="402.85" class="st7" v:langID="1033"><v:paragraph v:horizAlign="1"/><v:tabList/>… </text>		</g>
		<g id="shape23-55" v:mID="23" v:groupContext="shape" transform="translate(396,-182.366)">
			<title>Sheet.23</title>
			<desc>Trigger Threshold = 0.153900f</desc>
			<v:textBlock v:margins="rect(0,0,0,0)"/>
			<v:textRect cx="95.1068" cy="399.248" width="190.22" height="17.8842"/>
			<path d="M190.21 390.31 L0 390.31 L0 408.19 L190.21 408.19 L190.21 390.31" class="st6"/>
			<text x="0" y="402.85" class="st7" v:langID="1033"><v:paragraph/><v:tabList/>Trigger Threshold = 0.153900f  </text>		</g>
		<g id="shape26-59" v:mID="26" v:groupContext="shape" transform="translate(396,-165.603)">
			<title>Sheet.26</title>
			<desc>Consecutive Count Threshold = 1</desc>
			<v:textBlock v:margins="rect(0,0,0,0)"/>
			<v:textRect cx="157.722" cy="399.248" width="315.45" height="17.8842"/>
			<path d="M315.44 390.31 L0 390.31 L0 408.19 L315.44 408.19 L315.44 390.31" class="st6"/>
			<text x="0" y="402.85" class="st7" v:langID="1033"><v:paragraph/><v:tabList/>Consecutive Count Threshold = 1                          </text>		</g>
		<g id="shape27-63" v:mID="27" v:groupContext="shape" transform="translate(396,-146.605)">
			<title>Sheet.27</title>
			<desc>Frame2Armed = 3</desc>
			<v:textBlock v:margins="rect(0,0,0,0)"/>
			<v:textRect cx="71.8355" cy="399.248" width="143.68" height="17.8842"/>
			<path d="M143.67 390.31 L0 390.31 L0 408.19 L143.67 408.19 L143.67 390.31" class="st6"/>
			<text x="0" y="402.85" class="st7" v:langID="1033"><v:paragraph/><v:tabList/>Frame2Armed = 3  </text>		</g>
		<g id="shape29-67" v:mID="29" v:groupContext="shape" transform="translate(396,-134.122)">
			<title>Sheet.29</title>
			<desc>…</desc>
			<v:textBlock v:margins="rect(0,0,0,0)"/>
			<v:textRect cx="7.85443" cy="399.248" width="15.71" height="17.8842"/>
			<path d="M15.71 390.31 L0 390.31 L0 408.19 L15.71 408.19 L15.71 390.31" class="st6"/>
			<text x="0" y="402.85" class="st7" v:langID="1033"><v:paragraph/><v:tabList/>…</text>		</g>
		<g id="shape32-71" v:mID="32" v:groupContext="shape" transform="translate(396,-78.6882)">
			<title>Sheet.32</title>
			<desc>Trigger Threshold = 0.138600f</desc>
			<v:textBlock v:margins="rect(0,0,0,0)"/>
			<v:textRect cx="121.05" cy="399.248" width="242.11" height="17.8842"/>
			<path d="M242.1 390.31 L0 390.31 L0 408.19 L242.1 408.19 L242.1 390.31" class="st6"/>
			<text x="0" y="402.85" class="st7" v:langID="1033"><v:paragraph/><v:tabList/>Trigger Threshold = 0.138600f                                    </text>		</g>
		<g id="shape33-75" v:mID="33" v:groupContext="shape" transform="translate(396,-60.8079)">
			<title>Sheet.33</title>
			<desc>Consecutive Count Threshold = 3</desc>
			<v:textBlock v:margins="rect(0,0,0,0)"/>
			<v:textRect cx="166.139" cy="399.248" width="332.28" height="17.8842"/>
			<path d="M332.28 390.31 L0 390.31 L0 408.19 L332.28 408.19 L332.28 390.31" class="st6"/>
			<text x="0" y="402.85" class="st7" v:langID="1033"><v:paragraph/><v:tabList/>Consecutive Count Threshold = 3                                    </text>		</g>
		<g id="shape34-79" v:mID="34" v:groupContext="shape" transform="translate(396,-42.9276)">
			<title>Sheet.34</title>
			<desc>Frame2Armed = 3</desc>
			<v:textBlock v:margins="rect(0,0,0,0)"/>
			<v:textRect cx="65.8568" cy="399.248" width="131.72" height="17.8842"/>
			<path d="M131.71 390.31 L0 390.31 L0 408.19 L131.71 408.19 L131.71 390.31" class="st6"/>
			<text x="0" y="402.85" class="st7" v:langID="1033"><v:paragraph/><v:tabList/>Frame2Armed = 3 </text>		</g>
		<g id="shape36-83" v:mID="36" v:groupContext="shape" transform="translate(396,-29.6318)">
			<title>Sheet.36</title>
			<desc>…</desc>
			<v:textBlock v:margins="rect(0,0,0,0)"/>
			<v:textRect cx="7.85443" cy="399.248" width="15.71" height="17.8842"/>
			<path d="M15.71 390.31 L0 390.31 L0 408.19 L15.71 408.19 L15.71 390.31" class="st6"/>
			<text x="1.85" y="402.85" class="st7" v:langID="1033"><v:paragraph v:horizAlign="1"/><v:tabList/>…</text>		</g>
		<g id="shape38-87" v:mID="38" v:groupContext="shape" transform="translate(390.179,-333.116)">
			<title>Sheet.38</title>
			<desc>VM Set Type = Gyro</desc>
			<v:textBlock v:margins="rect(0,0,0,0)"/>
			<v:textRect cx="102.736" cy="399.248" width="205.48" height="17.8842"/>
			<path d="M205.47 390.31 L0 390.31 L0 408.19 L205.47 408.19 L205.47 390.31" class="st6"/>
			<text x="48.22" y="402.85" class="st7" v:langID="1033"><v:paragraph v:horizAlign="1"/><v:tabList/>VM Set Type = Gyro  </text>		</g>
		<g id="shape40-91" v:mID="40" v:groupContext="shape" transform="translate(77.2945,-319.5)">
			<title>Sheet.40</title>
			<desc>Topo CAF Gyro = 50</desc>
			<v:textBlock v:margins="rect(0,0,0,0)"/>
			<v:textRect cx="37.8528" cy="399.248" width="75.71" height="17.8842"/>
			<path d="M75.71 390.31 L0 390.31 L0 408.19 L75.71 408.19 L75.71 390.31" class="st6"/>
			<text x="0" y="395.65" class="st7" v:langID="1033"><v:paragraph/><v:tabList/>Topo CAF<v:newlineChar/><tspan x="0"
						dy="1.2em" class="st9">Gyro </tspan>= 50</text>		</g>
		<g id="shape52-96" v:mID="52" v:groupContext="shape" transform="translate(36,-355.05)">
			<title>Sheet.52</title>
			<desc>Example monitor algo config</desc>
			<v:textBlock v:margins="rect(0,0,0,0)"/>
			<v:textRect cx="93.5704" cy="401.215" width="187.15" height="13.9502"/>
			<path d="M187.14 394.24 L0 394.24 L0 408.19 L187.14 408.19 L187.14 394.24" class="st6"/>
			<text x="13.82" y="404.7" class="st10" v:langID="1033"><v:paragraph v:horizAlign="1"/><v:tabList/>Example monitor algo config</text>		</g>
		<g id="shape56-100" v:mID="56" v:groupContext="shape" transform="translate(158.193,-97.8189)">
			<title>Sheet.56</title>
			<path d="M9.38 388.62 C4.26 388.62 -0 393.05 0 398.44 C0 403.77 4.26 408.19 9.38 408.19 C14.56 408.19 18.81 403.77 18.81
						 398.44 C18.81 393.05 14.56 388.62 9.38 388.62 ZM15.32 404.56 C13.81 406.14 11.71 407.17 9.38 407.17 C7.11
						 407.17 5.01 406.14 3.5 404.56 C1.98 402.99 1.05 400.8 1.05 398.44 C1.05 396.02 1.98 393.84 3.5 392.26 C5.01
						 390.68 7.11 389.71 9.38 389.71 C11.71 389.71 13.81 390.68 15.32 392.26 C16.84 393.84 17.77 396.02 17.77
						 398.44 C17.77 400.8 16.84 402.99 15.32 404.56 Z" class="st11"/>
		</g>
		<g id="shape57-102" v:mID="57" v:groupContext="shape" transform="translate(148.932,-95.0375)">
			<title>Sheet.57</title>
			<path d="M31.82 383.06 C27.06 383.06 27.06 383.06 27.06 383.06 C26.77 380.28 24.62 378.09 21.95 378.09 C15.4 378.09 15.4
						 378.09 15.4 378.09 C12.72 378.09 10.57 380.28 10.29 383.06 C9.42 383.06 9.42 383.06 9.42 383.06 C9.42 382.87
						 9.42 382.64 9.42 382.33 C9.42 381.9 9.24 381.54 8.95 381.25 C8.65 381 8.31 380.87 7.9 380.87 C6.1 380.87
						 6.1 380.87 6.1 380.87 C5.69 380.87 5.29 381 5.06 381.25 C4.76 381.54 4.59 381.9 4.59 382.33 C4.59 382.69
						 4.59 383 4.59 383.17 C1.98 383.59 0 385.95 0 388.79 C0 402.52 0 402.52 0 402.52 C0 405.66 2.51 408.19 5.53
						 408.19 C31.82 408.19 31.82 408.19 31.82 408.19 C34.9 408.19 37.33 405.66 37.33 402.52 C37.33 388.79 37.33
						 388.79 37.33 388.79 C37.33 385.65 34.9 383.06 31.82 383.06 ZM5.69 382.03 C5.81 381.97 5.93 381.9 6.1 381.9
						 C7.9 381.9 7.9 381.9 7.9 381.9 C8.08 381.9 8.19 381.97 8.25 382.03 C8.37 382.15 8.43 382.2 8.43 382.33 C8.43
						 382.64 8.43 382.87 8.43 383.06 C5.57 383.06 5.57 383.06 5.57 383.06 C5.57 382.87 5.57 382.64 5.57 382.33
						 C5.57 382.2 5.63 382.15 5.69 382.03 ZM36.35 402.52 C36.35 403.78 35.83 404.94 35.02 405.78 C34.2 406.63
						 33.09 407.17 31.82 407.17 C5.53 407.17 5.53 407.17 5.53 407.17 C4.3 407.17 3.14 406.63 2.33 405.78 C1.52
						 404.94 0.99 403.78 0.99 402.52 C0.99 388.79 0.99 388.79 0.99 388.79 C0.99 387.53 1.52 386.31 2.33 385.47
						 C3.14 384.62 4.3 384.08 5.53 384.08 C11.15 384.08 11.15 384.08 11.15 384.08 C11.21 383.59 11.21 383.59 11.21
						 383.59 C11.27 381.12 13.13 379.18 15.4 379.18 C21.95 379.18 21.95 379.18 21.95 379.18 C24.21 379.18 26.08
						 381.12 26.14 383.59 C26.14 384.08 26.14 384.08 26.14 384.08 C31.82 384.08 31.82 384.08 31.82 384.08 C33.09
						 384.08 34.2 384.62 35.02 385.47 C35.83 386.31 36.35 387.53 36.35 388.79 L36.35 402.52 Z" class="st11"/>
		</g>
		<g id="shape58-104" v:mID="58" v:groupContext="shape" transform="translate(162.012,-101.693)">
			<title>Sheet.58</title>
			<path d="M0 402.33 C-0 399.1 2.51 396.47 5.59 396.47 C8.68 396.47 11.17 399.1 11.17 402.33 C11.17 405.57 8.68 408.19
						 5.59 408.19 C2.51 408.19 -0 405.57 0 402.33 Z" class="st11"/>
		</g>
		<g id="shape59-106" v:mID="59" v:groupContext="shape" transform="translate(184.353,-80.634)">
			<title>Sheet.59</title>
			<path d="M0.58 408.19 C-0 407.28 0 407.28 0 407.28 C8.33 401.47 13.28 391.79 13.28 381.37 C13.28 370.96 8.33 361.28 0
						 355.47 C0.58 354.55 0.58 354.55 0.58 354.55 C9.2 360.61 14.32 370.6 14.32 381.37 C14.32 392.15 9.2 402.14
						 0.58 408.19 Z" class="st11"/>
		</g>
		<g id="shape60-108" v:mID="60" v:groupContext="shape" transform="translate(137.093,-82.5213)">
			<title>Sheet.60</title>
			<path d="M11.19 408.19 C4.08 402.02 -0 392.94 0 383.32 C0 371.93 5.6 361.58 14.99 355.64 C15.56 356.56 15.56 356.56 15.56
						 356.56 C6.48 362.31 1.05 372.29 1.05 383.32 C1.05 392.63 5.01 401.36 11.9 407.35 L11.19 408.19 Z"
					class="st11"/>
		</g>
		<g id="shape61-110" v:mID="61" v:groupContext="shape" transform="translate(128.214,-70.8991)">
			<title>Sheet.61</title>
			<path d="M20.59 408.19 C10.5 402.38 3.31 392.31 0.87 380.55 C0.3 377.64 0 374.68 0 371.63 C1.05 371.63 1.05 371.63 1.05
						 371.63 C1.05 374.55 1.34 377.52 1.92 380.38 C4.3 391.76 11.31 401.52 21.1 407.22 L20.59 408.19 Z"
					class="st11"/>
		</g>
		<g id="shape62-112" v:mID="62" v:groupContext="shape" transform="translate(174.519,-66.3297)">
			<title>Sheet.62</title>
			<path d="M0.18 408.19 C0 407.11 0 407.11 0 407.11 C14.25 404.49 25.87 393.89 30.29 379.44 C31.51 375.45 32.09 371.31
						 32.09 367.07 C33.13 367.07 33.13 367.07 33.13 367.07 C33.13 371.44 32.5 375.68 31.28 379.81 C26.75 394.61
						 14.82 405.47 0.18 408.19 Z" class="st11"/>
		</g>
		<g id="shape63-114" v:mID="63" v:groupContext="shape" transform="translate(132.797,-126.328)">
			<title>Sheet.63</title>
			<path d="M0.93 408.19 C0 407.64 0 407.64 0 407.64 C6.98 393.91 20.54 385.34 35.42 385.34 C35.42 386.45 35.42 386.45 35.42
						 386.45 C20.94 386.45 7.75 394.77 0.93 408.19 Z" class="st11"/>
		</g>
		<g id="shape64-116" v:mID="64" v:groupContext="shape" transform="translate(166.977,-145.4)">
			<title>Sheet.64</title>
			<path d="M0 408.19 L5.25 405.56 L0.69 401.83 L0 408.19 L0 408.19 ZM1.62 404.07 L3.13 405.31 L1.4 406.22 L1.62 404.07
						 L1.62 404.07 Z" class="st11"/>
		</g>
		<g id="shape65-118" v:mID="65" v:groupContext="shape" transform="translate(169.746,-63.5483)">
			<title>Sheet.65</title>
			<path d="M4.54 401.83 L0 405.68 L5.35 408.19 L4.54 401.83 L4.54 401.83 ZM3.97 406.29 L2.17 405.45 L3.68 404.13 L3.97
						 406.29 L3.97 406.29 Z" class="st11"/>
		</g>
		<g id="shape66-120" v:mID="66" v:groupContext="shape" transform="translate(181.489,-131.295)">
			<title>Sheet.66</title>
			<path d="M5.82 403.48 L0 402.33 L1.53 408.19 L5.82 403.48 L5.82 403.48 ZM2.12 405.84 L1.58 403.84 L3.53 404.25 L2.12
						 405.84 L2.12 405.84 Z" class="st11"/>
		</g>
		<g id="shape67-122" v:mID="67" v:groupContext="shape" transform="translate(146.45,-79.8393)">
			<title>Sheet.67</title>
			<path d="M0 407.08 L5.73 408.19 L4.17 402.23 L0 407.08 L0 407.08 ZM3.65 404.65 L4.17 406.64 L2.26 406.28 L3.65 404.65
						 L3.65 404.65 Z" class="st11"/>
		</g>
		<g id="shape2-124" v:mID="2" v:groupContext="shape" transform="translate(20.25,-312.75)">
			<title>Sheet.2</title>
			<v:userDefs>
				<v:ud v:nameU="msvThemeColors" v:val="VT0(36):26"/>
				<v:ud v:nameU="msvThemeEffects" v:val="VT0(16):26"/>
			</v:userDefs>
			<ellipse cx="11.25" cy="396.94" rx="11.25" ry="11.25" class="st12"/>
		</g>
		<g id="shape46-128" v:mID="46" v:groupContext="shape" transform="translate(24.3528,-314.409)">
			<title>Sheet.46</title>
			<desc>1</desc>
			<v:textBlock v:margins="rect(0,0,0,0)"/>
			<v:textRect cx="7.14723" cy="399.248" width="14.3" height="17.8838"/>
			<path d="M14.29 390.31 L0 390.31 L0 408.19 L14.29 408.19 L14.29 390.31" class="st6"/>
			<text x="3" y="403.72" class="st13" v:langID="1033"><v:paragraph v:horizAlign="1"/><v:tabList/>1</text>		</g>
		<g id="shape1-132" v:mID="1" v:groupContext="shape" transform="translate(207,-123.75)">
			<title>Sheet.1</title>
			<v:userDefs>
				<v:ud v:nameU="msvThemeColors" v:val="VT0(36):26"/>
				<v:ud v:nameU="msvThemeEffects" v:val="VT0(16):26"/>
			</v:userDefs>
			<ellipse cx="11.25" cy="396.94" rx="11.25" ry="11.25" class="st12"/>
		</g>
		<g id="shape41-135" v:mID="41" v:groupContext="shape" transform="translate(211.5,-124.991)">
			<title>Sheet.41</title>
			<desc>3</desc>
			<v:userDefs>
				<v:ud v:nameU="msvThemeColors" v:val="VT0(36):26"/>
				<v:ud v:nameU="msvThemeEffects" v:val="VT0(16):26"/>
			</v:userDefs>
			<v:textBlock v:margins="rect(0,0,0,0)"/>
			<v:textRect cx="7.14723" cy="399.248" width="14.3" height="17.8838"/>
			<path d="M14.29 390.31 L0 390.31 L0 408.19 L14.29 408.19 L14.29 390.31" class="st14"/>
			<text x="3" y="403.72" class="st13" v:langID="1033"><v:paragraph v:horizAlign="1"/><v:tabList/>3</text>		</g>
		<g id="shape42-141" v:mID="42" v:groupContext="shape" transform="translate(343.446,-186.75)">
			<title>Sheet.42</title>
			<v:userDefs>
				<v:ud v:nameU="msvThemeColors" v:val="VT0(36):26"/>
				<v:ud v:nameU="msvThemeEffects" v:val="VT0(16):26"/>
			</v:userDefs>
			<ellipse cx="11.25" cy="396.94" rx="11.25" ry="11.25" class="st12"/>
		</g>
		<g id="shape44-144" v:mID="44" v:groupContext="shape" transform="translate(347.946,-187.991)">
			<title>Sheet.44</title>
			<desc>2</desc>
			<v:userDefs>
				<v:ud v:nameU="msvThemeColors" v:val="VT0(36):26"/>
				<v:ud v:nameU="msvThemeEffects" v:val="VT0(16):26"/>
			</v:userDefs>
			<v:textBlock v:margins="rect(0,0,0,0)"/>
			<v:textRect cx="7.14723" cy="399.248" width="14.3" height="17.8838"/>
			<path d="M14.29 390.31 L0 390.31 L0 408.19 L14.29 408.19 L14.29 390.31" class="st14"/>
			<text x="3" y="403.72" class="st13" v:langID="1033"><v:paragraph v:horizAlign="1"/><v:tabList/>2</text>		</g>
		<g id="shape24-149" v:mID="24" v:groupContext="shape" transform="translate(279.597,-229.527) rotate(27.6884)">
			<title>Sheet.24</title>
			<v:userDefs>
				<v:ud v:nameU="msvThemeColors" v:val="VT0(36):26"/>
				<v:ud v:nameU="msvThemeEffects" v:val="VT0(16):26"/>
			</v:userDefs>
			<path d="M0 364.45 A227.25 119.25 -27.69 0 0 248.03 368.84 L248.36 368.68" class="st15"/>
		</g>
		<g id="shape25-156" v:mID="25" v:groupContext="shape" transform="translate(515.941,596.069) rotate(155.821)">
			<title>Sheet.25</title>
			<v:userDefs>
				<v:ud v:nameU="msvThemeColors" v:val="VT0(36):26"/>
				<v:ud v:nameU="msvThemeEffects" v:val="VT0(16):26"/>
			</v:userDefs>
			<path d="M0 408.19 A106.392 54.3829 26.17 0 1 112.13 404.04 L112.45 404.2" class="st15"/>
		</g>
		<g id="shape22-162" v:mID="22" v:groupContext="shape" transform="translate(388.815,-209.42)">
			<title>Sheet.22</title>
			<desc>Sensitivity Profile Med</desc>
			<v:userDefs>
				<v:ud v:nameU="msvThemeColors" v:val="VT0(36):26"/>
				<v:ud v:nameU="msvThemeEffects" v:val="VT0(16):26"/>
			</v:userDefs>
			<v:textBlock v:margins="rect(0,0,0,0)"/>
			<v:textRect cx="93.5927" cy="399.248" width="187.19" height="17.8842"/>
			<g id="shadow22-163" v:groupContext="shadow" v:shadowOffsetX="1.44" v:shadowOffsetY="-1.44" v:shadowType="1"
					transform="matrix(1,0,0,1,1.44,1.44)" class="st17">
				<path d="M187.19 390.31 L0 390.31 L0 408.19 L187.19 408.19 L187.19 390.31" class="st18"/>
			</g>
			<path d="M187.19 390.31 L0 390.31 L0 408.19 L187.19 408.19 L187.19 390.31" class="st14"/>
			<text x="0" y="402.85" class="st7" v:langID="1033"><v:paragraph/><v:tabList/>Sensitivity Profile Med</text>		</g>
		<g id="shape30-170" v:mID="30" v:groupContext="shape" transform="translate(387,-103.976)">
			<title>Sheet.30</title>
			<desc>Sensitivity Profile High</desc>
			<v:userDefs>
				<v:ud v:nameU="msvThemeColors" v:val="VT0(36):26"/>
				<v:ud v:nameU="msvThemeEffects" v:val="VT0(16):26"/>
			</v:userDefs>
			<v:textBlock v:margins="rect(0,0,0,0)"/>
			<v:textRect cx="93.5927" cy="399.248" width="187.19" height="17.8842"/>
			<g id="shadow30-171" v:groupContext="shadow" v:shadowOffsetX="1.44" v:shadowOffsetY="-1.44" v:shadowType="1"
					transform="matrix(1,0,0,1,1.44,1.44)" class="st17">
				<path d="M187.19 390.31 L0 390.31 L0 408.19 L187.19 408.19 L187.19 390.31" class="st18"/>
			</g>
			<path d="M187.19 390.31 L0 390.31 L0 408.19 L187.19 408.19 L187.19 390.31" class="st14"/>
			<text x="0" y="402.85" class="st7" v:langID="1033"><v:paragraph/><v:tabList/>Sensitivity Profile High</text>		</g>
	</g>
</svg>
