<?xml version="1.0" encoding="UTF-8" standalone="no"?>
<!DOCTYPE svg PUBLIC "-//W3C//DTD SVG 1.1//EN" "http://www.w3.org/Graphics/SVG/1.1/DTD/svg11.dtd">
<!-- Generated by Microsoft Visio, SVG Export ModeTree.svg Page-1 -->
<svg xmlns="http://www.w3.org/2000/svg" xmlns:xlink="http://www.w3.org/1999/xlink" xmlns:ev="http://www.w3.org/2001/xml-events"
		xmlns:v="http://schemas.microsoft.com/visio/2003/SVGExtensions/" width="8.37153in" height="5.3458in"
		viewBox="0 0 602.75 384.898" xml:space="preserve" color-interpolation-filters="sRGB" class="st12">
	<v:documentProperties v:langID="1033" v:viewMarkup="false">
		<v:userDefs>
			<v:ud v:nameU="msvNoAutoConnect" v:val="VT0(1):26"/>
		</v:userDefs>
	</v:documentProperties>

	<style type="text/css">
	<![CDATA[
		.st1 {fill:none;stroke:none;stroke-linecap:round;stroke-linejoin:round;stroke-width:0.75}
		.st2 {fill:#000000;font-family:Calibri;font-size:1.00001em}
		.st3 {fill:#ffffff;stroke:#262626;stroke-linecap:round;stroke-linejoin:round;stroke-width:0.75}
		.st4 {fill:#3f3f3f;font-family:Calibri;font-size:1.00001em}
		.st5 {marker-end:url(#mrkr13-63);stroke:#262626;stroke-linecap:round;stroke-linejoin:round;stroke-width:0.75}
		.st6 {fill:#262626;fill-opacity:1;stroke:#262626;stroke-opacity:1;stroke-width:0.22935779816514}
		.st7 {fill:#3f3f3f;font-family:Symbol;font-size:1.00001em}
		.st8 {font-family:Calibri;font-size:1em}
		.st9 {stroke:#000000;stroke-dasharray:5.25,3.75;stroke-linecap:round;stroke-linejoin:round;stroke-width:0.75}
		.st10 {marker-end:url(#mrkr13-63);stroke:#262626;stroke-dasharray:14.25,3.75,5.25,3.75;stroke-linecap:round;stroke-linejoin:round;stroke-width:0.75}
		.st11 {fill:#000000;font-family:Calibri;font-size:0.75em}
		.st12 {fill:none;fill-rule:evenodd;font-size:12px;overflow:visible;stroke-linecap:square;stroke-miterlimit:3}
	]]>
	</style>

	<defs id="Markers">
		<g id="lend13">
			<path d="M 3 1 L 0 0 L 3 -1 L 3 1 " style="stroke:none"/>
		</g>
		<marker id="mrkr13-63" class="st6" v:arrowType="13" v:arrowSize="2" v:setback="13.08" refX="-13.08" orient="auto"
				markerUnits="strokeWidth" overflow="visible">
			<use xlink:href="#lend13" transform="scale(-4.36,-4.36) "/>
		</marker>
	</defs>
	<g v:mID="0" v:index="1" v:groupContext="foregroundPage">
		<title>Page-1</title>
		<v:pageProperties v:drawingScale="1" v:pageScale="1" v:drawingUnits="19" v:shadowOffsetX="9" v:shadowOffsetY="-9"/>
		<v:layer v:name="Connector" v:index="0"/>
		<g id="shape1-1" v:mID="1" v:groupContext="shape" transform="translate(18.375,-344.625)">
			<title>Sheet.1</title>
			<desc>Default</desc>
			<v:textBlock v:margins="rect(4,4,4,4)"/>
			<v:textRect cx="29.25" cy="374.898" width="58.5" height="20"/>
			<rect x="0" y="364.898" width="58.5" height="20" class="st1"/>
			<text x="11.33" y="378.5" class="st2" v:langID="1033"><v:paragraph v:horizAlign="1"/><v:tabList/>Default</text>		</g>
		<g id="shape2-4" v:mID="2" v:groupContext="shape" transform="translate(18.375,-289.625)">
			<title>Sheet.2</title>
			<desc>Sensor</desc>
			<v:textBlock v:margins="rect(4,4,4,4)"/>
			<v:textRect cx="29.25" cy="374.898" width="58.5" height="20"/>
			<rect x="0" y="364.898" width="58.5" height="20" class="st1"/>
			<text x="12.75" y="378.5" class="st2" v:langID="1033"><v:paragraph v:horizAlign="1"/><v:tabList/>Sensor</text>		</g>
		<g id="shape3-7" v:mID="3" v:groupContext="shape" transform="translate(18.375,-240.125)">
			<title>Sheet.3</title>
			<desc>Usecase</desc>
			<v:textBlock v:margins="rect(4,4,4,4)"/>
			<v:textRect cx="29.25" cy="374.898" width="58.5" height="20"/>
			<rect x="0" y="364.898" width="58.5" height="20" class="st1"/>
			<text x="9.33" y="378.5" class="st2" v:langID="1033"><v:paragraph v:horizAlign="1"/><v:tabList/>Usecase</text>		</g>
		<g id="shape4-10" v:mID="4" v:groupContext="shape" transform="translate(18.375,-186.125)">
			<title>Sheet.4</title>
			<desc>Feature1</desc>
			<v:textBlock v:margins="rect(4,4,4,4)"/>
			<v:textRect cx="29.25" cy="374.898" width="58.5" height="20"/>
			<rect x="0" y="364.898" width="58.5" height="20" class="st1"/>
			<text x="7.35" y="378.5" class="st2" v:langID="1033"><v:paragraph v:horizAlign="1"/><v:tabList/>Feature1</text>		</g>
		<g id="shape5-13" v:mID="5" v:groupContext="shape" transform="translate(18.375,-133.125)">
			<title>Sheet.5</title>
			<desc>Feature2</desc>
			<v:textBlock v:margins="rect(4,4,4,4)"/>
			<v:textRect cx="29.25" cy="374.898" width="58.5" height="20"/>
			<rect x="0" y="364.898" width="58.5" height="20" class="st1"/>
			<text x="7.35" y="378.5" class="st2" v:langID="1033"><v:paragraph v:horizAlign="1"/><v:tabList/>Feature2</text>		</g>
		<g id="shape6-16" v:mID="6" v:groupContext="shape" transform="translate(18.375,-81.625)">
			<title>Sheet.6</title>
			<desc>Scene</desc>
			<v:textBlock v:margins="rect(4,4,4,4)"/>
			<v:textRect cx="24.25" cy="374.898" width="48.5" height="20"/>
			<rect x="0" y="364.898" width="48.5" height="20" class="st1"/>
			<text x="9.83" y="378.5" class="st2" v:langID="1033"><v:paragraph v:horizAlign="1"/><v:tabList/>Scene</text>		</g>
		<g id="shape7-19" v:mID="7" v:groupContext="shape" transform="translate(18.375,-18.375)">
			<title>Sheet.7</title>
			<desc>Effect</desc>
			<v:textBlock v:margins="rect(4,4,4,4)"/>
			<v:textRect cx="24.25" cy="374.898" width="48.5" height="20"/>
			<rect x="0" y="364.898" width="48.5" height="20" class="st1"/>
			<text x="10.13" y="378.5" class="st2" v:langID="1033"><v:paragraph v:horizAlign="1"/><v:tabList/>Effect</text>		</g>
		<g id="shape8-22" v:mID="8" v:groupContext="shape" transform="translate(208.625,-341.102)">
			<title>Sheet.8</title>
			<desc>Default</desc>
			<v:textBlock v:margins="rect(4,4,4,4)"/>
			<v:textRect cx="40.5" cy="372" width="81" height="25.795"/>
			<rect x="0" y="359.102" width="81" height="25.795" class="st3"/>
			<text x="22.58" y="375.6" class="st4" v:langID="1033"><v:paragraph v:horizAlign="1"/><v:tabList/>Default</text>		</g>
		<g id="shape9-25" v:mID="9" v:groupContext="shape" transform="translate(208.625,-287.102)">
			<title>Sheet.9</title>
			<desc>Sensor 0</desc>
			<v:textBlock v:margins="rect(4,4,4,4)"/>
			<v:textRect cx="40.5" cy="372" width="81" height="25.795"/>
			<rect x="0" y="359.102" width="81" height="25.795" class="st3"/>
			<text x="19.61" y="375.6" class="st4" v:langID="1033"><v:paragraph v:horizAlign="1"/><v:tabList/>Sensor 0</text>		</g>
		<g id="shape10-28" v:mID="10" v:groupContext="shape" transform="translate(352.625,-287.102)">
			<title>Sheet.10</title>
			<desc>Sensor 15</desc>
			<v:textBlock v:margins="rect(4,4,4,4)"/>
			<v:textRect cx="40.5" cy="372" width="81" height="25.795"/>
			<rect x="0" y="359.102" width="81" height="25.795" class="st3"/>
			<text x="16.56" y="375.6" class="st4" v:langID="1033"><v:paragraph v:horizAlign="1"/><v:tabList/>Sensor 15</text>		</g>
		<g id="shape11-31" v:mID="11" v:groupContext="shape" transform="translate(154.625,-237)">
			<title>Sheet.11</title>
			<desc>Snapshot</desc>
			<v:textBlock v:margins="rect(4,4,4,4)"/>
			<v:textRect cx="40.5" cy="371.398" width="81" height="27"/>
			<rect x="0" y="357.898" width="81" height="27" class="st3"/>
			<text x="17.89" y="375" class="st4" v:langID="1033"><v:paragraph v:horizAlign="1"/><v:tabList/>Snapshot</text>		</g>
		<g id="shape12-34" v:mID="12" v:groupContext="shape" transform="translate(441,-236.83)">
			<title>Sheet.12</title>
			<desc>Video</desc>
			<v:textBlock v:margins="rect(4,4,4,4)"/>
			<v:textRect cx="40.5" cy="371.398" width="81" height="27"/>
			<rect x="0" y="357.898" width="81" height="27" class="st3"/>
			<text x="26.42" y="375" class="st4" v:langID="1033"><v:paragraph v:horizAlign="1"/><v:tabList/>Video</text>		</g>
		<g id="shape13-37" v:mID="13" v:groupContext="shape" transform="translate(272.25,-237.205)">
			<title>Sheet.13</title>
			<desc>Preview</desc>
			<v:textBlock v:margins="rect(4,4,4,4)"/>
			<v:textRect cx="40.5" cy="371.398" width="81" height="27"/>
			<rect x="0" y="357.898" width="81" height="27" class="st3"/>
			<text x="20.96" y="375" class="st4" v:langID="1033"><v:paragraph v:horizAlign="1"/><v:tabList/>Preview</text>		</g>
		<g id="shape14-40" v:mID="14" v:groupContext="shape" transform="translate(225.313,-184.875)">
			<title>Sheet.14</title>
			<desc>None</desc>
			<v:textBlock v:margins="rect(4,4,4,4)"/>
			<v:textRect cx="40.5" cy="371.398" width="81" height="27"/>
			<rect x="0" y="357.898" width="81" height="27" class="st3"/>
			<text x="27.33" y="375" class="st4" v:langID="1033"><v:paragraph v:horizAlign="1"/><v:tabList/>None</text>		</g>
		<g id="shape16-43" v:mID="16" v:groupContext="shape" transform="translate(93.875,-132.75)">
			<title>Sheet.16</title>
			<desc>MFNR</desc>
			<v:textBlock v:margins="rect(4,4,4,4)"/>
			<v:textRect cx="40.5" cy="371.398" width="81" height="27"/>
			<rect x="0" y="357.898" width="81" height="27" class="st3"/>
			<text x="25.48" y="375" class="st4" v:langID="1033"><v:paragraph v:horizAlign="1"/><v:tabList/>MFNR</text>		</g>
		<g id="shape17-46" v:mID="17" v:groupContext="shape" transform="translate(135,-18)">
			<title>Sheet.17</title>
			<desc>Mono</desc>
			<v:textBlock v:margins="rect(4,4,4,4)"/>
			<v:textRect cx="40.5" cy="371.398" width="81" height="27"/>
			<rect x="0" y="357.898" width="81" height="27" class="st3"/>
			<text x="25.89" y="375" class="st4" v:langID="1033"><v:paragraph v:horizAlign="1"/><v:tabList/>Mono</text>		</g>
		<g id="shape18-49" v:mID="18" v:groupContext="shape" transform="translate(225.313,-132.75)">
			<title>Sheet.18</title>
			<desc>None</desc>
			<v:textBlock v:margins="rect(4,4,4,4)"/>
			<v:textRect cx="40.5" cy="371.398" width="81" height="27"/>
			<rect x="0" y="357.898" width="81" height="27" class="st3"/>
			<text x="27.33" y="375" class="st4" v:langID="1033"><v:paragraph v:horizAlign="1"/><v:tabList/>None</text>		</g>
		<g id="shape19-52" v:mID="19" v:groupContext="shape" transform="translate(225.625,-18)">
			<title>Sheet.19</title>
			<desc>Sepia</desc>
			<v:textBlock v:margins="rect(4,4,4,4)"/>
			<v:textRect cx="40.5" cy="371.398" width="81" height="27"/>
			<rect x="0" y="357.898" width="81" height="27" class="st3"/>
			<text x="27.35" y="375" class="st4" v:langID="1033"><v:paragraph v:horizAlign="1"/><v:tabList/>Sepia</text>		</g>
		<g id="shape20-55" v:mID="20" v:groupContext="shape" transform="translate(378,-22.125)">
			<title>Sheet.20</title>
			<desc>Negative</desc>
			<v:textBlock v:margins="rect(4,4,4,4)"/>
			<v:textRect cx="40.5" cy="371.398" width="81" height="27"/>
			<rect x="0" y="357.898" width="81" height="27" class="st3"/>
			<text x="18.86" y="375" class="st4" v:langID="1033"><v:paragraph v:horizAlign="1"/><v:tabList/>Negative</text>		</g>
		<g id="shape26-58" v:mID="26" v:groupContext="shape" transform="translate(632.398,43.795) rotate(90)">
			<title>Sheet.26</title>
			<path d="M0 384.9 L18.39 384.9" class="st5"/>
		</g>
		<g id="shape27-64" v:mID="27" v:groupContext="shape" transform="translate(332.34,-332.967) rotate(11.8008)">
			<title>Sheet.27</title>
			<path d="M0 384.9 L128.1 384.9" class="st5"/>
		</g>
		<g id="shape30-69" v:mID="30" v:groupContext="shape" transform="translate(225.625,-80.625)">
			<title>Sheet.30</title>
			<desc>Landscape</desc>
			<v:textBlock v:margins="rect(4,4,4,4)"/>
			<v:textRect cx="40.5" cy="371.398" width="81" height="27"/>
			<rect x="0" y="357.898" width="81" height="27" class="st3"/>
			<text x="14.9" y="375" class="st4" v:langID="1033"><v:paragraph v:horizAlign="1"/><v:tabList/>Landscape</text>		</g>
		<g id="shape31-72" v:mID="31" v:groupContext="shape" transform="translate(93.875,-80.625)">
			<title>Sheet.31</title>
			<desc>None</desc>
			<v:textBlock v:margins="rect(4,4,4,4)"/>
			<v:textRect cx="40.5" cy="371.398" width="81" height="27"/>
			<rect x="0" y="357.898" width="81" height="27" class="st3"/>
			<text x="27.33" y="375" class="st4" v:langID="1033"><v:paragraph v:horizAlign="1"/><v:tabList/>None</text>		</g>
		<g id="shape34-75" v:mID="34" v:groupContext="shape" transform="translate(390.501,455.788) rotate(158.45)">
			<title>Sheet.34</title>
			<path d="M0 384.9 L53.09 384.9" class="st5"/>
		</g>
		<g id="shape35-80" v:mID="35" v:groupContext="shape" transform="translate(390.501,-260.198) rotate(21.5498)">
			<title>Sheet.35</title>
			<path d="M0 384.9 L53.09 384.9" class="st5"/>
		</g>
		<g id="shape36-85" v:mID="36" v:groupContext="shape" transform="translate(318.39,-280.819) rotate(10.3673)">
			<title>Sheet.36</title>
			<path d="M0 384.9 L185.25 384.9" class="st5"/>
		</g>
		<g id="shape37-90" v:mID="37" v:groupContext="shape" transform="translate(331.364,506.141) rotate(158.552)">
			<title>Sheet.37</title>
			<path d="M0 384.9 L57.88 384.9" class="st5"/>
		</g>
		<g id="shape38-95" v:mID="38" v:groupContext="shape" transform="translate(320.039,-214.591) rotate(19.6474)">
			<title>Sheet.38</title>
			<path d="M0 384.9 L64.92 384.9" class="st5"/>
		</g>
		<g id="shape39-100" v:mID="39" v:groupContext="shape" transform="translate(338.412,578.011) rotate(169.128)">
			<title>Sheet.39</title>
			<path d="M0 384.9 L123.39 384.9" class="st5"/>
		</g>
		<g id="shape40-105" v:mID="40" v:groupContext="shape" transform="translate(338.267,630.104) rotate(169.102)">
			<title>Sheet.40</title>
			<path d="M0 384.9 L123.09 384.9" class="st5"/>
		</g>
		<g id="shape41-110" v:mID="41" v:groupContext="shape" transform="translate(654.898,252.148) rotate(90)">
			<title>Sheet.41</title>
			<path d="M0 384.9 L18.82 384.9" class="st5"/>
		</g>
		<g id="shape42-115" v:mID="42" v:groupContext="shape" transform="translate(650.71,200.023) rotate(90)">
			<title>Sheet.42</title>
			<path d="M0 384.9 L15.32 384.9" class="st5"/>
		</g>
		<g id="shape43-120" v:mID="43" v:groupContext="shape" transform="translate(388.465,672.855) rotate(161.418)">
			<title>Sheet.43</title>
			<path d="M0 384.9 L90.22 384.9" class="st5"/>
		</g>
		<g id="shape44-125" v:mID="44" v:groupContext="shape" transform="translate(650.71,308.023) rotate(90)">
			<title>Sheet.44</title>
			<path d="M0 384.9 L22.07 384.9" class="st5"/>
		</g>
		<g id="shape45-130" v:mID="45" v:groupContext="shape" transform="translate(373.584,-61.4791) rotate(16.2602)">
			<title>Sheet.45</title>
			<path d="M0 384.9 L102.69 384.9" class="st5"/>
		</g>
		<g id="shape47-135" v:mID="47" v:groupContext="shape" transform="translate(287.375,-290)">
			<title>Sheet.47</title>
			<desc>· · · ·</desc>
			<v:textBlock v:margins="rect(4,4,4,4)"/>
			<v:textRect cx="33.75" cy="374.898" width="67.51" height="20"/>
			<rect x="0" y="364.898" width="67.5" height="20" class="st1"/>
			<text x="15.79" y="378.54" class="st7" v:langID="1033"><v:paragraph v:horizAlign="1"/><v:tabList/>·<tspan class="st8">  </tspan>·<tspan
						class="st8">  </tspan>· <tspan class="st8"> </tspan>·</text>		</g>
		<g id="shape55-141" v:mID="55" v:groupContext="shape" transform="translate(352.625,-240.705)">
			<title>Sheet.55</title>
			<desc>· · · ·</desc>
			<v:textBlock v:margins="rect(4,4,4,4)"/>
			<v:textRect cx="33.75" cy="374.898" width="67.51" height="20"/>
			<rect x="0" y="364.898" width="67.5" height="20" class="st1"/>
			<text x="15.79" y="378.54" class="st7" v:langID="1033"><v:paragraph v:horizAlign="1"/><v:tabList/>·<tspan class="st8">  </tspan>·<tspan
						class="st8">  </tspan>· <tspan class="st8"> </tspan>·</text>		</g>
		<g id="shape56-147" v:mID="56" v:groupContext="shape" transform="translate(312.75,-21.5)">
			<title>Sheet.56</title>
			<desc>· · · ·</desc>
			<v:textBlock v:margins="rect(4,4,4,4)"/>
			<v:textRect cx="33.75" cy="374.898" width="67.51" height="20"/>
			<rect x="0" y="364.898" width="67.5" height="20" class="st1"/>
			<text x="15.79" y="378.54" class="st7" v:langID="1033"><v:paragraph v:horizAlign="1"/><v:tabList/>·<tspan class="st8">  </tspan>·<tspan
						class="st8">  </tspan>· <tspan class="st8"> </tspan>·</text>		</g>
		<g id="shape57-153" v:mID="57" v:groupContext="shape" transform="translate(328.5,-80.625)">
			<title>Sheet.57</title>
			<desc>Night</desc>
			<v:textBlock v:margins="rect(4,4,4,4)"/>
			<v:textRect cx="40.5" cy="371.398" width="81" height="27"/>
			<rect x="0" y="357.898" width="81" height="27" class="st3"/>
			<text x="27.26" y="375" class="st4" v:langID="1033"><v:paragraph v:horizAlign="1"/><v:tabList/>Night</text>		</g>
		<g id="shape59-156" v:mID="59" v:groupContext="shape" transform="translate(373.493,-118.575) rotate(15.598)">
			<title>Sheet.59</title>
			<path d="M0 384.9 L83.63 384.9" class="st5"/>
		</g>
		<g id="shape60-161" v:mID="60" v:groupContext="shape" transform="translate(35.375,-326.625)">
			<title>Sheet.60</title>
			<path d="M0 384.9 L549 384.9" class="st9"/>
		</g>
		<g id="shape61-164" v:mID="61" v:groupContext="shape" transform="translate(30.875,-272.625)">
			<title>Sheet.61</title>
			<path d="M0 384.9 L549 384.9" class="st9"/>
		</g>
		<g id="shape62-167" v:mID="62" v:groupContext="shape" transform="translate(35.375,-223.125)">
			<title>Sheet.62</title>
			<path d="M0 384.9 L549 384.9" class="st9"/>
		</g>
		<g id="shape63-170" v:mID="63" v:groupContext="shape" transform="translate(30.875,-171.375)">
			<title>Sheet.63</title>
			<path d="M0 384.9 L549 384.9" class="st9"/>
		</g>
		<g id="shape64-173" v:mID="64" v:groupContext="shape" transform="translate(30.875,-121.875)">
			<title>Sheet.64</title>
			<path d="M0 384.9 L549 384.9" class="st9"/>
		</g>
		<g id="shape65-176" v:mID="65" v:groupContext="shape" transform="translate(26.375,-63.375)">
			<title>Sheet.65</title>
			<path d="M0 384.9 L549 384.9" class="st9"/>
		</g>
		<g id="shape66-179" v:mID="66" v:groupContext="shape" transform="translate(87.75,-184.875)">
			<title>Sheet.66</title>
			<desc>ISPHDR</desc>
			<v:textBlock v:margins="rect(4,4,4,4)"/>
			<v:textRect cx="40.5" cy="371.398" width="81" height="27"/>
			<rect x="0" y="357.898" width="81" height="27" class="st3"/>
			<text x="22.44" y="375" class="st4" v:langID="1033"><v:paragraph v:horizAlign="1"/><v:tabList/>ISPHDR</text>		</g>
		<g id="shape67-182" v:mID="67" v:groupContext="shape" transform="translate(441,-184.5)">
			<title>Sheet.67</title>
			<desc>None</desc>
			<v:textBlock v:margins="rect(4,4,4,4)"/>
			<v:textRect cx="40.5" cy="371.398" width="81" height="27"/>
			<rect x="0" y="357.898" width="81" height="27" class="st3"/>
			<text x="27.33" y="375" class="st4" v:langID="1033"><v:paragraph v:horizAlign="1"/><v:tabList/>None</text>		</g>
		<g id="shape68-185" v:mID="68" v:groupContext="shape" transform="translate(868.648,148.068) rotate(90)">
			<title>Sheet.68</title>
			<path d="M0 384.9 L15.52 384.9" class="st5"/>
		</g>
		<g id="shape70-190" v:mID="70" v:groupContext="shape" transform="translate(441,675.295) rotate(180)">
			<title>Sheet.70</title>
			<path d="M0 384.9 L21.69 384.9" class="st10"/>
		</g>
		<g id="shape122-195" v:mID="122" v:groupContext="shape" transform="translate(407.25,-98.625)">
			<title>Sheet.122</title>
			<desc>Link</desc>
			<v:textBlock v:margins="rect(4,4,4,4)"/>
			<v:textRect cx="18" cy="380.398" width="36" height="9"/>
			<rect x="0" y="375.898" width="36" height="9" class="st1"/>
			<text x="10.67" y="383.1" class="st11" v:langID="1033"><v:paragraph v:horizAlign="1"/><v:tabList/>Link</text>		</g>
		<g id="shape123-198" v:mID="123" v:groupContext="shape" transform="translate(166.5,-84.125)">
			<title>Sheet.123</title>
			<desc>· · · ·</desc>
			<v:textBlock v:margins="rect(4,4,4,4)"/>
			<v:textRect cx="33.75" cy="374.898" width="67.51" height="20"/>
			<rect x="0" y="364.898" width="67.5" height="20" class="st1"/>
			<text x="15.79" y="378.54" class="st7" v:langID="1033"><v:paragraph v:horizAlign="1"/><v:tabList/>·<tspan class="st8">  </tspan>·<tspan
						class="st8">  </tspan>· <tspan class="st8"> </tspan>·</text>		</g>
		<g id="shape124-204" v:mID="124" v:groupContext="shape" transform="translate(441,-132.17)">
			<title>Sheet.124</title>
			<desc>None</desc>
			<v:textBlock v:margins="rect(4,4,4,4)"/>
			<v:textRect cx="40.5" cy="371.398" width="81" height="27"/>
			<rect x="0" y="357.898" width="81" height="27" class="st3"/>
			<text x="27.33" y="375" class="st4" v:langID="1033"><v:paragraph v:horizAlign="1"/><v:tabList/>None</text>		</g>
		<g id="shape125-207" v:mID="125" v:groupContext="shape" transform="translate(441,-80.625)">
			<title>Sheet.125</title>
			<desc>Night</desc>
			<v:textBlock v:margins="rect(4,4,4,4)"/>
			<v:textRect cx="40.5" cy="371.398" width="81" height="27"/>
			<rect x="0" y="357.898" width="81" height="27" class="st3"/>
			<text x="27.26" y="375" class="st4" v:langID="1033"><v:paragraph v:horizAlign="1"/><v:tabList/>Night</text>		</g>
		<g id="shape126-210" v:mID="126" v:groupContext="shape" transform="translate(866.398,200.398) rotate(90)">
			<title>Sheet.126</title>
			<path d="M0 384.9 L15.52 384.9" class="st5"/>
		</g>
		<g id="shape127-215" v:mID="127" v:groupContext="shape" transform="translate(866.398,251.943) rotate(90)">
			<title>Sheet.127</title>
			<path d="M0 384.9 L15.52 384.9" class="st5"/>
		</g>
	</g>
</svg>
