<?xml version="1.0" encoding="utf-8"?>
<!-- Generator: Adobe Illustrator 14.0.0, SVG Export Plug-In . SVG Version: 6.00 Build 43363)  -->
<!DOCTYPE svg PUBLIC "-//W3C//DTD SVG 1.1//EN" "http://www.w3.org/Graphics/SVG/1.1/DTD/svg11.dtd">
<svg version="1.1" id="Layer_1" xmlns="http://www.w3.org/2000/svg" xmlns:xlink="http://www.w3.org/1999/xlink" x="0px" y="0px"
	 width="128.622px" height="28.292px" viewBox="-7.956 -4.373 128.622 28.292"
	 enable-background="new -7.956 -4.373 128.622 28.292" xml:space="preserve">
<g>
	<path fill="#233E95" d="M44.33,13.132c0,0.526,0.61,1.136,1.133,1.136l7.769-0.003l-1.741-2.8h-4.5V0.697h-2.66L44.33,13.132"/>
	<path fill="#233E95" d="M15.843,7.806c0-6.477-5.25-11.728-11.728-11.728c-6.477,0-11.726,5.251-11.726,11.728
		c0,6.478,5.25,11.727,11.726,11.727c0.689,0,1.344-0.063,2.002-0.177l-0.021,4.563h3.299v-5.68
		C13.203,16.302,15.843,12.371,15.843,7.806 M9.394,13.278V9.502l-3.299,0.94l0.003,4.68c-0.633,0.174-1.295,0.279-1.984,0.279
		C-0.08,15.401-3.48,12-3.48,7.806c0-4.195,3.401-7.597,7.594-7.597c4.197,0,7.598,3.403,7.598,7.597
		C11.712,9.952,10.823,11.895,9.394,13.278z"/>
	<path fill="#233E95" d="M26.661,14.27h-7.664c-0.523,0-1.14-0.608-1.14-1.135L17.851,0.698h2.663v10.767h4.616V0.697h2.664
		l0.002,12.438C27.797,13.661,27.185,14.27,26.661,14.27"/>
	<path fill="#233E95" d="M62.408,1.197c-1.064-0.623-2.312-0.983-3.636-0.983c-3.972,0-7.196,3.222-7.196,7.197
		c0,3.977,3.225,7.197,7.196,7.197c1.243,0,2.432-0.322,3.453-0.877l-1.301-2.336c-0.641,0.349-1.37,0.549-2.152,0.549
		c-2.502,0-4.528-2.03-4.528-4.533c0-2.501,2.026-4.531,4.528-4.531c0.846,0,1.644,0.238,2.319,0.644L62.408,1.197"/>
	<path fill="#233E95" d="M68.575,0.253c-3.976,0-7.19,3.242-7.19,7.216c0,3.974,3.215,7.176,7.19,7.176
		c3.974,0,7.195-3.222,7.195-7.197C75.77,3.475,72.549,0.253,68.575,0.253 M68.575,11.98c-2.502,0-4.527-2.01-4.527-4.511
		c0-2.503,2.025-4.55,4.527-4.55c2.5,0,4.53,2.028,4.53,4.53C73.105,9.951,71.075,11.98,68.575,11.98z"/>
	<path fill="#233E95" d="M37.384,0.721h-2.639l-5.939,13.476h2.827l1.395-2.971l6.157,0.002l0.126,0.287l1.183,2.682h2.828
		L37.384,0.721 M33.916,9.02l2.142-4.872l2.148,4.872H33.916z"/>
	<path fill="#233E95" d="M118.588,12.602l-4.874-11.25c-0.29-0.542-0.794-0.793-1.499-0.793c-0.708,0-1.209,0.251-1.5,0.793
		l-3.584,8.25l-3.583-8.25c-0.289-0.542-0.792-0.793-1.498-0.793c-0.709,0-1.212,0.251-1.5,0.793l-3.584,8.268l-3.584-8.268
		c-0.289-0.542-0.792-0.793-1.497-0.793c-0.708,0-1.209,0.251-1.499,0.793l-3.584,8.25l-3.583-8.25
		c-0.293-0.542-0.792-0.793-1.5-0.793s-1.21,0.251-1.5,0.793l-4.876,11.25c-0.669,1.76,1.752,2.665,2.541,1.249l3.835-8.958
		l3.831,8.958c0.502,0.916,2.043,0.876,2.5,0l3.835-8.958l3.831,8.958c0.253,0.451,0.67,0.644,1.097,0.671
		c0.054,0.01,0.103,0.012,0.153,0.014c0.054-0.002,0.103-0.004,0.153-0.014c0.428-0.027,0.846-0.22,1.097-0.671l3.834-8.958
		l3.831,8.958c0.459,0.876,2.001,0.916,2.5,0l3.835-8.958l3.831,8.958C116.839,15.267,119.261,14.361,118.588,12.602"/>
	<path fill="#233E95" d="M118.434,0.813c-0.865,0-1.599,0.665-1.599,1.57c0,0.912,0.733,1.578,1.599,1.578
		c0.856,0,1.592-0.665,1.592-1.578C120.027,1.477,119.291,0.813,118.434,0.813 M118.434,3.698c-0.721,0-1.279-0.558-1.279-1.316
		c0-0.746,0.559-1.307,1.279-1.307c0.712,0,1.273,0.562,1.273,1.307C119.708,3.14,119.148,3.698,118.434,3.698z M119.161,1.994
		c0-0.357-0.213-0.517-0.642-0.517h-0.69v1.818h0.273V2.509h0.318l0.476,0.786h0.312l-0.517-0.801
		C118.954,2.462,119.161,2.32,119.161,1.994z M118.102,2.273v-0.56h0.374c0.192,0,0.396,0.041,0.396,0.265
		c0,0.28-0.206,0.295-0.44,0.295H118.102z"/>
</g>
</svg>
